<ttFont>
<head>
    <!-- Most of this table will be recalculated by the compiler -->
    <tableVersion value="1.0"/>
    <fontRevision value="1.0"/>
    <checkSumAdjustment value="0x84e52e8c"/>
    <magicNumber value="0x5f0f3cf5"/>
    <flags value="00000000 00011011"/>
    <unitsPerEm value="1000"/>
    <created value="Sat Dec  6 13:43:39 2025"/>
    <modified value="Sat Dec  6 13:44:27 2025"/>
    <xMin value="-46"/>
    <yMin value="-233"/>
    <xMax value="1049"/>
    <yMax value="696"/>
    <macStyle value="00000000 00000000"/>
    <lowestRecPPEM value="6"/>
    <fontDirectionHint value="2"/>
    <indexToLocFormat value="0"/>
    <glyphDataFormat value="0"/>
  </head>
    <TTGlyph name="A" xMin="41" yMin="0" xMax="716" yMax="623">
      <contour>
        <pt x="630" y="61" on="1"/>
        <pt x="676" y="61" on="1"/>
        <pt x="682" y="61" on="0"/>
        <pt x="696" y="60" on="0"/>
        <pt x="708" y="54" on="0"/>
        <pt x="716" y="42" on="0"/>
        <pt x="716" y="30" on="1"/>
        <pt x="716" y="19" on="0"/>
        <pt x="708" y="7" on="0"/>
        <pt x="696" y="1" on="0"/>
        <pt x="682" y="0" on="0"/>
        <pt x="676" y="0" on="1"/>
        <pt x="517" y="0" on="1"/>
        <pt x="511" y="0" on="0"/>
        <pt x="497" y="1" on="0"/>
        <pt x="485" y="7" on="0"/>
        <pt x="476" y="19" on="0"/>
        <pt x="476" y="31" on="1"/>
        <pt x="476" y="42" on="0"/>
        <pt x="485" y="54" on="0"/>
        <pt x="497" y="60" on="0"/>
        <pt x="511" y="61" on="0"/>
        <pt x="517" y="61" on="1"/>
        <pt x="557" y="61" on="1"/>
        <pt x="517" y="172" on="1"/>
        <pt x="240" y="172" on="1"/>
        <pt x="200" y="61" on="1"/>
        <pt x="240" y="61" on="1"/>
        <pt x="246" y="61" on="0"/>
        <pt x="260" y="60" on="0"/>
        <pt x="272" y="54" on="0"/>
        <pt x="281" y="42" on="0"/>
        <pt x="281" y="30" on="1"/>
        <pt x="281" y="19" on="0"/>
        <pt x="272" y="7" on="0"/>
        <pt x="260" y="1" on="0"/>
        <pt x="246" y="0" on="0"/>
        <pt x="240" y="0" on="1"/>
        <pt x="81" y="0" on="1"/>
        <pt x="75" y="0" on="0"/>
        <pt x="61" y="1" on="0"/>
        <pt x="49" y="7" on="0"/>
        <pt x="41" y="19" on="0"/>
        <pt x="41" y="31" on="1"/>
        <pt x="41" y="42" on="0"/>
        <pt x="49" y="54" on="0"/>
        <pt x="61" y="60" on="0"/>
        <pt x="75" y="61" on="0"/>
        <pt x="81" y="61" on="1"/>
        <pt x="127" y="61" on="1"/>
        <pt x="316" y="590" on="1"/>
        <pt x="325" y="615" on="0"/>
        <pt x="355" y="623" on="0"/>
        <pt x="369" y="623" on="1"/>
        <pt x="388" y="623" on="1"/>
        <pt x="396" y="623" on="0"/>
        <pt x="411" y="622" on="0"/>
        <pt x="425" y="616" on="0"/>
        <pt x="437" y="602" on="0"/>
        <pt x="441" y="589" on="1"/>
      </contour>
      <contour>
        <pt x="262" y="233" on="1"/>
        <pt x="495" y="233" on="1"/>
        <pt x="378" y="559" on="1"/>
      </contour>
    </TTGlyph>
    <TTGlyph name="AE" xMin="44" yMin="0" xMax="903" yMax="611">
      <contour>
        <pt x="207" y="61" on="1"/>
        <pt x="244" y="61" on="1"/>
        <pt x="250" y="61" on="0"/>
        <pt x="264" y="60" on="0"/>
        <pt x="276" y="54" on="0"/>
        <pt x="284" y="42" on="0"/>
        <pt x="284" y="30" on="1"/>
        <pt x="284" y="19" on="0"/>
        <pt x="276" y="7" on="0"/>
        <pt x="264" y="1" on="0"/>
        <pt x="250" y="0" on="0"/>
        <pt x="244" y="0" on="1"/>
        <pt x="85" y="0" on="1"/>
        <pt x="79" y="0" on="0"/>
        <pt x="65" y="1" on="0"/>
        <pt x="52" y="7" on="0"/>
        <pt x="44" y="19" on="0"/>
        <pt x="44" y="31" on="1"/>
        <pt x="44" y="42" on="0"/>
        <pt x="53" y="54" on="0"/>
        <pt x="65" y="60" on="0"/>
        <pt x="79" y="61" on="0"/>
        <pt x="85" y="61" on="1"/>
        <pt x="132" y="61" on="1"/>
        <pt x="346" y="550" on="1"/>
        <pt x="329" y="550" on="1"/>
        <pt x="324" y="550" on="0"/>
        <pt x="310" y="551" on="0"/>
        <pt x="297" y="557" on="0"/>
        <pt x="288" y="569" on="0"/>
        <pt x="288" y="580" on="1"/>
        <pt x="288" y="592" on="0"/>
        <pt x="297" y="604" on="0"/>
        <pt x="309" y="610" on="0"/>
        <pt x="323" y="611" on="0"/>
        <pt x="329" y="611" on="1"/>
        <pt x="834" y="611" on="1"/>
        <pt x="860" y="611" on="0"/>
        <pt x="874" y="593" on="0"/>
        <pt x="874" y="570" on="1"/>
        <pt x="874" y="497" on="1"/>
        <pt x="874" y="482" on="0"/>
        <pt x="865" y="456" on="0"/>
        <pt x="839" y="456" on="1"/>
        <pt x="826" y="456" on="0"/>
        <pt x="812" y="463" on="0"/>
        <pt x="806" y="475" on="0"/>
        <pt x="805" y="490" on="0"/>
        <pt x="805" y="497" on="1"/>
        <pt x="805" y="550" on="1"/>
        <pt x="538" y="550" on="1"/>
        <pt x="538" y="347" on="1"/>
        <pt x="685" y="347" on="1"/>
        <pt x="685" y="378" on="0"/>
        <pt x="694" y="404" on="0"/>
        <pt x="720" y="404" on="1"/>
        <pt x="733" y="404" on="0"/>
        <pt x="747" y="397" on="0"/>
        <pt x="753" y="385" on="0"/>
        <pt x="754" y="370" on="0"/>
        <pt x="754" y="363" on="1"/>
        <pt x="754" y="270" on="1"/>
        <pt x="754" y="263" on="0"/>
        <pt x="753" y="248" on="0"/>
        <pt x="747" y="236" on="0"/>
        <pt x="733" y="229" on="0"/>
        <pt x="720" y="229" on="1"/>
        <pt x="694" y="229" on="0"/>
        <pt x="685" y="255" on="0"/>
        <pt x="685" y="286" on="1"/>
        <pt x="538" y="286" on="1"/>
        <pt x="538" y="61" on="1"/>
        <pt x="834" y="61" on="1"/>
        <pt x="834" y="130" on="1"/>
        <pt x="834" y="145" on="0"/>
        <pt x="843" y="171" on="0"/>
        <pt x="869" y="171" on="1"/>
        <pt x="882" y="171" on="0"/>
        <pt x="896" y="164" on="0"/>
        <pt x="902" y="152" on="0"/>
        <pt x="903" y="137" on="0"/>
        <pt x="903" y="130" on="1"/>
        <pt x="903" y="41" on="1"/>
        <pt x="903" y="17" on="0"/>
        <pt x="888" y="0" on="0"/>
        <pt x="863" y="0" on="1"/>
        <pt x="439" y="0" on="1"/>
        <pt x="433" y="0" on="0"/>
        <pt x="419" y="1" on="0"/>
        <pt x="407" y="7" on="0"/>
        <pt x="398" y="19" on="0"/>
        <pt x="398" y="30" on="1"/>
        <pt x="398" y="42" on="0"/>
        <pt x="406" y="54" on="0"/>
        <pt x="419" y="60" on="0"/>
        <pt x="433" y="61" on="0"/>
        <pt x="439" y="61" on="1"/>
        <pt x="469" y="61" on="1"/>
        <pt x="469" y="183" on="1"/>
        <pt x="260" y="183" on="1"/>
      </contour>
      <contour>
        <pt x="287" y="244" on="1"/>
        <pt x="469" y="244" on="1"/>
        <pt x="469" y="550" on="1"/>
        <pt x="422" y="550" on="1"/>
      </contour>
    </TTGlyph>
    <TTGlyph name="B" xMin="46" yMin="0" xMax="670" yMax="611">
      <contour>
        <pt x="409" y="611" on="1"/>
        <pt x="459" y="611" on="0"/>
        <pt x="544" y="585" on="0"/>
        <pt x="606" y="542" on="0"/>
        <pt x="641" y="486" on="0"/>
        <pt x="641" y="456" on="1"/>
        <pt x="641" y="429" on="0"/>
        <pt x="614" y="384" on="0"/>
        <pt x="571" y="350" on="0"/>
        <pt x="518" y="326" on="0"/>
        <pt x="492" y="320" on="1"/>
        <pt x="535" y="313" on="0"/>
        <pt x="601" y="282" on="0"/>
        <pt x="646" y="241" on="0"/>
        <pt x="670" y="193" on="0"/>
        <pt x="670" y="167" on="1"/>
        <pt x="670" y="135" on="0"/>
        <pt x="635" y="75" on="0"/>
        <pt x="574" y="28" on="0"/>
        <pt x="488" y="0" on="0"/>
        <pt x="437" y="0" on="1"/>
        <pt x="86" y="0" on="1"/>
        <pt x="80" y="0" on="0"/>
        <pt x="66" y="1" on="0"/>
        <pt x="54" y="7" on="0"/>
        <pt x="46" y="19" on="0"/>
        <pt x="46" y="30" on="1"/>
        <pt x="46" y="42" on="0"/>
        <pt x="54" y="54" on="0"/>
        <pt x="66" y="60" on="0"/>
        <pt x="80" y="61" on="0"/>
        <pt x="86" y="61" on="1"/>
        <pt x="140" y="61" on="1"/>
        <pt x="140" y="550" on="1"/>
        <pt x="86" y="550" on="1"/>
        <pt x="80" y="550" on="0"/>
        <pt x="66" y="551" on="0"/>
        <pt x="54" y="557" on="0"/>
        <pt x="46" y="569" on="0"/>
        <pt x="46" y="580" on="1"/>
        <pt x="46" y="592" on="0"/>
        <pt x="54" y="604" on="0"/>
        <pt x="66" y="610" on="0"/>
        <pt x="80" y="611" on="0"/>
        <pt x="86" y="611" on="1"/>
      </contour>
      <contour>
        <pt x="375" y="348" on="1"/>
        <pt x="419" y="348" on="0"/>
        <pt x="492" y="366" on="0"/>
        <pt x="544" y="395" on="0"/>
        <pt x="572" y="434" on="0"/>
        <pt x="572" y="455" on="1"/>
        <pt x="572" y="474" on="0"/>
        <pt x="547" y="508" on="0"/>
        <pt x="504" y="534" on="0"/>
        <pt x="443" y="550" on="0"/>
        <pt x="407" y="550" on="1"/>
        <pt x="209" y="550" on="1"/>
        <pt x="209" y="348" on="1"/>
      </contour>
      <contour>
        <pt x="409" y="61" on="1"/>
        <pt x="448" y="61" on="0"/>
        <pt x="517" y="77" on="0"/>
        <pt x="570" y="106" on="0"/>
        <pt x="601" y="146" on="0"/>
        <pt x="601" y="169" on="1"/>
        <pt x="601" y="192" on="0"/>
        <pt x="574" y="235" on="0"/>
        <pt x="526" y="268" on="0"/>
        <pt x="462" y="287" on="0"/>
        <pt x="425" y="287" on="1"/>
        <pt x="209" y="287" on="1"/>
        <pt x="209" y="61" on="1"/>
      </contour>
    </TTGlyph>
    <TTGlyph name="C" xMin="58" yMin="-11" xMax="699" yMax="622">
      <contour>
        <pt x="699" y="442" on="1"/>
        <pt x="699" y="427" on="0"/>
        <pt x="690" y="401" on="0"/>
        <pt x="664" y="401" on="1"/>
        <pt x="657" y="401" on="0"/>
        <pt x="635" y="407" on="0"/>
        <pt x="631" y="424" on="1"/>
        <pt x="628" y="435" on="0"/>
        <pt x="621" y="459" on="0"/>
        <pt x="605" y="486" on="0"/>
        <pt x="578" y="514" on="0"/>
        <pt x="555" y="527" on="1"/>
        <pt x="528" y="543" on="0"/>
        <pt x="455" y="561" on="0"/>
        <pt x="415" y="561" on="1"/>
        <pt x="353" y="561" on="0"/>
        <pt x="248" y="519" on="0"/>
        <pt x="171" y="449" on="0"/>
        <pt x="127" y="357" on="0"/>
        <pt x="127" y="306" on="1"/>
        <pt x="127" y="255" on="0"/>
        <pt x="170" y="163" on="0"/>
        <pt x="247" y="92" on="0"/>
        <pt x="354" y="50" on="0"/>
        <pt x="417" y="50" on="1"/>
        <pt x="453" y="50" on="0"/>
        <pt x="530" y="64" on="0"/>
        <pt x="559" y="78" on="1"/>
        <pt x="584" y="90" on="0"/>
        <pt x="612" y="116" on="0"/>
        <pt x="625" y="140" on="0"/>
        <pt x="629" y="163" on="0"/>
        <pt x="630" y="172" on="1"/>
        <pt x="632" y="194" on="0"/>
        <pt x="656" y="201" on="0"/>
        <pt x="664" y="201" on="1"/>
        <pt x="668" y="201" on="0"/>
        <pt x="680" y="200" on="0"/>
        <pt x="691" y="194" on="0"/>
        <pt x="699" y="180" on="0"/>
        <pt x="699" y="168" on="1"/>
        <pt x="699" y="130" on="0"/>
        <pt x="659" y="64" on="0"/>
        <pt x="585" y="16" on="0"/>
        <pt x="478" y="-11" on="0"/>
        <pt x="410" y="-11" on="1"/>
        <pt x="333" y="-11" on="0"/>
        <pt x="203" y="41" on="0"/>
        <pt x="110" y="129" on="0"/>
        <pt x="58" y="243" on="0"/>
        <pt x="58" y="306" on="1"/>
        <pt x="58" y="369" on="0"/>
        <pt x="111" y="484" on="0"/>
        <pt x="204" y="571" on="0"/>
        <pt x="333" y="622" on="0"/>
        <pt x="408" y="622" on="1"/>
        <pt x="480" y="622" on="0"/>
        <pt x="589" y="584" on="0"/>
        <pt x="620" y="560" on="1"/>
        <pt x="627" y="575" on="0"/>
        <pt x="631" y="586" on="0"/>
        <pt x="638" y="597" on="1"/>
        <pt x="643" y="608" on="0"/>
        <pt x="655" y="622" on="0"/>
        <pt x="669" y="622" on="1"/>
        <pt x="680" y="622" on="0"/>
        <pt x="692" y="614" on="0"/>
        <pt x="698" y="601" on="0"/>
        <pt x="699" y="587" on="0"/>
        <pt x="699" y="581" on="1"/>
      </contour>
    </TTGlyph>
    <TTGlyph name="D" xMin="46" yMin="0" xMax="728" yMax="611">
      <contour>
        <pt x="408" y="611" on="1"/>
        <pt x="474" y="611" on="0"/>
        <pt x="591" y="562" on="0"/>
        <pt x="678" y="477" on="0"/>
        <pt x="728" y="364" on="0"/>
        <pt x="728" y="300" on="1"/>
        <pt x="728" y="239" on="0"/>
        <pt x="678" y="129" on="0"/>
        <pt x="591" y="48" on="0"/>
        <pt x="475" y="0" on="0"/>
        <pt x="408" y="0" on="1"/>
        <pt x="86" y="0" on="1"/>
        <pt x="80" y="0" on="0"/>
        <pt x="66" y="1" on="0"/>
        <pt x="54" y="7" on="0"/>
        <pt x="46" y="19" on="0"/>
        <pt x="46" y="30" on="1"/>
        <pt x="46" y="42" on="0"/>
        <pt x="54" y="54" on="0"/>
        <pt x="66" y="60" on="0"/>
        <pt x="80" y="61" on="0"/>
        <pt x="86" y="61" on="1"/>
        <pt x="140" y="61" on="1"/>
        <pt x="140" y="550" on="1"/>
        <pt x="86" y="550" on="1"/>
        <pt x="80" y="550" on="0"/>
        <pt x="66" y="551" on="0"/>
        <pt x="54" y="557" on="0"/>
        <pt x="46" y="569" on="0"/>
        <pt x="46" y="580" on="1"/>
        <pt x="46" y="592" on="0"/>
        <pt x="54" y="604" on="0"/>
        <pt x="66" y="610" on="0"/>
        <pt x="80" y="611" on="0"/>
        <pt x="86" y="611" on="1"/>
      </contour>
      <contour>
        <pt x="390" y="61" on="1"/>
        <pt x="447" y="61" on="0"/>
        <pt x="545" y="99" on="0"/>
        <pt x="617" y="165" on="0"/>
        <pt x="659" y="252" on="0"/>
        <pt x="659" y="301" on="1"/>
        <pt x="659" y="350" on="0"/>
        <pt x="619" y="440" on="0"/>
        <pt x="547" y="509" on="0"/>
        <pt x="448" y="550" on="0"/>
        <pt x="389" y="550" on="1"/>
        <pt x="209" y="550" on="1"/>
        <pt x="209" y="61" on="1"/>
      </contour>
    </TTGlyph>
    <TTGlyph name="E" xMin="46" yMin="0" xMax="670" yMax="611">
      <contour>
        <pt x="209" y="61" on="1"/>
        <pt x="601" y="61" on="1"/>
        <pt x="601" y="130" on="1"/>
        <pt x="601" y="145" on="0"/>
        <pt x="610" y="171" on="0"/>
        <pt x="636" y="171" on="1"/>
        <pt x="649" y="171" on="0"/>
        <pt x="663" y="164" on="0"/>
        <pt x="669" y="152" on="0"/>
        <pt x="670" y="137" on="0"/>
        <pt x="670" y="130" on="1"/>
        <pt x="670" y="41" on="1"/>
        <pt x="670" y="17" on="0"/>
        <pt x="655" y="0" on="0"/>
        <pt x="630" y="0" on="1"/>
        <pt x="86" y="0" on="1"/>
        <pt x="80" y="0" on="0"/>
        <pt x="66" y="1" on="0"/>
        <pt x="54" y="7" on="0"/>
        <pt x="46" y="19" on="0"/>
        <pt x="46" y="30" on="1"/>
        <pt x="46" y="42" on="0"/>
        <pt x="54" y="54" on="0"/>
        <pt x="66" y="60" on="0"/>
        <pt x="80" y="61" on="0"/>
        <pt x="86" y="61" on="1"/>
        <pt x="140" y="61" on="1"/>
        <pt x="140" y="550" on="1"/>
        <pt x="86" y="550" on="1"/>
        <pt x="80" y="550" on="0"/>
        <pt x="66" y="551" on="0"/>
        <pt x="54" y="557" on="0"/>
        <pt x="46" y="569" on="0"/>
        <pt x="46" y="580" on="1"/>
        <pt x="46" y="592" on="0"/>
        <pt x="54" y="604" on="0"/>
        <pt x="66" y="610" on="0"/>
        <pt x="80" y="611" on="0"/>
        <pt x="86" y="611" on="1"/>
        <pt x="601" y="611" on="1"/>
        <pt x="627" y="611" on="0"/>
        <pt x="641" y="593" on="0"/>
        <pt x="641" y="570" on="1"/>
        <pt x="641" y="497" on="1"/>
        <pt x="641" y="482" on="0"/>
        <pt x="632" y="456" on="0"/>
        <pt x="606" y="456" on="1"/>
        <pt x="593" y="456" on="0"/>
        <pt x="579" y="463" on="0"/>
        <pt x="573" y="475" on="0"/>
        <pt x="572" y="490" on="0"/>
        <pt x="572" y="497" on="1"/>
        <pt x="572" y="550" on="1"/>
        <pt x="209" y="550" on="1"/>
        <pt x="209" y="347" on="1"/>
        <pt x="408" y="347" on="1"/>
        <pt x="408" y="378" on="0"/>
        <pt x="417" y="404" on="0"/>
        <pt x="443" y="404" on="1"/>
        <pt x="456" y="404" on="0"/>
        <pt x="470" y="397" on="0"/>
        <pt x="476" y="385" on="0"/>
        <pt x="477" y="370" on="0"/>
        <pt x="477" y="363" on="1"/>
        <pt x="477" y="270" on="1"/>
        <pt x="477" y="263" on="0"/>
        <pt x="476" y="248" on="0"/>
        <pt x="470" y="236" on="0"/>
        <pt x="456" y="229" on="0"/>
        <pt x="443" y="229" on="1"/>
        <pt x="417" y="229" on="0"/>
        <pt x="408" y="255" on="0"/>
        <pt x="408" y="286" on="1"/>
        <pt x="209" y="286" on="1"/>
      </contour>
    </TTGlyph>
    <TTGlyph name="F" xMin="46" yMin="0" xMax="626" yMax="611">
      <contour>
        <pt x="209" y="61" on="1"/>
        <pt x="287" y="61" on="1"/>
        <pt x="293" y="61" on="0"/>
        <pt x="307" y="60" on="0"/>
        <pt x="319" y="54" on="0"/>
        <pt x="327" y="42" on="0"/>
        <pt x="327" y="30" on="1"/>
        <pt x="327" y="19" on="0"/>
        <pt x="319" y="7" on="0"/>
        <pt x="307" y="1" on="0"/>
        <pt x="293" y="0" on="0"/>
        <pt x="287" y="0" on="1"/>
        <pt x="86" y="0" on="1"/>
        <pt x="80" y="0" on="0"/>
        <pt x="66" y="1" on="0"/>
        <pt x="54" y="7" on="0"/>
        <pt x="46" y="19" on="0"/>
        <pt x="46" y="30" on="1"/>
        <pt x="46" y="42" on="0"/>
        <pt x="54" y="54" on="0"/>
        <pt x="66" y="60" on="0"/>
        <pt x="80" y="61" on="0"/>
        <pt x="86" y="61" on="1"/>
        <pt x="140" y="61" on="1"/>
        <pt x="140" y="550" on="1"/>
        <pt x="86" y="550" on="1"/>
        <pt x="80" y="550" on="0"/>
        <pt x="66" y="551" on="0"/>
        <pt x="54" y="557" on="0"/>
        <pt x="46" y="569" on="0"/>
        <pt x="46" y="580" on="1"/>
        <pt x="46" y="592" on="0"/>
        <pt x="54" y="604" on="0"/>
        <pt x="66" y="610" on="0"/>
        <pt x="80" y="611" on="0"/>
        <pt x="86" y="611" on="1"/>
        <pt x="586" y="611" on="1"/>
        <pt x="612" y="611" on="0"/>
        <pt x="626" y="593" on="0"/>
        <pt x="626" y="570" on="1"/>
        <pt x="626" y="497" on="1"/>
        <pt x="626" y="482" on="0"/>
        <pt x="617" y="456" on="0"/>
        <pt x="591" y="456" on="1"/>
        <pt x="578" y="456" on="0"/>
        <pt x="564" y="463" on="0"/>
        <pt x="558" y="475" on="0"/>
        <pt x="557" y="490" on="0"/>
        <pt x="557" y="497" on="1"/>
        <pt x="557" y="550" on="1"/>
        <pt x="209" y="550" on="1"/>
        <pt x="209" y="336" on="1"/>
        <pt x="402" y="336" on="1"/>
        <pt x="402" y="367" on="0"/>
        <pt x="411" y="393" on="0"/>
        <pt x="437" y="393" on="1"/>
        <pt x="450" y="393" on="0"/>
        <pt x="464" y="386" on="0"/>
        <pt x="470" y="374" on="0"/>
        <pt x="471" y="359" on="0"/>
        <pt x="471" y="352" on="1"/>
        <pt x="471" y="259" on="1"/>
        <pt x="471" y="252" on="0"/>
        <pt x="470" y="237" on="0"/>
        <pt x="464" y="225" on="0"/>
        <pt x="450" y="218" on="0"/>
        <pt x="437" y="218" on="1"/>
        <pt x="411" y="218" on="0"/>
        <pt x="402" y="244" on="0"/>
        <pt x="402" y="275" on="1"/>
        <pt x="209" y="275" on="1"/>
      </contour>
    </TTGlyph>
    <TTGlyph name="G" xMin="58" yMin="-11" xMax="772" yMax="622">
      <contour>
        <pt x="699" y="41" on="1"/>
        <pt x="699" y="34" on="0"/>
        <pt x="698" y="19" on="0"/>
        <pt x="692" y="7" on="0"/>
        <pt x="678" y="0" on="0"/>
        <pt x="665" y="0" on="1"/>
        <pt x="639" y="0" on="0"/>
        <pt x="630" y="26" on="0"/>
        <pt x="630" y="41" on="1"/>
        <pt x="630" y="77" on="1"/>
        <pt x="617" y="64" on="0"/>
        <pt x="575" y="33" on="0"/>
        <pt x="519" y="6" on="0"/>
        <pt x="448" y="-11" on="0"/>
        <pt x="406" y="-11" on="1"/>
        <pt x="334" y="-11" on="0"/>
        <pt x="207" y="39" on="0"/>
        <pt x="113" y="125" on="0"/>
        <pt x="58" y="240" on="0"/>
        <pt x="58" y="306" on="1"/>
        <pt x="58" y="369" on="0"/>
        <pt x="111" y="484" on="0"/>
        <pt x="204" y="571" on="0"/>
        <pt x="333" y="622" on="0"/>
        <pt x="408" y="622" on="1"/>
        <pt x="480" y="622" on="0"/>
        <pt x="589" y="584" on="0"/>
        <pt x="620" y="560" on="1"/>
        <pt x="627" y="575" on="0"/>
        <pt x="631" y="586" on="0"/>
        <pt x="638" y="597" on="1"/>
        <pt x="643" y="608" on="0"/>
        <pt x="655" y="622" on="0"/>
        <pt x="669" y="622" on="1"/>
        <pt x="680" y="622" on="0"/>
        <pt x="692" y="614" on="0"/>
        <pt x="698" y="601" on="0"/>
        <pt x="699" y="587" on="0"/>
        <pt x="699" y="581" on="1"/>
        <pt x="699" y="442" on="1"/>
        <pt x="699" y="427" on="0"/>
        <pt x="690" y="401" on="0"/>
        <pt x="664" y="401" on="1"/>
        <pt x="657" y="401" on="0"/>
        <pt x="635" y="407" on="0"/>
        <pt x="631" y="424" on="1"/>
        <pt x="628" y="435" on="0"/>
        <pt x="621" y="459" on="0"/>
        <pt x="605" y="486" on="0"/>
        <pt x="578" y="514" on="0"/>
        <pt x="555" y="527" on="1"/>
        <pt x="528" y="543" on="0"/>
        <pt x="455" y="561" on="0"/>
        <pt x="415" y="561" on="1"/>
        <pt x="354" y="561" on="0"/>
        <pt x="249" y="520" on="0"/>
        <pt x="171" y="450" on="0"/>
        <pt x="127" y="357" on="0"/>
        <pt x="127" y="305" on="1"/>
        <pt x="127" y="253" on="0"/>
        <pt x="172" y="160" on="0"/>
        <pt x="249" y="91" on="0"/>
        <pt x="352" y="50" on="0"/>
        <pt x="411" y="50" on="1"/>
        <pt x="451" y="50" on="0"/>
        <pt x="523" y="73" on="0"/>
        <pt x="581" y="115" on="0"/>
        <pt x="620" y="174" on="0"/>
        <pt x="627" y="209" on="1"/>
        <pt x="539" y="209" on="1"/>
        <pt x="533" y="209" on="0"/>
        <pt x="519" y="210" on="0"/>
        <pt x="507" y="216" on="0"/>
        <pt x="499" y="228" on="0"/>
        <pt x="499" y="240" on="1"/>
        <pt x="499" y="251" on="0"/>
        <pt x="507" y="263" on="0"/>
        <pt x="519" y="269" on="0"/>
        <pt x="533" y="270" on="0"/>
        <pt x="539" y="270" on="1"/>
        <pt x="731" y="270" on="1"/>
        <pt x="737" y="270" on="0"/>
        <pt x="751" y="269" on="0"/>
        <pt x="764" y="263" on="0"/>
        <pt x="772" y="251" on="0"/>
        <pt x="772" y="239" on="1"/>
        <pt x="772" y="228" on="0"/>
        <pt x="763" y="216" on="0"/>
        <pt x="751" y="210" on="0"/>
        <pt x="737" y="209" on="0"/>
        <pt x="731" y="209" on="1"/>
        <pt x="699" y="209" on="1"/>
      </contour>
    </TTGlyph>
    <TTGlyph name="Gamma" xMin="46" yMin="0" xMax="597" yMax="611">
      <contour>
        <pt x="209" y="61" on="1"/>
        <pt x="287" y="61" on="1"/>
        <pt x="293" y="61" on="0"/>
        <pt x="307" y="60" on="0"/>
        <pt x="319" y="54" on="0"/>
        <pt x="327" y="42" on="0"/>
        <pt x="327" y="30" on="1"/>
        <pt x="327" y="19" on="0"/>
        <pt x="319" y="7" on="0"/>
        <pt x="307" y="1" on="0"/>
        <pt x="293" y="0" on="0"/>
        <pt x="287" y="0" on="1"/>
        <pt x="86" y="0" on="1"/>
        <pt x="80" y="0" on="0"/>
        <pt x="66" y="1" on="0"/>
        <pt x="54" y="7" on="0"/>
        <pt x="46" y="19" on="0"/>
        <pt x="46" y="30" on="1"/>
        <pt x="46" y="42" on="0"/>
        <pt x="54" y="54" on="0"/>
        <pt x="66" y="60" on="0"/>
        <pt x="80" y="61" on="0"/>
        <pt x="86" y="61" on="1"/>
        <pt x="140" y="61" on="1"/>
        <pt x="140" y="550" on="1"/>
        <pt x="86" y="550" on="1"/>
        <pt x="80" y="550" on="0"/>
        <pt x="66" y="551" on="0"/>
        <pt x="54" y="557" on="0"/>
        <pt x="46" y="569" on="0"/>
        <pt x="46" y="580" on="1"/>
        <pt x="46" y="592" on="0"/>
        <pt x="54" y="604" on="0"/>
        <pt x="66" y="610" on="0"/>
        <pt x="80" y="611" on="0"/>
        <pt x="86" y="611" on="1"/>
        <pt x="557" y="611" on="1"/>
        <pt x="583" y="611" on="0"/>
        <pt x="597" y="593" on="0"/>
        <pt x="597" y="570" on="1"/>
        <pt x="597" y="497" on="1"/>
        <pt x="597" y="482" on="0"/>
        <pt x="588" y="456" on="0"/>
        <pt x="562" y="456" on="1"/>
        <pt x="549" y="456" on="0"/>
        <pt x="535" y="463" on="0"/>
        <pt x="529" y="475" on="0"/>
        <pt x="528" y="490" on="0"/>
        <pt x="528" y="497" on="1"/>
        <pt x="528" y="550" on="1"/>
        <pt x="209" y="550" on="1"/>
      </contour>
    </TTGlyph>
    <TTGlyph name="H" xMin="46" yMin="0" xMax="711" yMax="611">
      <contour>
        <pt x="617" y="61" on="1"/>
        <pt x="671" y="61" on="1"/>
        <pt x="677" y="61" on="0"/>
        <pt x="691" y="60" on="0"/>
        <pt x="703" y="54" on="0"/>
        <pt x="711" y="42" on="0"/>
        <pt x="711" y="30" on="1"/>
        <pt x="711" y="19" on="0"/>
        <pt x="703" y="7" on="0"/>
        <pt x="691" y="1" on="0"/>
        <pt x="677" y="0" on="0"/>
        <pt x="671" y="0" on="1"/>
        <pt x="494" y="0" on="1"/>
        <pt x="488" y="0" on="0"/>
        <pt x="474" y="1" on="0"/>
        <pt x="462" y="7" on="0"/>
        <pt x="454" y="19" on="0"/>
        <pt x="454" y="30" on="1"/>
        <pt x="454" y="42" on="0"/>
        <pt x="462" y="54" on="0"/>
        <pt x="474" y="60" on="0"/>
        <pt x="488" y="61" on="0"/>
        <pt x="494" y="61" on="1"/>
        <pt x="548" y="61" on="1"/>
        <pt x="548" y="287" on="1"/>
        <pt x="209" y="287" on="1"/>
        <pt x="209" y="61" on="1"/>
        <pt x="263" y="61" on="1"/>
        <pt x="269" y="61" on="0"/>
        <pt x="283" y="60" on="0"/>
        <pt x="295" y="54" on="0"/>
        <pt x="303" y="42" on="0"/>
        <pt x="303" y="30" on="1"/>
        <pt x="303" y="19" on="0"/>
        <pt x="295" y="7" on="0"/>
        <pt x="283" y="1" on="0"/>
        <pt x="269" y="0" on="0"/>
        <pt x="263" y="0" on="1"/>
        <pt x="86" y="0" on="1"/>
        <pt x="80" y="0" on="0"/>
        <pt x="66" y="1" on="0"/>
        <pt x="54" y="7" on="0"/>
        <pt x="46" y="19" on="0"/>
        <pt x="46" y="30" on="1"/>
        <pt x="46" y="42" on="0"/>
        <pt x="54" y="54" on="0"/>
        <pt x="66" y="60" on="0"/>
        <pt x="80" y="61" on="0"/>
        <pt x="86" y="61" on="1"/>
        <pt x="140" y="61" on="1"/>
        <pt x="140" y="550" on="1"/>
        <pt x="86" y="550" on="1"/>
        <pt x="80" y="550" on="0"/>
        <pt x="66" y="551" on="0"/>
        <pt x="54" y="557" on="0"/>
        <pt x="46" y="569" on="0"/>
        <pt x="46" y="580" on="1"/>
        <pt x="46" y="592" on="0"/>
        <pt x="54" y="604" on="0"/>
        <pt x="66" y="610" on="0"/>
        <pt x="80" y="611" on="0"/>
        <pt x="86" y="611" on="1"/>
        <pt x="263" y="611" on="1"/>
        <pt x="269" y="611" on="0"/>
        <pt x="283" y="610" on="0"/>
        <pt x="295" y="604" on="0"/>
        <pt x="303" y="592" on="0"/>
        <pt x="303" y="580" on="1"/>
        <pt x="303" y="569" on="0"/>
        <pt x="295" y="557" on="0"/>
        <pt x="283" y="551" on="0"/>
        <pt x="269" y="550" on="0"/>
        <pt x="263" y="550" on="1"/>
        <pt x="209" y="550" on="1"/>
        <pt x="209" y="348" on="1"/>
        <pt x="548" y="348" on="1"/>
        <pt x="548" y="550" on="1"/>
        <pt x="494" y="550" on="1"/>
        <pt x="488" y="550" on="0"/>
        <pt x="474" y="551" on="0"/>
        <pt x="462" y="557" on="0"/>
        <pt x="454" y="569" on="0"/>
        <pt x="454" y="580" on="1"/>
        <pt x="454" y="592" on="0"/>
        <pt x="462" y="604" on="0"/>
        <pt x="474" y="610" on="0"/>
        <pt x="488" y="611" on="0"/>
        <pt x="494" y="611" on="1"/>
        <pt x="671" y="611" on="1"/>
        <pt x="677" y="611" on="0"/>
        <pt x="691" y="610" on="0"/>
        <pt x="703" y="604" on="0"/>
        <pt x="711" y="592" on="0"/>
        <pt x="711" y="580" on="1"/>
        <pt x="711" y="569" on="0"/>
        <pt x="703" y="557" on="0"/>
        <pt x="691" y="551" on="0"/>
        <pt x="677" y="550" on="0"/>
        <pt x="671" y="550" on="1"/>
        <pt x="617" y="550" on="1"/>
      </contour>
    </TTGlyph>
    <TTGlyph name="I" xMin="41" yMin="0" xMax="308" yMax="611">
      <contour>
        <pt x="209" y="61" on="1"/>
        <pt x="268" y="61" on="1"/>
        <pt x="274" y="61" on="0"/>
        <pt x="288" y="60" on="0"/>
        <pt x="300" y="54" on="0"/>
        <pt x="308" y="42" on="0"/>
        <pt x="308" y="30" on="1"/>
        <pt x="308" y="19" on="0"/>
        <pt x="300" y="7" on="0"/>
        <pt x="288" y="1" on="0"/>
        <pt x="274" y="0" on="0"/>
        <pt x="268" y="0" on="1"/>
        <pt x="81" y="0" on="1"/>
        <pt x="75" y="0" on="0"/>
        <pt x="61" y="1" on="0"/>
        <pt x="49" y="7" on="0"/>
        <pt x="41" y="19" on="0"/>
        <pt x="41" y="30" on="1"/>
        <pt x="41" y="42" on="0"/>
        <pt x="49" y="54" on="0"/>
        <pt x="61" y="60" on="0"/>
        <pt x="75" y="61" on="0"/>
        <pt x="81" y="61" on="1"/>
        <pt x="140" y="61" on="1"/>
        <pt x="140" y="550" on="1"/>
        <pt x="81" y="550" on="1"/>
        <pt x="75" y="550" on="0"/>
        <pt x="61" y="551" on="0"/>
        <pt x="49" y="557" on="0"/>
        <pt x="41" y="569" on="0"/>
        <pt x="41" y="580" on="1"/>
        <pt x="41" y="592" on="0"/>
        <pt x="49" y="604" on="0"/>
        <pt x="61" y="610" on="0"/>
        <pt x="75" y="611" on="0"/>
        <pt x="81" y="611" on="1"/>
        <pt x="268" y="611" on="1"/>
        <pt x="274" y="611" on="0"/>
        <pt x="288" y="610" on="0"/>
        <pt x="300" y="604" on="0"/>
        <pt x="308" y="592" on="0"/>
        <pt x="308" y="580" on="1"/>
        <pt x="308" y="569" on="0"/>
        <pt x="300" y="557" on="0"/>
        <pt x="288" y="551" on="0"/>
        <pt x="274" y="550" on="0"/>
        <pt x="268" y="550" on="1"/>
        <pt x="209" y="550" on="1"/>
      </contour>
    </TTGlyph>
    <TTGlyph name="J" xMin="71" yMin="-11" xMax="478" yMax="611">
      <contour>
        <pt x="407" y="134" on="1"/>
        <pt x="407" y="100" on="0"/>
        <pt x="379" y="46" on="0"/>
        <pt x="332" y="9" on="0"/>
        <pt x="270" y="-11" on="0"/>
        <pt x="237" y="-11" on="1"/>
        <pt x="200" y="-11" on="0"/>
        <pt x="138" y="6" on="0"/>
        <pt x="95" y="35" on="0"/>
        <pt x="71" y="75" on="0"/>
        <pt x="71" y="99" on="1"/>
        <pt x="71" y="123" on="0"/>
        <pt x="99" y="146" on="0"/>
        <pt x="116" y="146" on="1"/>
        <pt x="135" y="146" on="0"/>
        <pt x="160" y="120" on="0"/>
        <pt x="160" y="102" on="1"/>
        <pt x="160" y="90" on="0"/>
        <pt x="155" y="80" on="0"/>
        <pt x="152" y="76" on="1"/>
        <pt x="163" y="66" on="0"/>
        <pt x="190" y="56" on="0"/>
        <pt x="215" y="51" on="0"/>
        <pt x="234" y="50" on="0"/>
        <pt x="237" y="50" on="1"/>
        <pt x="244" y="50" on="0"/>
        <pt x="277" y="54" on="0"/>
        <pt x="312" y="72" on="0"/>
        <pt x="338" y="108" on="0"/>
        <pt x="338" y="140" on="1"/>
        <pt x="338" y="550" on="1"/>
        <pt x="256" y="550" on="1"/>
        <pt x="250" y="550" on="0"/>
        <pt x="236" y="551" on="0"/>
        <pt x="224" y="557" on="0"/>
        <pt x="215" y="569" on="0"/>
        <pt x="215" y="581" on="1"/>
        <pt x="215" y="592" on="0"/>
        <pt x="224" y="604" on="0"/>
        <pt x="236" y="610" on="0"/>
        <pt x="250" y="611" on="0"/>
        <pt x="256" y="611" on="1"/>
        <pt x="437" y="611" on="1"/>
        <pt x="443" y="611" on="0"/>
        <pt x="457" y="610" on="0"/>
        <pt x="469" y="604" on="0"/>
        <pt x="478" y="592" on="0"/>
        <pt x="478" y="581" on="1"/>
        <pt x="478" y="569" on="0"/>
        <pt x="470" y="557" on="0"/>
        <pt x="457" y="551" on="0"/>
        <pt x="443" y="550" on="0"/>
        <pt x="437" y="550" on="1"/>
        <pt x="407" y="550" on="1"/>
      </contour>
    </TTGlyph>
    <TTGlyph name="K" xMin="53" yMin="0" xMax="743" yMax="611">
      <contour>
        <pt x="666" y="61" on="1"/>
        <pt x="702" y="61" on="1"/>
        <pt x="708" y="61" on="0"/>
        <pt x="722" y="60" on="0"/>
        <pt x="734" y="54" on="0"/>
        <pt x="743" y="42" on="0"/>
        <pt x="743" y="30" on="1"/>
        <pt x="743" y="19" on="0"/>
        <pt x="734" y="7" on="0"/>
        <pt x="722" y="1" on="0"/>
        <pt x="708" y="0" on="0"/>
        <pt x="702" y="0" on="1"/>
        <pt x="576" y="0" on="1"/>
        <pt x="570" y="0" on="0"/>
        <pt x="556" y="1" on="0"/>
        <pt x="544" y="7" on="0"/>
        <pt x="536" y="19" on="0"/>
        <pt x="536" y="30" on="1"/>
        <pt x="536" y="53" on="0"/>
        <pt x="565" y="61" on="0"/>
        <pt x="592" y="61" on="1"/>
        <pt x="365" y="322" on="1"/>
        <pt x="203" y="190" on="1"/>
        <pt x="203" y="61" on="1"/>
        <pt x="257" y="61" on="1"/>
        <pt x="263" y="61" on="0"/>
        <pt x="277" y="60" on="0"/>
        <pt x="289" y="54" on="0"/>
        <pt x="297" y="42" on="0"/>
        <pt x="297" y="30" on="1"/>
        <pt x="297" y="19" on="0"/>
        <pt x="289" y="7" on="0"/>
        <pt x="277" y="1" on="0"/>
        <pt x="263" y="0" on="0"/>
        <pt x="257" y="0" on="1"/>
        <pt x="93" y="0" on="1"/>
        <pt x="87" y="0" on="0"/>
        <pt x="73" y="1" on="0"/>
        <pt x="61" y="7" on="0"/>
        <pt x="53" y="19" on="0"/>
        <pt x="53" y="30" on="1"/>
        <pt x="53" y="42" on="0"/>
        <pt x="61" y="54" on="0"/>
        <pt x="73" y="60" on="0"/>
        <pt x="87" y="61" on="0"/>
        <pt x="93" y="61" on="1"/>
        <pt x="147" y="61" on="1"/>
        <pt x="147" y="550" on="1"/>
        <pt x="93" y="550" on="1"/>
        <pt x="87" y="550" on="0"/>
        <pt x="73" y="551" on="0"/>
        <pt x="61" y="557" on="0"/>
        <pt x="53" y="569" on="0"/>
        <pt x="53" y="580" on="1"/>
        <pt x="53" y="592" on="0"/>
        <pt x="61" y="604" on="0"/>
        <pt x="73" y="610" on="0"/>
        <pt x="87" y="611" on="0"/>
        <pt x="93" y="611" on="1"/>
        <pt x="257" y="611" on="1"/>
        <pt x="263" y="611" on="0"/>
        <pt x="277" y="610" on="0"/>
        <pt x="289" y="604" on="0"/>
        <pt x="297" y="592" on="0"/>
        <pt x="297" y="580" on="1"/>
        <pt x="297" y="569" on="0"/>
        <pt x="289" y="557" on="0"/>
        <pt x="277" y="551" on="0"/>
        <pt x="263" y="550" on="0"/>
        <pt x="257" y="550" on="1"/>
        <pt x="203" y="550" on="1"/>
        <pt x="203" y="262" on="1"/>
        <pt x="557" y="550" on="1"/>
        <pt x="531" y="550" on="0"/>
        <pt x="502" y="558" on="0"/>
        <pt x="502" y="581" on="1"/>
        <pt x="502" y="592" on="0"/>
        <pt x="510" y="604" on="0"/>
        <pt x="522" y="610" on="0"/>
        <pt x="536" y="611" on="0"/>
        <pt x="542" y="611" on="1"/>
        <pt x="687" y="611" on="1"/>
        <pt x="693" y="611" on="0"/>
        <pt x="707" y="610" on="0"/>
        <pt x="719" y="604" on="0"/>
        <pt x="728" y="592" on="0"/>
        <pt x="728" y="580" on="1"/>
        <pt x="728" y="569" on="0"/>
        <pt x="719" y="557" on="0"/>
        <pt x="707" y="551" on="0"/>
        <pt x="693" y="550" on="0"/>
        <pt x="687" y="550" on="1"/>
        <pt x="647" y="550" on="1"/>
        <pt x="409" y="357" on="1"/>
      </contour>
    </TTGlyph>
    <TTGlyph name="L" xMin="46" yMin="0" xMax="597" yMax="611">
      <contour>
        <pt x="209" y="61" on="1"/>
        <pt x="528" y="61" on="1"/>
        <pt x="528" y="130" on="1"/>
        <pt x="528" y="146" on="0"/>
        <pt x="537" y="171" on="0"/>
        <pt x="563" y="171" on="1"/>
        <pt x="576" y="171" on="0"/>
        <pt x="590" y="164" on="0"/>
        <pt x="596" y="152" on="0"/>
        <pt x="597" y="138" on="0"/>
        <pt x="597" y="130" on="1"/>
        <pt x="597" y="41" on="1"/>
        <pt x="597" y="17" on="0"/>
        <pt x="582" y="0" on="0"/>
        <pt x="557" y="0" on="1"/>
        <pt x="86" y="0" on="1"/>
        <pt x="80" y="0" on="0"/>
        <pt x="66" y="1" on="0"/>
        <pt x="54" y="7" on="0"/>
        <pt x="46" y="19" on="0"/>
        <pt x="46" y="30" on="1"/>
        <pt x="46" y="42" on="0"/>
        <pt x="54" y="54" on="0"/>
        <pt x="66" y="60" on="0"/>
        <pt x="80" y="61" on="0"/>
        <pt x="86" y="61" on="1"/>
        <pt x="140" y="61" on="1"/>
        <pt x="140" y="550" on="1"/>
        <pt x="86" y="550" on="1"/>
        <pt x="80" y="550" on="0"/>
        <pt x="66" y="551" on="0"/>
        <pt x="54" y="557" on="0"/>
        <pt x="46" y="569" on="0"/>
        <pt x="46" y="580" on="1"/>
        <pt x="46" y="592" on="0"/>
        <pt x="54" y="604" on="0"/>
        <pt x="66" y="610" on="0"/>
        <pt x="80" y="611" on="0"/>
        <pt x="86" y="611" on="1"/>
        <pt x="287" y="611" on="1"/>
        <pt x="293" y="611" on="0"/>
        <pt x="307" y="610" on="0"/>
        <pt x="319" y="604" on="0"/>
        <pt x="327" y="592" on="0"/>
        <pt x="327" y="580" on="1"/>
        <pt x="327" y="569" on="0"/>
        <pt x="319" y="557" on="0"/>
        <pt x="307" y="551" on="0"/>
        <pt x="293" y="550" on="0"/>
        <pt x="287" y="550" on="1"/>
        <pt x="209" y="550" on="1"/>
      </contour>
    </TTGlyph>
    <TTGlyph name="Lambda" xMin="40" yMin="0" xMax="659" yMax="623">
      <contour>
        <pt x="584" y="61" on="1"/>
        <pt x="619" y="61" on="1"/>
        <pt x="625" y="61" on="0"/>
        <pt x="639" y="60" on="0"/>
        <pt x="651" y="54" on="0"/>
        <pt x="659" y="42" on="0"/>
        <pt x="659" y="30" on="1"/>
        <pt x="659" y="19" on="0"/>
        <pt x="651" y="7" on="0"/>
        <pt x="639" y="1" on="0"/>
        <pt x="625" y="0" on="0"/>
        <pt x="619" y="0" on="1"/>
        <pt x="469" y="0" on="1"/>
        <pt x="463" y="0" on="0"/>
        <pt x="449" y="1" on="0"/>
        <pt x="437" y="7" on="0"/>
        <pt x="429" y="19" on="0"/>
        <pt x="429" y="30" on="1"/>
        <pt x="429" y="42" on="0"/>
        <pt x="437" y="54" on="0"/>
        <pt x="449" y="60" on="0"/>
        <pt x="463" y="61" on="0"/>
        <pt x="469" y="61" on="1"/>
        <pt x="511" y="61" on="1"/>
        <pt x="349" y="555" on="1"/>
        <pt x="188" y="61" on="1"/>
        <pt x="230" y="61" on="1"/>
        <pt x="236" y="61" on="0"/>
        <pt x="250" y="60" on="0"/>
        <pt x="262" y="54" on="0"/>
        <pt x="270" y="42" on="0"/>
        <pt x="270" y="30" on="1"/>
        <pt x="270" y="19" on="0"/>
        <pt x="262" y="7" on="0"/>
        <pt x="250" y="1" on="0"/>
        <pt x="236" y="0" on="0"/>
        <pt x="230" y="0" on="1"/>
        <pt x="80" y="0" on="1"/>
        <pt x="74" y="0" on="0"/>
        <pt x="60" y="1" on="0"/>
        <pt x="48" y="7" on="0"/>
        <pt x="40" y="19" on="0"/>
        <pt x="40" y="30" on="1"/>
        <pt x="40" y="42" on="0"/>
        <pt x="48" y="54" on="0"/>
        <pt x="60" y="60" on="0"/>
        <pt x="74" y="61" on="0"/>
        <pt x="80" y="61" on="1"/>
        <pt x="115" y="61" on="1"/>
        <pt x="288" y="590" on="1"/>
        <pt x="296" y="615" on="0"/>
        <pt x="327" y="623" on="0"/>
        <pt x="340" y="623" on="1"/>
        <pt x="359" y="623" on="1"/>
        <pt x="366" y="623" on="0"/>
        <pt x="381" y="622" on="0"/>
        <pt x="395" y="616" on="0"/>
        <pt x="407" y="602" on="0"/>
        <pt x="411" y="590" on="1"/>
      </contour>
    </TTGlyph>
    <TTGlyph name="M" xMin="53" yMin="0" xMax="879" yMax="611">
      <contour>
        <pt x="466" y="75" on="1"/>
        <pt x="685" y="576" on="1"/>
        <pt x="696" y="602" on="0"/>
        <pt x="728" y="611" on="0"/>
        <pt x="743" y="611" on="1"/>
        <pt x="839" y="611" on="1"/>
        <pt x="845" y="611" on="0"/>
        <pt x="859" y="610" on="0"/>
        <pt x="871" y="604" on="0"/>
        <pt x="879" y="592" on="0"/>
        <pt x="879" y="580" on="1"/>
        <pt x="879" y="569" on="0"/>
        <pt x="871" y="557" on="0"/>
        <pt x="859" y="551" on="0"/>
        <pt x="845" y="550" on="0"/>
        <pt x="839" y="550" on="1"/>
        <pt x="785" y="550" on="1"/>
        <pt x="785" y="61" on="1"/>
        <pt x="839" y="61" on="1"/>
        <pt x="845" y="61" on="0"/>
        <pt x="859" y="60" on="0"/>
        <pt x="871" y="54" on="0"/>
        <pt x="879" y="42" on="0"/>
        <pt x="879" y="30" on="1"/>
        <pt x="879" y="19" on="0"/>
        <pt x="871" y="7" on="0"/>
        <pt x="859" y="1" on="0"/>
        <pt x="845" y="0" on="0"/>
        <pt x="839" y="0" on="1"/>
        <pt x="675" y="0" on="1"/>
        <pt x="669" y="0" on="0"/>
        <pt x="655" y="1" on="0"/>
        <pt x="643" y="7" on="0"/>
        <pt x="635" y="19" on="0"/>
        <pt x="635" y="31" on="1"/>
        <pt x="635" y="42" on="0"/>
        <pt x="643" y="54" on="0"/>
        <pt x="655" y="60" on="0"/>
        <pt x="669" y="61" on="0"/>
        <pt x="675" y="61" on="1"/>
        <pt x="729" y="61" on="1"/>
        <pt x="729" y="545" on="1"/>
        <pt x="728" y="545" on="1"/>
        <pt x="510" y="46" on="1"/>
        <pt x="499" y="23" on="0"/>
        <pt x="473" y="11" on="0"/>
        <pt x="466" y="11" on="1"/>
        <pt x="445" y="11" on="0"/>
        <pt x="426" y="39" on="0"/>
        <pt x="422" y="48" on="1"/>
        <pt x="204" y="545" on="1"/>
        <pt x="203" y="545" on="1"/>
        <pt x="203" y="61" on="1"/>
        <pt x="257" y="61" on="1"/>
        <pt x="263" y="61" on="0"/>
        <pt x="277" y="60" on="0"/>
        <pt x="289" y="54" on="0"/>
        <pt x="297" y="42" on="0"/>
        <pt x="297" y="30" on="1"/>
        <pt x="297" y="19" on="0"/>
        <pt x="289" y="7" on="0"/>
        <pt x="277" y="1" on="0"/>
        <pt x="263" y="0" on="0"/>
        <pt x="257" y="0" on="1"/>
        <pt x="93" y="0" on="1"/>
        <pt x="87" y="0" on="0"/>
        <pt x="73" y="1" on="0"/>
        <pt x="61" y="7" on="0"/>
        <pt x="53" y="19" on="0"/>
        <pt x="53" y="30" on="1"/>
        <pt x="53" y="42" on="0"/>
        <pt x="61" y="54" on="0"/>
        <pt x="73" y="60" on="0"/>
        <pt x="87" y="61" on="0"/>
        <pt x="93" y="61" on="1"/>
        <pt x="147" y="61" on="1"/>
        <pt x="147" y="550" on="1"/>
        <pt x="93" y="550" on="1"/>
        <pt x="87" y="550" on="0"/>
        <pt x="73" y="551" on="0"/>
        <pt x="61" y="557" on="0"/>
        <pt x="53" y="569" on="0"/>
        <pt x="53" y="580" on="1"/>
        <pt x="53" y="592" on="0"/>
        <pt x="61" y="604" on="0"/>
        <pt x="73" y="610" on="0"/>
        <pt x="87" y="611" on="0"/>
        <pt x="93" y="611" on="1"/>
        <pt x="189" y="611" on="1"/>
        <pt x="214" y="611" on="0"/>
        <pt x="237" y="597" on="0"/>
        <pt x="247" y="574" on="1"/>
      </contour>
    </TTGlyph>
    <TTGlyph name="N" xMin="53" yMin="0" xMax="704" yMax="611">
      <contour>
        <pt x="553" y="51" on="1"/>
        <pt x="554" y="51" on="1"/>
        <pt x="554" y="550" on="1"/>
        <pt x="500" y="550" on="1"/>
        <pt x="494" y="550" on="0"/>
        <pt x="480" y="551" on="0"/>
        <pt x="468" y="557" on="0"/>
        <pt x="460" y="569" on="0"/>
        <pt x="460" y="580" on="1"/>
        <pt x="460" y="592" on="0"/>
        <pt x="468" y="604" on="0"/>
        <pt x="480" y="610" on="0"/>
        <pt x="494" y="611" on="0"/>
        <pt x="500" y="611" on="1"/>
        <pt x="664" y="611" on="1"/>
        <pt x="670" y="611" on="0"/>
        <pt x="684" y="610" on="0"/>
        <pt x="696" y="604" on="0"/>
        <pt x="704" y="592" on="0"/>
        <pt x="704" y="580" on="1"/>
        <pt x="704" y="569" on="0"/>
        <pt x="696" y="557" on="0"/>
        <pt x="684" y="551" on="0"/>
        <pt x="670" y="550" on="0"/>
        <pt x="664" y="550" on="1"/>
        <pt x="610" y="550" on="1"/>
        <pt x="610" y="41" on="1"/>
        <pt x="610" y="15" on="0"/>
        <pt x="593" y="0" on="0"/>
        <pt x="569" y="0" on="1"/>
        <pt x="553" y="0" on="0"/>
        <pt x="521" y="9" on="0"/>
        <pt x="506" y="34" on="1"/>
        <pt x="204" y="560" on="1"/>
        <pt x="203" y="560" on="1"/>
        <pt x="203" y="61" on="1"/>
        <pt x="257" y="61" on="1"/>
        <pt x="263" y="61" on="0"/>
        <pt x="277" y="60" on="0"/>
        <pt x="289" y="54" on="0"/>
        <pt x="297" y="42" on="0"/>
        <pt x="297" y="30" on="1"/>
        <pt x="297" y="19" on="0"/>
        <pt x="289" y="7" on="0"/>
        <pt x="277" y="1" on="0"/>
        <pt x="263" y="0" on="0"/>
        <pt x="257" y="0" on="1"/>
        <pt x="93" y="0" on="1"/>
        <pt x="87" y="0" on="0"/>
        <pt x="73" y="1" on="0"/>
        <pt x="61" y="7" on="0"/>
        <pt x="53" y="19" on="0"/>
        <pt x="53" y="30" on="1"/>
        <pt x="53" y="42" on="0"/>
        <pt x="61" y="54" on="0"/>
        <pt x="73" y="60" on="0"/>
        <pt x="87" y="61" on="0"/>
        <pt x="93" y="61" on="1"/>
        <pt x="147" y="61" on="1"/>
        <pt x="147" y="550" on="1"/>
        <pt x="93" y="550" on="1"/>
        <pt x="87" y="550" on="0"/>
        <pt x="73" y="551" on="0"/>
        <pt x="61" y="557" on="0"/>
        <pt x="53" y="569" on="0"/>
        <pt x="53" y="580" on="1"/>
        <pt x="53" y="592" on="0"/>
        <pt x="61" y="604" on="0"/>
        <pt x="73" y="610" on="0"/>
        <pt x="87" y="611" on="0"/>
        <pt x="93" y="611" on="1"/>
        <pt x="188" y="611" on="1"/>
        <pt x="196" y="611" on="0"/>
        <pt x="212" y="610" on="0"/>
        <pt x="228" y="604" on="0"/>
        <pt x="244" y="590" on="0"/>
        <pt x="251" y="577" on="1"/>
      </contour>
    </TTGlyph>
    <TTGlyph name="O" xMin="58" yMin="-11" xMax="758" yMax="622">
      <contour>
        <pt x="758" y="305" on="1"/>
        <pt x="758" y="242" on="0"/>
        <pt x="704" y="127" on="0"/>
        <pt x="610" y="40" on="0"/>
        <pt x="482" y="-11" on="0"/>
        <pt x="408" y="-11" on="1"/>
        <pt x="335" y="-11" on="0"/>
        <pt x="207" y="39" on="0"/>
        <pt x="112" y="126" on="0"/>
        <pt x="58" y="241" on="0"/>
        <pt x="58" y="306" on="1"/>
        <pt x="58" y="369" on="0"/>
        <pt x="112" y="484" on="0"/>
        <pt x="206" y="571" on="0"/>
        <pt x="334" y="622" on="0"/>
        <pt x="408" y="622" on="1"/>
        <pt x="482" y="622" on="0"/>
        <pt x="609" y="572" on="0"/>
        <pt x="704" y="485" on="0"/>
        <pt x="758" y="370" on="0"/>
      </contour>
      <contour>
        <pt x="408" y="50" on="1"/>
        <pt x="467" y="50" on="0"/>
        <pt x="569" y="93" on="0"/>
        <pt x="645" y="166" on="0"/>
        <pt x="689" y="263" on="0"/>
        <pt x="689" y="317" on="1"/>
        <pt x="689" y="367" on="0"/>
        <pt x="645" y="456" on="0"/>
        <pt x="569" y="522" on="0"/>
        <pt x="467" y="561" on="0"/>
        <pt x="408" y="561" on="1"/>
        <pt x="349" y="561" on="0"/>
        <pt x="247" y="522" on="0"/>
        <pt x="171" y="456" on="0"/>
        <pt x="127" y="367" on="0"/>
        <pt x="127" y="317" on="1"/>
        <pt x="127" y="263" on="0"/>
        <pt x="170" y="166" on="0"/>
        <pt x="246" y="93" on="0"/>
        <pt x="349" y="50" on="0"/>
      </contour>
    </TTGlyph>
    <TTGlyph name="OE" xMin="58" yMin="-11" xMax="1020" yMax="622">
      <contour>
        <pt x="594" y="61" on="1"/>
        <pt x="951" y="61" on="1"/>
        <pt x="951" y="130" on="1"/>
        <pt x="951" y="145" on="0"/>
        <pt x="960" y="171" on="0"/>
        <pt x="986" y="171" on="1"/>
        <pt x="999" y="171" on="0"/>
        <pt x="1013" y="164" on="0"/>
        <pt x="1019" y="152" on="0"/>
        <pt x="1020" y="137" on="0"/>
        <pt x="1020" y="130" on="1"/>
        <pt x="1020" y="41" on="1"/>
        <pt x="1020" y="17" on="0"/>
        <pt x="1005" y="0" on="0"/>
        <pt x="980" y="0" on="1"/>
        <pt x="558" y="0" on="1"/>
        <pt x="544" y="0" on="0"/>
        <pt x="508" y="-2" on="0"/>
        <pt x="497" y="-4" on="1"/>
        <pt x="482" y="-6" on="0"/>
        <pt x="430" y="-11" on="0"/>
        <pt x="408" y="-11" on="1"/>
        <pt x="335" y="-11" on="0"/>
        <pt x="207" y="39" on="0"/>
        <pt x="112" y="126" on="0"/>
        <pt x="58" y="241" on="0"/>
        <pt x="58" y="306" on="1"/>
        <pt x="58" y="369" on="0"/>
        <pt x="111" y="484" on="0"/>
        <pt x="205" y="571" on="0"/>
        <pt x="333" y="622" on="0"/>
        <pt x="408" y="622" on="1"/>
        <pt x="409" y="622" on="0"/>
        <pt x="444" y="621" on="0"/>
        <pt x="469" y="618" on="1"/>
        <pt x="470" y="618" on="0"/>
        <pt x="489" y="616" on="0"/>
        <pt x="517" y="613" on="0"/>
        <pt x="547" y="611" on="0"/>
        <pt x="558" y="611" on="1"/>
        <pt x="951" y="611" on="1"/>
        <pt x="977" y="611" on="0"/>
        <pt x="991" y="593" on="0"/>
        <pt x="991" y="570" on="1"/>
        <pt x="991" y="497" on="1"/>
        <pt x="991" y="482" on="0"/>
        <pt x="982" y="456" on="0"/>
        <pt x="956" y="456" on="1"/>
        <pt x="943" y="456" on="0"/>
        <pt x="929" y="463" on="0"/>
        <pt x="923" y="475" on="0"/>
        <pt x="922" y="490" on="0"/>
        <pt x="922" y="497" on="1"/>
        <pt x="922" y="550" on="1"/>
        <pt x="594" y="550" on="1"/>
        <pt x="594" y="347" on="1"/>
        <pt x="816" y="347" on="1"/>
        <pt x="816" y="378" on="0"/>
        <pt x="825" y="404" on="0"/>
        <pt x="851" y="404" on="1"/>
        <pt x="864" y="404" on="0"/>
        <pt x="878" y="397" on="0"/>
        <pt x="884" y="385" on="0"/>
        <pt x="885" y="370" on="0"/>
        <pt x="885" y="363" on="1"/>
        <pt x="885" y="270" on="1"/>
        <pt x="885" y="263" on="0"/>
        <pt x="884" y="248" on="0"/>
        <pt x="878" y="236" on="0"/>
        <pt x="864" y="229" on="0"/>
        <pt x="851" y="229" on="1"/>
        <pt x="825" y="229" on="0"/>
        <pt x="816" y="255" on="0"/>
        <pt x="816" y="286" on="1"/>
        <pt x="594" y="286" on="1"/>
      </contour>
      <contour>
        <pt x="413" y="50" on="1"/>
        <pt x="451" y="50" on="0"/>
        <pt x="494" y="64" on="0"/>
        <pt x="517" y="98" on="0"/>
        <pt x="524" y="155" on="0"/>
        <pt x="524" y="199" on="1"/>
        <pt x="524" y="226" on="0"/>
        <pt x="525" y="279" on="0"/>
        <pt x="525" y="306" on="1"/>
        <pt x="525" y="332" on="0"/>
        <pt x="524" y="384" on="0"/>
        <pt x="524" y="410" on="1"/>
        <pt x="524" y="455" on="0"/>
        <pt x="517" y="513" on="0"/>
        <pt x="495" y="547" on="0"/>
        <pt x="451" y="561" on="0"/>
        <pt x="413" y="561" on="1"/>
        <pt x="347" y="561" on="0"/>
        <pt x="241" y="519" on="0"/>
        <pt x="167" y="451" on="0"/>
        <pt x="127" y="363" on="0"/>
        <pt x="127" y="317" on="1"/>
        <pt x="127" y="267" on="0"/>
        <pt x="167" y="171" on="0"/>
        <pt x="242" y="96" on="0"/>
        <pt x="347" y="50" on="0"/>
      </contour>
    </TTGlyph>
    <TTGlyph name="Oslash" xMin="58" yMin="-85" xMax="758" yMax="696">
      <contour>
        <pt x="625" y="554" on="1"/>
        <pt x="663" y="527" on="0"/>
        <pt x="713" y="464" on="0"/>
        <pt x="745" y="399" on="0"/>
        <pt x="758" y="335" on="0"/>
        <pt x="758" y="305" on="1"/>
        <pt x="758" y="242" on="0"/>
        <pt x="704" y="127" on="0"/>
        <pt x="610" y="40" on="0"/>
        <pt x="482" y="-11" on="0"/>
        <pt x="408" y="-11" on="1"/>
        <pt x="378" y="-11" on="0"/>
        <pt x="326" y="-3" on="0"/>
        <pt x="284" y="9" on="0"/>
        <pt x="253" y="22" on="0"/>
        <pt x="244" y="26" on="1"/>
        <pt x="176" y="-68" on="1"/>
        <pt x="168" y="-79" on="0"/>
        <pt x="156" y="-85" on="0"/>
        <pt x="149" y="-85" on="1"/>
        <pt x="138" y="-85" on="0"/>
        <pt x="117" y="-69" on="0"/>
        <pt x="117" y="-54" on="1"/>
        <pt x="117" y="-48" on="0"/>
        <pt x="121" y="-39" on="0"/>
        <pt x="132" y="-24" on="1"/>
        <pt x="191" y="57" on="1"/>
        <pt x="154" y="84" on="0"/>
        <pt x="103" y="147" on="0"/>
        <pt x="71" y="212" on="0"/>
        <pt x="58" y="276" on="0"/>
        <pt x="58" y="306" on="1"/>
        <pt x="58" y="369" on="0"/>
        <pt x="112" y="484" on="0"/>
        <pt x="206" y="571" on="0"/>
        <pt x="334" y="622" on="0"/>
        <pt x="408" y="622" on="1"/>
        <pt x="443" y="622" on="0"/>
        <pt x="502" y="611" on="0"/>
        <pt x="545" y="598" on="0"/>
        <pt x="571" y="586" on="0"/>
        <pt x="573" y="585" on="1"/>
        <pt x="638" y="677" on="1"/>
        <pt x="648" y="691" on="0"/>
        <pt x="662" y="696" on="0"/>
        <pt x="667" y="696" on="1"/>
        <pt x="678" y="696" on="0"/>
        <pt x="699" y="680" on="0"/>
        <pt x="699" y="665" on="1"/>
        <pt x="699" y="663" on="0"/>
        <pt x="696" y="651" on="0"/>
        <pt x="688" y="640" on="1"/>
      </contour>
      <contour>
        <pt x="536" y="536" on="1"/>
        <pt x="512" y="545" on="0"/>
        <pt x="450" y="561" on="0"/>
        <pt x="408" y="561" on="1"/>
        <pt x="346" y="561" on="0"/>
        <pt x="239" y="520" on="0"/>
        <pt x="159" y="450" on="0"/>
        <pt x="114" y="357" on="0"/>
        <pt x="114" y="305" on="1"/>
        <pt x="114" y="272" on="0"/>
        <pt x="132" y="213" on="0"/>
        <pt x="163" y="162" on="0"/>
        <pt x="203" y="120" on="0"/>
        <pt x="225" y="105" on="1"/>
      </contour>
      <contour>
        <pt x="280" y="75" on="1"/>
        <pt x="304" y="66" on="0"/>
        <pt x="366" y="50" on="0"/>
        <pt x="408" y="50" on="1"/>
        <pt x="470" y="50" on="0"/>
        <pt x="577" y="91" on="0"/>
        <pt x="657" y="161" on="0"/>
        <pt x="702" y="254" on="0"/>
        <pt x="702" y="306" on="1"/>
        <pt x="702" y="339" on="0"/>
        <pt x="683" y="400" on="0"/>
        <pt x="652" y="451" on="0"/>
        <pt x="612" y="492" on="0"/>
        <pt x="590" y="506" on="1"/>
      </contour>
    </TTGlyph>
    <TTGlyph name="P" xMin="46" yMin="0" xMax="641" yMax="611">
      <contour>
        <pt x="209" y="61" on="1"/>
        <pt x="263" y="61" on="1"/>
        <pt x="269" y="61" on="0"/>
        <pt x="283" y="60" on="0"/>
        <pt x="295" y="54" on="0"/>
        <pt x="303" y="42" on="0"/>
        <pt x="303" y="30" on="1"/>
        <pt x="303" y="19" on="0"/>
        <pt x="295" y="7" on="0"/>
        <pt x="283" y="1" on="0"/>
        <pt x="269" y="0" on="0"/>
        <pt x="263" y="0" on="1"/>
        <pt x="86" y="0" on="1"/>
        <pt x="80" y="0" on="0"/>
        <pt x="66" y="1" on="0"/>
        <pt x="54" y="7" on="0"/>
        <pt x="46" y="19" on="0"/>
        <pt x="46" y="30" on="1"/>
        <pt x="46" y="42" on="0"/>
        <pt x="54" y="54" on="0"/>
        <pt x="66" y="60" on="0"/>
        <pt x="80" y="61" on="0"/>
        <pt x="86" y="61" on="1"/>
        <pt x="140" y="61" on="1"/>
        <pt x="140" y="550" on="1"/>
        <pt x="86" y="550" on="1"/>
        <pt x="80" y="550" on="0"/>
        <pt x="66" y="551" on="0"/>
        <pt x="54" y="557" on="0"/>
        <pt x="46" y="569" on="0"/>
        <pt x="46" y="580" on="1"/>
        <pt x="46" y="592" on="0"/>
        <pt x="54" y="604" on="0"/>
        <pt x="66" y="610" on="0"/>
        <pt x="80" y="611" on="0"/>
        <pt x="86" y="611" on="1"/>
        <pt x="394" y="611" on="1"/>
        <pt x="447" y="611" on="0"/>
        <pt x="538" y="581" on="0"/>
        <pt x="604" y="531" on="0"/>
        <pt x="641" y="464" on="0"/>
        <pt x="641" y="428" on="1"/>
        <pt x="641" y="392" on="0"/>
        <pt x="604" y="325" on="0"/>
        <pt x="538" y="275" on="0"/>
        <pt x="447" y="245" on="0"/>
        <pt x="394" y="245" on="1"/>
        <pt x="209" y="245" on="1"/>
      </contour>
      <contour>
        <pt x="209" y="550" on="1"/>
        <pt x="209" y="306" on="1"/>
        <pt x="377" y="306" on="1"/>
        <pt x="418" y="306" on="0"/>
        <pt x="490" y="326" on="0"/>
        <pt x="542" y="359" on="0"/>
        <pt x="572" y="404" on="0"/>
        <pt x="572" y="428" on="1"/>
        <pt x="572" y="452" on="0"/>
        <pt x="542" y="497" on="0"/>
        <pt x="490" y="530" on="0"/>
        <pt x="419" y="550" on="0"/>
        <pt x="377" y="550" on="1"/>
      </contour>
    </TTGlyph>
    <TTGlyph name="Phi" xMin="58" yMin="0" xMax="699" yMax="611">
      <contour>
        <pt x="491" y="611" on="1"/>
        <pt x="497" y="611" on="0"/>
        <pt x="511" y="610" on="0"/>
        <pt x="523" y="604" on="0"/>
        <pt x="531" y="592" on="0"/>
        <pt x="531" y="580" on="1"/>
        <pt x="531" y="569" on="0"/>
        <pt x="523" y="557" on="0"/>
        <pt x="511" y="551" on="0"/>
        <pt x="497" y="550" on="0"/>
        <pt x="491" y="550" on="1"/>
        <pt x="413" y="550" on="1"/>
        <pt x="413" y="457" on="1"/>
        <pt x="464" y="455" on="0"/>
        <pt x="566" y="432" on="0"/>
        <pt x="648" y="393" on="0"/>
        <pt x="699" y="339" on="0"/>
        <pt x="699" y="305" on="1"/>
        <pt x="699" y="273" on="0"/>
        <pt x="649" y="219" on="0"/>
        <pt x="568" y="179" on="0"/>
        <pt x="466" y="156" on="0"/>
        <pt x="413" y="154" on="1"/>
        <pt x="413" y="61" on="1"/>
        <pt x="491" y="61" on="1"/>
        <pt x="497" y="61" on="0"/>
        <pt x="511" y="60" on="0"/>
        <pt x="523" y="54" on="0"/>
        <pt x="531" y="42" on="0"/>
        <pt x="531" y="30" on="1"/>
        <pt x="531" y="19" on="0"/>
        <pt x="523" y="7" on="0"/>
        <pt x="511" y="1" on="0"/>
        <pt x="497" y="0" on="0"/>
        <pt x="491" y="0" on="1"/>
        <pt x="266" y="0" on="1"/>
        <pt x="260" y="0" on="0"/>
        <pt x="246" y="1" on="0"/>
        <pt x="234" y="7" on="0"/>
        <pt x="226" y="19" on="0"/>
        <pt x="226" y="30" on="1"/>
        <pt x="226" y="42" on="0"/>
        <pt x="234" y="54" on="0"/>
        <pt x="246" y="60" on="0"/>
        <pt x="260" y="61" on="0"/>
        <pt x="266" y="61" on="1"/>
        <pt x="344" y="61" on="1"/>
        <pt x="344" y="154" on="1"/>
        <pt x="293" y="156" on="0"/>
        <pt x="191" y="179" on="0"/>
        <pt x="109" y="218" on="0"/>
        <pt x="58" y="272" on="0"/>
        <pt x="58" y="306" on="1"/>
        <pt x="58" y="338" on="0"/>
        <pt x="108" y="392" on="0"/>
        <pt x="189" y="432" on="0"/>
        <pt x="292" y="455" on="0"/>
        <pt x="344" y="457" on="1"/>
        <pt x="344" y="550" on="1"/>
        <pt x="266" y="550" on="1"/>
        <pt x="260" y="550" on="0"/>
        <pt x="246" y="551" on="0"/>
        <pt x="234" y="557" on="0"/>
        <pt x="226" y="569" on="0"/>
        <pt x="226" y="580" on="1"/>
        <pt x="226" y="592" on="0"/>
        <pt x="234" y="604" on="0"/>
        <pt x="246" y="610" on="0"/>
        <pt x="260" y="611" on="0"/>
        <pt x="266" y="611" on="1"/>
      </contour>
      <contour>
        <pt x="344" y="396" on="1"/>
        <pt x="316" y="395" on="0"/>
        <pt x="241" y="384" on="0"/>
        <pt x="174" y="362" on="0"/>
        <pt x="127" y="329" on="0"/>
        <pt x="127" y="306" on="1"/>
        <pt x="127" y="282" on="0"/>
        <pt x="176" y="248" on="0"/>
        <pt x="245" y="226" on="0"/>
        <pt x="319" y="216" on="0"/>
        <pt x="344" y="215" on="1"/>
      </contour>
      <contour>
        <pt x="413" y="215" on="1"/>
        <pt x="438" y="216" on="0"/>
        <pt x="512" y="226" on="0"/>
        <pt x="581" y="248" on="0"/>
        <pt x="630" y="282" on="0"/>
        <pt x="630" y="306" on="1"/>
        <pt x="630" y="329" on="0"/>
        <pt x="583" y="362" on="0"/>
        <pt x="516" y="384" on="0"/>
        <pt x="441" y="395" on="0"/>
        <pt x="413" y="396" on="1"/>
      </contour>
    </TTGlyph>
    <TTGlyph name="Pi" xMin="46" yMin="0" xMax="711" yMax="611">
      <contour>
        <pt x="617" y="61" on="1"/>
        <pt x="671" y="61" on="1"/>
        <pt x="677" y="61" on="0"/>
        <pt x="691" y="60" on="0"/>
        <pt x="703" y="54" on="0"/>
        <pt x="711" y="42" on="0"/>
        <pt x="711" y="30" on="1"/>
        <pt x="711" y="19" on="0"/>
        <pt x="703" y="7" on="0"/>
        <pt x="691" y="1" on="0"/>
        <pt x="677" y="0" on="0"/>
        <pt x="671" y="0" on="1"/>
        <pt x="494" y="0" on="1"/>
        <pt x="488" y="0" on="0"/>
        <pt x="474" y="1" on="0"/>
        <pt x="462" y="7" on="0"/>
        <pt x="454" y="19" on="0"/>
        <pt x="454" y="30" on="1"/>
        <pt x="454" y="42" on="0"/>
        <pt x="462" y="54" on="0"/>
        <pt x="474" y="60" on="0"/>
        <pt x="488" y="61" on="0"/>
        <pt x="494" y="61" on="1"/>
        <pt x="548" y="61" on="1"/>
        <pt x="548" y="550" on="1"/>
        <pt x="209" y="550" on="1"/>
        <pt x="209" y="61" on="1"/>
        <pt x="263" y="61" on="1"/>
        <pt x="269" y="61" on="0"/>
        <pt x="283" y="60" on="0"/>
        <pt x="295" y="54" on="0"/>
        <pt x="303" y="42" on="0"/>
        <pt x="303" y="30" on="1"/>
        <pt x="303" y="19" on="0"/>
        <pt x="295" y="7" on="0"/>
        <pt x="283" y="1" on="0"/>
        <pt x="269" y="0" on="0"/>
        <pt x="263" y="0" on="1"/>
        <pt x="86" y="0" on="1"/>
        <pt x="80" y="0" on="0"/>
        <pt x="66" y="1" on="0"/>
        <pt x="54" y="7" on="0"/>
        <pt x="46" y="19" on="0"/>
        <pt x="46" y="30" on="1"/>
        <pt x="46" y="42" on="0"/>
        <pt x="54" y="54" on="0"/>
        <pt x="66" y="60" on="0"/>
        <pt x="80" y="61" on="0"/>
        <pt x="86" y="61" on="1"/>
        <pt x="140" y="61" on="1"/>
        <pt x="140" y="550" on="1"/>
        <pt x="86" y="550" on="1"/>
        <pt x="80" y="550" on="0"/>
        <pt x="66" y="551" on="0"/>
        <pt x="54" y="557" on="0"/>
        <pt x="46" y="569" on="0"/>
        <pt x="46" y="580" on="1"/>
        <pt x="46" y="592" on="0"/>
        <pt x="54" y="604" on="0"/>
        <pt x="66" y="610" on="0"/>
        <pt x="80" y="611" on="0"/>
        <pt x="86" y="611" on="1"/>
        <pt x="671" y="611" on="1"/>
        <pt x="677" y="611" on="0"/>
        <pt x="691" y="610" on="0"/>
        <pt x="703" y="604" on="0"/>
        <pt x="711" y="592" on="0"/>
        <pt x="711" y="580" on="1"/>
        <pt x="711" y="569" on="0"/>
        <pt x="703" y="557" on="0"/>
        <pt x="691" y="551" on="0"/>
        <pt x="677" y="550" on="0"/>
        <pt x="671" y="550" on="1"/>
        <pt x="617" y="550" on="1"/>
      </contour>
    </TTGlyph>
    <TTGlyph name="Psi" xMin="58" yMin="0" xMax="758" yMax="611">
      <contour>
        <pt x="443" y="215" on="1"/>
        <pt x="475" y="218" on="0"/>
        <pt x="533" y="236" on="0"/>
        <pt x="578" y="270" on="0"/>
        <pt x="606" y="321" on="0"/>
        <pt x="607" y="357" on="1"/>
        <pt x="608" y="376" on="0"/>
        <pt x="616" y="426" on="0"/>
        <pt x="638" y="447" on="1"/>
        <pt x="643" y="453" on="0"/>
        <pt x="657" y="465" on="0"/>
        <pt x="677" y="476" on="0"/>
        <pt x="703" y="483" on="0"/>
        <pt x="721" y="483" on="1"/>
        <pt x="726" y="483" on="0"/>
        <pt x="738" y="482" on="0"/>
        <pt x="750" y="476" on="0"/>
        <pt x="758" y="464" on="0"/>
        <pt x="758" y="452" on="1"/>
        <pt x="758" y="438" on="0"/>
        <pt x="742" y="424" on="0"/>
        <pt x="730" y="422" on="1"/>
        <pt x="711" y="420" on="0"/>
        <pt x="689" y="405" on="0"/>
        <pt x="679" y="386" on="0"/>
        <pt x="676" y="363" on="0"/>
        <pt x="676" y="354" on="1"/>
        <pt x="674" y="307" on="0"/>
        <pt x="637" y="235" on="0"/>
        <pt x="575" y="186" on="0"/>
        <pt x="491" y="158" on="0"/>
        <pt x="443" y="154" on="1"/>
        <pt x="443" y="61" on="1"/>
        <pt x="521" y="61" on="1"/>
        <pt x="527" y="61" on="0"/>
        <pt x="541" y="60" on="0"/>
        <pt x="553" y="54" on="0"/>
        <pt x="561" y="42" on="0"/>
        <pt x="561" y="30" on="1"/>
        <pt x="561" y="19" on="0"/>
        <pt x="553" y="7" on="0"/>
        <pt x="541" y="1" on="0"/>
        <pt x="527" y="0" on="0"/>
        <pt x="521" y="0" on="1"/>
        <pt x="296" y="0" on="1"/>
        <pt x="290" y="0" on="0"/>
        <pt x="276" y="1" on="0"/>
        <pt x="264" y="7" on="0"/>
        <pt x="256" y="19" on="0"/>
        <pt x="256" y="31" on="1"/>
        <pt x="256" y="42" on="0"/>
        <pt x="264" y="54" on="0"/>
        <pt x="276" y="60" on="0"/>
        <pt x="290" y="61" on="0"/>
        <pt x="296" y="61" on="1"/>
        <pt x="374" y="61" on="1"/>
        <pt x="374" y="154" on="1"/>
        <pt x="329" y="158" on="0"/>
        <pt x="249" y="181" on="0"/>
        <pt x="207" y="213" on="1"/>
        <pt x="175" y="239" on="0"/>
        <pt x="142" y="320" on="0"/>
        <pt x="140" y="352" on="1"/>
        <pt x="140" y="363" on="0"/>
        <pt x="137" y="387" on="0"/>
        <pt x="126" y="406" on="0"/>
        <pt x="103" y="420" on="0"/>
        <pt x="82" y="422" on="1"/>
        <pt x="79" y="423" on="0"/>
        <pt x="58" y="434" on="0"/>
        <pt x="58" y="452" on="1"/>
        <pt x="58" y="464" on="0"/>
        <pt x="66" y="476" on="0"/>
        <pt x="78" y="482" on="0"/>
        <pt x="91" y="483" on="0"/>
        <pt x="95" y="483" on="1"/>
        <pt x="111" y="483" on="0"/>
        <pt x="149" y="473" on="0"/>
        <pt x="183" y="446" on="0"/>
        <pt x="208" y="398" on="0"/>
        <pt x="209" y="360" on="1"/>
        <pt x="212" y="291" on="0"/>
        <pt x="303" y="221" on="0"/>
        <pt x="374" y="215" on="1"/>
        <pt x="374" y="550" on="1"/>
        <pt x="296" y="550" on="1"/>
        <pt x="290" y="550" on="0"/>
        <pt x="276" y="551" on="0"/>
        <pt x="264" y="557" on="0"/>
        <pt x="256" y="569" on="0"/>
        <pt x="256" y="581" on="1"/>
        <pt x="256" y="592" on="0"/>
        <pt x="264" y="604" on="0"/>
        <pt x="276" y="610" on="0"/>
        <pt x="290" y="611" on="0"/>
        <pt x="296" y="611" on="1"/>
        <pt x="521" y="611" on="1"/>
        <pt x="527" y="611" on="0"/>
        <pt x="541" y="610" on="0"/>
        <pt x="553" y="604" on="0"/>
        <pt x="561" y="592" on="0"/>
        <pt x="561" y="580" on="1"/>
        <pt x="561" y="569" on="0"/>
        <pt x="553" y="557" on="0"/>
        <pt x="541" y="551" on="0"/>
        <pt x="527" y="550" on="0"/>
        <pt x="521" y="550" on="1"/>
        <pt x="443" y="550" on="1"/>
      </contour>
    </TTGlyph>
    <TTGlyph name="Q" xMin="58" yMin="-139" xMax="758" yMax="622">
      <contour>
        <pt x="532" y="-12" on="1"/>
        <pt x="521" y="-1" on="0"/>
        <pt x="518" y="4" on="0"/>
        <pt x="517" y="4" on="1"/>
        <pt x="514" y="4" on="0"/>
        <pt x="510" y="2" on="1"/>
        <pt x="480" y="-6" on="0"/>
        <pt x="430" y="-11" on="0"/>
        <pt x="408" y="-11" on="1"/>
        <pt x="335" y="-11" on="0"/>
        <pt x="207" y="39" on="0"/>
        <pt x="112" y="126" on="0"/>
        <pt x="58" y="241" on="0"/>
        <pt x="58" y="306" on="1"/>
        <pt x="58" y="369" on="0"/>
        <pt x="112" y="484" on="0"/>
        <pt x="206" y="571" on="0"/>
        <pt x="334" y="622" on="0"/>
        <pt x="408" y="622" on="1"/>
        <pt x="482" y="622" on="0"/>
        <pt x="609" y="572" on="0"/>
        <pt x="704" y="485" on="0"/>
        <pt x="758" y="370" on="0"/>
        <pt x="758" y="305" on="1"/>
        <pt x="758" y="284" on="0"/>
        <pt x="747" y="217" on="0"/>
        <pt x="710" y="140" on="0"/>
        <pt x="639" y="61" on="0"/>
        <pt x="578" y="28" on="1"/>
        <pt x="686" y="-91" on="1"/>
        <pt x="693" y="-99" on="0"/>
        <pt x="708" y="-117" on="0"/>
        <pt x="708" y="-122" on="1"/>
        <pt x="708" y="-135" on="0"/>
        <pt x="688" y="-139" on="0"/>
        <pt x="677" y="-139" on="1"/>
        <pt x="661" y="-139" on="0"/>
        <pt x="643" y="-135" on="0"/>
        <pt x="631" y="-121" on="1"/>
      </contour>
      <contour>
        <pt x="390" y="149" on="1"/>
        <pt x="390" y="166" on="0"/>
        <pt x="405" y="171" on="0"/>
        <pt x="422" y="171" on="1"/>
        <pt x="439" y="171" on="0"/>
        <pt x="449" y="168" on="0"/>
        <pt x="457" y="160" on="1"/>
        <pt x="465" y="152" on="0"/>
        <pt x="497" y="115" on="0"/>
        <pt x="533" y="77" on="1"/>
        <pt x="568" y="92" on="0"/>
        <pt x="625" y="140" on="0"/>
        <pt x="666" y="200" on="0"/>
        <pt x="689" y="269" on="0"/>
        <pt x="689" y="306" on="1"/>
        <pt x="689" y="357" on="0"/>
        <pt x="646" y="450" on="0"/>
        <pt x="570" y="520" on="0"/>
        <pt x="468" y="561" on="0"/>
        <pt x="408" y="561" on="1"/>
        <pt x="350" y="561" on="0"/>
        <pt x="247" y="521" on="0"/>
        <pt x="171" y="451" on="0"/>
        <pt x="127" y="358" on="0"/>
        <pt x="127" y="305" on="1"/>
        <pt x="127" y="254" on="0"/>
        <pt x="170" y="161" on="0"/>
        <pt x="246" y="91" on="0"/>
        <pt x="348" y="50" on="0"/>
        <pt x="408" y="50" on="1"/>
        <pt x="409" y="50" on="0"/>
        <pt x="448" y="51" on="0"/>
        <pt x="471" y="56" on="1"/>
      </contour>
    </TTGlyph>
    <TTGlyph name="R" xMin="46" yMin="-11" xMax="754" yMax="611">
      <contour>
        <pt x="511" y="307" on="1"/>
        <pt x="528" y="299" on="0"/>
        <pt x="556" y="276" on="0"/>
        <pt x="567" y="261" on="1"/>
        <pt x="575" y="250" on="0"/>
        <pt x="583" y="231" on="0"/>
        <pt x="586" y="209" on="0"/>
        <pt x="587" y="181" on="0"/>
        <pt x="587" y="161" on="1"/>
        <pt x="587" y="138" on="0"/>
        <pt x="589" y="98" on="0"/>
        <pt x="599" y="68" on="0"/>
        <pt x="621" y="50" on="0"/>
        <pt x="641" y="50" on="1"/>
        <pt x="657" y="50" on="0"/>
        <pt x="683" y="72" on="0"/>
        <pt x="685" y="95" on="1"/>
        <pt x="686" y="106" on="0"/>
        <pt x="694" y="118" on="0"/>
        <pt x="704" y="124" on="0"/>
        <pt x="715" y="125" on="0"/>
        <pt x="719" y="125" on="1"/>
        <pt x="723" y="125" on="0"/>
        <pt x="735" y="124" on="0"/>
        <pt x="746" y="118" on="0"/>
        <pt x="754" y="106" on="0"/>
        <pt x="754" y="94" on="1"/>
        <pt x="754" y="76" on="0"/>
        <pt x="739" y="39" on="0"/>
        <pt x="710" y="8" on="0"/>
        <pt x="668" y="-11" on="0"/>
        <pt x="641" y="-11" on="1"/>
        <pt x="610" y="-11" on="0"/>
        <pt x="559" y="14" on="0"/>
        <pt x="544" y="34" on="1"/>
        <pt x="534" y="48" on="0"/>
        <pt x="524" y="72" on="0"/>
        <pt x="519" y="101" on="0"/>
        <pt x="518" y="135" on="0"/>
        <pt x="518" y="157" on="1"/>
        <pt x="518" y="180" on="0"/>
        <pt x="517" y="208" on="0"/>
        <pt x="509" y="228" on="0"/>
        <pt x="493" y="243" on="0"/>
        <pt x="478" y="252" on="1"/>
        <pt x="461" y="260" on="0"/>
        <pt x="395" y="275" on="0"/>
        <pt x="352" y="275" on="1"/>
        <pt x="209" y="275" on="1"/>
        <pt x="209" y="61" on="1"/>
        <pt x="263" y="61" on="1"/>
        <pt x="269" y="61" on="0"/>
        <pt x="283" y="60" on="0"/>
        <pt x="295" y="54" on="0"/>
        <pt x="303" y="42" on="0"/>
        <pt x="303" y="30" on="1"/>
        <pt x="303" y="19" on="0"/>
        <pt x="295" y="7" on="0"/>
        <pt x="283" y="1" on="0"/>
        <pt x="269" y="0" on="0"/>
        <pt x="263" y="0" on="1"/>
        <pt x="86" y="0" on="1"/>
        <pt x="80" y="0" on="0"/>
        <pt x="66" y="1" on="0"/>
        <pt x="54" y="7" on="0"/>
        <pt x="46" y="19" on="0"/>
        <pt x="46" y="30" on="1"/>
        <pt x="46" y="42" on="0"/>
        <pt x="54" y="54" on="0"/>
        <pt x="66" y="60" on="0"/>
        <pt x="80" y="61" on="0"/>
        <pt x="86" y="61" on="1"/>
        <pt x="140" y="61" on="1"/>
        <pt x="140" y="550" on="1"/>
        <pt x="86" y="550" on="1"/>
        <pt x="80" y="550" on="0"/>
        <pt x="66" y="551" on="0"/>
        <pt x="54" y="557" on="0"/>
        <pt x="46" y="569" on="0"/>
        <pt x="46" y="580" on="1"/>
        <pt x="46" y="592" on="0"/>
        <pt x="54" y="604" on="0"/>
        <pt x="66" y="610" on="0"/>
        <pt x="80" y="611" on="0"/>
        <pt x="86" y="611" on="1"/>
        <pt x="354" y="611" on="1"/>
        <pt x="408" y="611" on="0"/>
        <pt x="507" y="585" on="0"/>
        <pt x="582" y="540" on="0"/>
        <pt x="626" y="478" on="0"/>
        <pt x="626" y="443" on="1"/>
        <pt x="626" y="401" on="0"/>
        <pt x="565" y="330" on="0"/>
      </contour>
      <contour>
        <pt x="345" y="336" on="1"/>
        <pt x="385" y="336" on="0"/>
        <pt x="461" y="352" on="0"/>
        <pt x="521" y="380" on="0"/>
        <pt x="557" y="419" on="0"/>
        <pt x="557" y="443" on="1"/>
        <pt x="557" y="467" on="0"/>
        <pt x="521" y="506" on="0"/>
        <pt x="461" y="534" on="0"/>
        <pt x="385" y="550" on="0"/>
        <pt x="345" y="550" on="1"/>
        <pt x="209" y="550" on="1"/>
        <pt x="209" y="336" on="1"/>
      </contour>
    </TTGlyph>
    <TTGlyph name="S" xMin="58" yMin="-11" xMax="524" yMax="622">
      <contour>
        <pt x="370" y="336" on="1"/>
        <pt x="404" y="329" on="0"/>
        <pt x="460" y="296" on="0"/>
        <pt x="501" y="251" on="0"/>
        <pt x="524" y="196" on="0"/>
        <pt x="524" y="166" on="1"/>
        <pt x="524" y="133" on="0"/>
        <pt x="496" y="70" on="0"/>
        <pt x="443" y="20" on="0"/>
        <pt x="365" y="-11" on="0"/>
        <pt x="315" y="-11" on="1"/>
        <pt x="297" y="-11" on="0"/>
        <pt x="251" y="-8" on="0"/>
        <pt x="200" y="2" on="0"/>
        <pt x="149" y="21" on="0"/>
        <pt x="127" y="37" on="1"/>
        <pt x="122" y="23" on="0"/>
        <pt x="114" y="4" on="0"/>
        <pt x="107" y="-7" on="0"/>
        <pt x="96" y="-11" on="0"/>
        <pt x="88" y="-11" on="1"/>
        <pt x="77" y="-11" on="0"/>
        <pt x="65" y="-3" on="0"/>
        <pt x="59" y="10" on="0"/>
        <pt x="58" y="24" on="0"/>
        <pt x="58" y="30" on="1"/>
        <pt x="58" y="162" on="1"/>
        <pt x="58" y="177" on="0"/>
        <pt x="67" y="203" on="0"/>
        <pt x="93" y="203" on="1"/>
        <pt x="117" y="203" on="0"/>
        <pt x="126" y="181" on="0"/>
        <pt x="127" y="170" on="1"/>
        <pt x="129" y="136" on="0"/>
        <pt x="155" y="95" on="0"/>
        <pt x="182" y="78" on="1"/>
        <pt x="203" y="66" on="0"/>
        <pt x="274" y="50" on="0"/>
        <pt x="316" y="50" on="1"/>
        <pt x="351" y="50" on="0"/>
        <pt x="404" y="70" on="0"/>
        <pt x="440" y="102" on="0"/>
        <pt x="459" y="142" on="0"/>
        <pt x="459" y="162" on="1"/>
        <pt x="459" y="178" on="0"/>
        <pt x="449" y="204" on="0"/>
        <pt x="437" y="223" on="0"/>
        <pt x="427" y="233" on="0"/>
        <pt x="427" y="233" on="1"/>
        <pt x="415" y="244" on="0"/>
        <pt x="395" y="256" on="0"/>
        <pt x="371" y="265" on="0"/>
        <pt x="340" y="272" on="0"/>
        <pt x="317" y="277" on="1"/>
        <pt x="274" y="286" on="1"/>
        <pt x="240" y="293" on="0"/>
        <pt x="191" y="304" on="0"/>
        <pt x="153" y="318" on="0"/>
        <pt x="122" y="336" on="0"/>
        <pt x="107" y="350" on="1"/>
        <pt x="90" y="367" on="0"/>
        <pt x="58" y="420" on="0"/>
        <pt x="58" y="458" on="1"/>
        <pt x="58" y="490" on="0"/>
        <pt x="87" y="549" on="0"/>
        <pt x="141" y="594" on="0"/>
        <pt x="217" y="622" on="0"/>
        <pt x="264" y="622" on="1"/>
        <pt x="279" y="622" on="0"/>
        <pt x="319" y="618" on="0"/>
        <pt x="362" y="608" on="0"/>
        <pt x="407" y="588" on="0"/>
        <pt x="426" y="571" on="1"/>
        <pt x="437" y="604" on="0"/>
        <pt x="449" y="622" on="0"/>
        <pt x="465" y="622" on="1"/>
        <pt x="476" y="622" on="0"/>
        <pt x="488" y="614" on="0"/>
        <pt x="494" y="601" on="0"/>
        <pt x="495" y="587" on="0"/>
        <pt x="495" y="581" on="1"/>
        <pt x="495" y="449" on="1"/>
        <pt x="495" y="434" on="0"/>
        <pt x="486" y="408" on="0"/>
        <pt x="460" y="408" on="1"/>
        <pt x="438" y="408" on="0"/>
        <pt x="427" y="427" on="0"/>
        <pt x="425" y="440" on="1"/>
        <pt x="420" y="466" on="0"/>
        <pt x="398" y="510" on="0"/>
        <pt x="359" y="542" on="0"/>
        <pt x="302" y="561" on="0"/>
        <pt x="263" y="561" on="1"/>
        <pt x="232" y="561" on="0"/>
        <pt x="180" y="544" on="0"/>
        <pt x="143" y="516" on="0"/>
        <pt x="123" y="481" on="0"/>
        <pt x="123" y="462" on="1"/>
        <pt x="123" y="439" on="0"/>
        <pt x="146" y="405" on="0"/>
        <pt x="178" y="382" on="0"/>
        <pt x="212" y="369" on="0"/>
        <pt x="222" y="367" on="1"/>
      </contour>
    </TTGlyph>
    <TTGlyph name="Sigma" xMin="58" yMin="0" xMax="699" yMax="611">
      <contour>
        <pt x="169" y="63" on="1"/>
        <pt x="630" y="63" on="1"/>
        <pt x="630" y="116" on="1"/>
        <pt x="630" y="131" on="0"/>
        <pt x="639" y="157" on="0"/>
        <pt x="665" y="157" on="1"/>
        <pt x="678" y="157" on="0"/>
        <pt x="692" y="150" on="0"/>
        <pt x="698" y="138" on="0"/>
        <pt x="699" y="123" on="0"/>
        <pt x="699" y="116" on="1"/>
        <pt x="699" y="41" on="1"/>
        <pt x="699" y="17" on="0"/>
        <pt x="684" y="0" on="0"/>
        <pt x="659" y="0" on="1"/>
        <pt x="99" y="0" on="1"/>
        <pt x="94" y="0" on="0"/>
        <pt x="80" y="1" on="0"/>
        <pt x="67" y="6" on="0"/>
        <pt x="58" y="18" on="0"/>
        <pt x="58" y="28" on="1"/>
        <pt x="58" y="36" on="0"/>
        <pt x="64" y="45" on="0"/>
        <pt x="70" y="52" on="1"/>
        <pt x="282" y="305" on="1"/>
        <pt x="69" y="555" on="1"/>
        <pt x="64" y="562" on="0"/>
        <pt x="58" y="571" on="0"/>
        <pt x="58" y="580" on="1"/>
        <pt x="58" y="592" on="0"/>
        <pt x="66" y="604" on="0"/>
        <pt x="79" y="610" on="0"/>
        <pt x="93" y="611" on="0"/>
        <pt x="99" y="611" on="1"/>
        <pt x="659" y="611" on="1"/>
        <pt x="685" y="611" on="0"/>
        <pt x="699" y="593" on="0"/>
        <pt x="699" y="570" on="1"/>
        <pt x="699" y="497" on="1"/>
        <pt x="699" y="482" on="0"/>
        <pt x="690" y="456" on="0"/>
        <pt x="664" y="456" on="1"/>
        <pt x="651" y="456" on="0"/>
        <pt x="637" y="463" on="0"/>
        <pt x="631" y="475" on="0"/>
        <pt x="630" y="490" on="0"/>
        <pt x="630" y="497" on="1"/>
        <pt x="630" y="550" on="1"/>
        <pt x="164" y="550" on="1"/>
        <pt x="352" y="330" on="1"/>
        <pt x="357" y="324" on="0"/>
        <pt x="364" y="313" on="0"/>
        <pt x="364" y="305" on="1"/>
        <pt x="364" y="303" on="0"/>
        <pt x="361" y="291" on="0"/>
        <pt x="352" y="280" on="1"/>
      </contour>
    </TTGlyph>
    <TTGlyph name="T" xMin="38" yMin="0" xMax="719" yMax="611">
      <contour>
        <pt x="413" y="61" on="1"/>
        <pt x="506" y="61" on="1"/>
        <pt x="512" y="61" on="0"/>
        <pt x="526" y="60" on="0"/>
        <pt x="538" y="54" on="0"/>
        <pt x="547" y="42" on="0"/>
        <pt x="547" y="30" on="1"/>
        <pt x="547" y="19" on="0"/>
        <pt x="538" y="7" on="0"/>
        <pt x="525" y="1" on="0"/>
        <pt x="511" y="0" on="0"/>
        <pt x="506" y="0" on="1"/>
        <pt x="251" y="0" on="1"/>
        <pt x="245" y="0" on="0"/>
        <pt x="231" y="1" on="0"/>
        <pt x="219" y="7" on="0"/>
        <pt x="210" y="19" on="0"/>
        <pt x="210" y="31" on="1"/>
        <pt x="210" y="42" on="0"/>
        <pt x="219" y="54" on="0"/>
        <pt x="232" y="60" on="0"/>
        <pt x="246" y="61" on="0"/>
        <pt x="251" y="61" on="1"/>
        <pt x="344" y="61" on="1"/>
        <pt x="344" y="550" on="1"/>
        <pt x="107" y="550" on="1"/>
        <pt x="107" y="497" on="1"/>
        <pt x="107" y="482" on="0"/>
        <pt x="98" y="456" on="0"/>
        <pt x="72" y="456" on="1"/>
        <pt x="59" y="456" on="0"/>
        <pt x="45" y="463" on="0"/>
        <pt x="39" y="475" on="0"/>
        <pt x="38" y="490" on="0"/>
        <pt x="38" y="497" on="1"/>
        <pt x="38" y="570" on="1"/>
        <pt x="38" y="595" on="0"/>
        <pt x="54" y="611" on="0"/>
        <pt x="79" y="611" on="1"/>
        <pt x="679" y="611" on="1"/>
        <pt x="705" y="611" on="0"/>
        <pt x="719" y="593" on="0"/>
        <pt x="719" y="570" on="1"/>
        <pt x="719" y="497" on="1"/>
        <pt x="719" y="482" on="0"/>
        <pt x="710" y="456" on="0"/>
        <pt x="684" y="456" on="1"/>
        <pt x="671" y="456" on="0"/>
        <pt x="657" y="463" on="0"/>
        <pt x="651" y="475" on="0"/>
        <pt x="650" y="490" on="0"/>
        <pt x="650" y="497" on="1"/>
        <pt x="650" y="550" on="1"/>
        <pt x="413" y="550" on="1"/>
      </contour>
    </TTGlyph>
    <TTGlyph name="Theta" xMin="58" yMin="-11" xMax="758" yMax="622">
      <contour>
        <pt x="758" y="305" on="1"/>
        <pt x="758" y="242" on="0"/>
        <pt x="704" y="127" on="0"/>
        <pt x="610" y="40" on="0"/>
        <pt x="482" y="-11" on="0"/>
        <pt x="408" y="-11" on="1"/>
        <pt x="335" y="-11" on="0"/>
        <pt x="207" y="39" on="0"/>
        <pt x="112" y="126" on="0"/>
        <pt x="58" y="241" on="0"/>
        <pt x="58" y="306" on="1"/>
        <pt x="58" y="369" on="0"/>
        <pt x="112" y="484" on="0"/>
        <pt x="206" y="571" on="0"/>
        <pt x="334" y="622" on="0"/>
        <pt x="408" y="622" on="1"/>
        <pt x="482" y="622" on="0"/>
        <pt x="609" y="572" on="0"/>
        <pt x="704" y="485" on="0"/>
        <pt x="758" y="370" on="0"/>
      </contour>
      <contour>
        <pt x="408" y="50" on="1"/>
        <pt x="467" y="50" on="0"/>
        <pt x="569" y="90" on="0"/>
        <pt x="645" y="160" on="0"/>
        <pt x="689" y="253" on="0"/>
        <pt x="689" y="306" on="1"/>
        <pt x="689" y="357" on="0"/>
        <pt x="646" y="450" on="0"/>
        <pt x="570" y="520" on="0"/>
        <pt x="468" y="561" on="0"/>
        <pt x="408" y="561" on="1"/>
        <pt x="350" y="561" on="0"/>
        <pt x="247" y="521" on="0"/>
        <pt x="171" y="451" on="0"/>
        <pt x="127" y="358" on="0"/>
        <pt x="127" y="305" on="1"/>
        <pt x="127" y="254" on="0"/>
        <pt x="170" y="161" on="0"/>
        <pt x="246" y="91" on="0"/>
        <pt x="348" y="50" on="0"/>
      </contour>
      <contour>
        <pt x="561" y="339" on="1"/>
        <pt x="562" y="351" on="0"/>
        <pt x="569" y="363" on="0"/>
        <pt x="580" y="369" on="0"/>
        <pt x="591" y="370" on="0"/>
        <pt x="595" y="370" on="1"/>
        <pt x="621" y="370" on="0"/>
        <pt x="630" y="344" on="0"/>
        <pt x="630" y="329" on="1"/>
        <pt x="630" y="282" on="1"/>
        <pt x="630" y="267" on="0"/>
        <pt x="621" y="241" on="0"/>
        <pt x="595" y="241" on="1"/>
        <pt x="586" y="241" on="0"/>
        <pt x="563" y="249" on="0"/>
        <pt x="561" y="272" on="1"/>
        <pt x="255" y="272" on="1"/>
        <pt x="254" y="260" on="0"/>
        <pt x="247" y="248" on="0"/>
        <pt x="236" y="242" on="0"/>
        <pt x="225" y="241" on="0"/>
        <pt x="221" y="241" on="1"/>
        <pt x="195" y="241" on="0"/>
        <pt x="186" y="267" on="0"/>
        <pt x="186" y="282" on="1"/>
        <pt x="186" y="329" on="1"/>
        <pt x="186" y="344" on="0"/>
        <pt x="195" y="370" on="0"/>
        <pt x="221" y="370" on="1"/>
        <pt x="230" y="370" on="0"/>
        <pt x="253" y="362" on="0"/>
        <pt x="255" y="339" on="1"/>
      </contour>
    </TTGlyph>
    <TTGlyph name="U" xMin="46" yMin="-11" xMax="711" yMax="611">
      <contour>
        <pt x="617" y="206" on="1"/>
        <pt x="617" y="160" on="0"/>
        <pt x="579" y="80" on="0"/>
        <pt x="514" y="22" on="0"/>
        <pt x="427" y="-11" on="0"/>
        <pt x="378" y="-11" on="1"/>
        <pt x="330" y="-11" on="0"/>
        <pt x="244" y="21" on="0"/>
        <pt x="179" y="79" on="0"/>
        <pt x="140" y="159" on="0"/>
        <pt x="140" y="206" on="1"/>
        <pt x="140" y="550" on="1"/>
        <pt x="86" y="550" on="1"/>
        <pt x="80" y="550" on="0"/>
        <pt x="66" y="551" on="0"/>
        <pt x="54" y="557" on="0"/>
        <pt x="46" y="569" on="0"/>
        <pt x="46" y="580" on="1"/>
        <pt x="46" y="592" on="0"/>
        <pt x="54" y="604" on="0"/>
        <pt x="66" y="610" on="0"/>
        <pt x="80" y="611" on="0"/>
        <pt x="86" y="611" on="1"/>
        <pt x="263" y="611" on="1"/>
        <pt x="269" y="611" on="0"/>
        <pt x="283" y="610" on="0"/>
        <pt x="295" y="604" on="0"/>
        <pt x="303" y="592" on="0"/>
        <pt x="303" y="580" on="1"/>
        <pt x="303" y="569" on="0"/>
        <pt x="295" y="557" on="0"/>
        <pt x="283" y="551" on="0"/>
        <pt x="269" y="550" on="0"/>
        <pt x="263" y="550" on="1"/>
        <pt x="209" y="550" on="1"/>
        <pt x="209" y="212" on="1"/>
        <pt x="209" y="170" on="0"/>
        <pt x="241" y="109" on="0"/>
        <pt x="290" y="69" on="0"/>
        <pt x="351" y="50" on="0"/>
        <pt x="379" y="50" on="1"/>
        <pt x="406" y="50" on="0"/>
        <pt x="466" y="69" on="0"/>
        <pt x="515" y="108" on="0"/>
        <pt x="548" y="169" on="0"/>
        <pt x="548" y="212" on="1"/>
        <pt x="548" y="550" on="1"/>
        <pt x="494" y="550" on="1"/>
        <pt x="488" y="550" on="0"/>
        <pt x="474" y="551" on="0"/>
        <pt x="462" y="557" on="0"/>
        <pt x="454" y="569" on="0"/>
        <pt x="454" y="580" on="1"/>
        <pt x="454" y="592" on="0"/>
        <pt x="462" y="604" on="0"/>
        <pt x="474" y="610" on="0"/>
        <pt x="488" y="611" on="0"/>
        <pt x="494" y="611" on="1"/>
        <pt x="671" y="611" on="1"/>
        <pt x="677" y="611" on="0"/>
        <pt x="691" y="610" on="0"/>
        <pt x="703" y="604" on="0"/>
        <pt x="711" y="592" on="0"/>
        <pt x="711" y="580" on="1"/>
        <pt x="711" y="569" on="0"/>
        <pt x="703" y="557" on="0"/>
        <pt x="691" y="551" on="0"/>
        <pt x="677" y="550" on="0"/>
        <pt x="671" y="550" on="1"/>
        <pt x="617" y="550" on="1"/>
      </contour>
    </TTGlyph>
    <TTGlyph name="Upsilon" xMin="58" yMin="0" xMax="758" yMax="622">
      <contour>
        <pt x="443" y="61" on="1"/>
        <pt x="521" y="61" on="1"/>
        <pt x="527" y="61" on="0"/>
        <pt x="541" y="60" on="0"/>
        <pt x="553" y="54" on="0"/>
        <pt x="561" y="42" on="0"/>
        <pt x="561" y="30" on="1"/>
        <pt x="561" y="19" on="0"/>
        <pt x="553" y="7" on="0"/>
        <pt x="541" y="1" on="0"/>
        <pt x="527" y="0" on="0"/>
        <pt x="521" y="0" on="1"/>
        <pt x="296" y="0" on="1"/>
        <pt x="290" y="0" on="0"/>
        <pt x="276" y="1" on="0"/>
        <pt x="264" y="7" on="0"/>
        <pt x="256" y="19" on="0"/>
        <pt x="256" y="31" on="1"/>
        <pt x="256" y="42" on="0"/>
        <pt x="264" y="54" on="0"/>
        <pt x="276" y="60" on="0"/>
        <pt x="290" y="61" on="0"/>
        <pt x="296" y="61" on="1"/>
        <pt x="374" y="61" on="1"/>
        <pt x="374" y="312" on="1"/>
        <pt x="374" y="349" on="0"/>
        <pt x="361" y="439" on="0"/>
        <pt x="326" y="517" on="0"/>
        <pt x="268" y="570" on="0"/>
        <pt x="223" y="570" on="1"/>
        <pt x="181" y="570" on="0"/>
        <pt x="130" y="526" on="0"/>
        <pt x="127" y="495" on="1"/>
        <pt x="126" y="482" on="0"/>
        <pt x="116" y="461" on="0"/>
        <pt x="93" y="461" on="1"/>
        <pt x="89" y="461" on="0"/>
        <pt x="77" y="462" on="0"/>
        <pt x="66" y="468" on="0"/>
        <pt x="58" y="480" on="0"/>
        <pt x="58" y="492" on="1"/>
        <pt x="58" y="519" on="0"/>
        <pt x="84" y="566" on="0"/>
        <pt x="128" y="601" on="0"/>
        <pt x="187" y="622" on="0"/>
        <pt x="220" y="622" on="1"/>
        <pt x="264" y="622" on="0"/>
        <pt x="328" y="584" on="0"/>
        <pt x="373" y="522" on="0"/>
        <pt x="401" y="443" on="0"/>
        <pt x="408" y="401" on="1"/>
        <pt x="409" y="401" on="1"/>
        <pt x="416" y="448" on="0"/>
        <pt x="446" y="528" on="0"/>
        <pt x="492" y="588" on="0"/>
        <pt x="556" y="622" on="0"/>
        <pt x="596" y="622" on="1"/>
        <pt x="629" y="622" on="0"/>
        <pt x="688" y="601" on="0"/>
        <pt x="732" y="566" on="0"/>
        <pt x="758" y="519" on="0"/>
        <pt x="758" y="492" on="1"/>
        <pt x="758" y="480" on="0"/>
        <pt x="750" y="468" on="0"/>
        <pt x="739" y="462" on="0"/>
        <pt x="727" y="461" on="0"/>
        <pt x="723" y="461" on="1"/>
        <pt x="700" y="461" on="0"/>
        <pt x="690" y="482" on="0"/>
        <pt x="689" y="494" on="1"/>
        <pt x="685" y="528" on="0"/>
        <pt x="632" y="570" on="0"/>
        <pt x="593" y="570" on="1"/>
        <pt x="549" y="570" on="0"/>
        <pt x="491" y="519" on="0"/>
        <pt x="457" y="441" on="0"/>
        <pt x="443" y="351" on="0"/>
        <pt x="443" y="312" on="1"/>
      </contour>
    </TTGlyph>
    <TTGlyph name="V" xMin="28" yMin="-8" xMax="729" yMax="611">
      <contour>
        <pt x="443" y="27" on="1"/>
        <pt x="433" y="1" on="0"/>
        <pt x="406" y="-8" on="0"/>
        <pt x="388" y="-8" on="1"/>
        <pt x="369" y="-8" on="1"/>
        <pt x="340" y="-8" on="0"/>
        <pt x="322" y="9" on="0"/>
        <pt x="314" y="28" on="1"/>
        <pt x="109" y="550" on="1"/>
        <pt x="68" y="550" on="1"/>
        <pt x="62" y="550" on="0"/>
        <pt x="48" y="551" on="0"/>
        <pt x="36" y="557" on="0"/>
        <pt x="28" y="569" on="0"/>
        <pt x="28" y="581" on="1"/>
        <pt x="28" y="592" on="0"/>
        <pt x="36" y="604" on="0"/>
        <pt x="48" y="610" on="0"/>
        <pt x="62" y="611" on="0"/>
        <pt x="68" y="611" on="1"/>
        <pt x="222" y="611" on="1"/>
        <pt x="228" y="611" on="0"/>
        <pt x="242" y="610" on="0"/>
        <pt x="255" y="604" on="0"/>
        <pt x="263" y="592" on="0"/>
        <pt x="263" y="580" on="1"/>
        <pt x="263" y="569" on="0"/>
        <pt x="254" y="557" on="0"/>
        <pt x="242" y="551" on="0"/>
        <pt x="228" y="550" on="0"/>
        <pt x="222" y="550" on="1"/>
        <pt x="183" y="550" on="1"/>
        <pt x="379" y="51" on="1"/>
        <pt x="574" y="550" on="1"/>
        <pt x="535" y="550" on="1"/>
        <pt x="529" y="550" on="0"/>
        <pt x="515" y="551" on="0"/>
        <pt x="503" y="557" on="0"/>
        <pt x="494" y="569" on="0"/>
        <pt x="494" y="580" on="1"/>
        <pt x="494" y="592" on="0"/>
        <pt x="502" y="604" on="0"/>
        <pt x="515" y="610" on="0"/>
        <pt x="529" y="611" on="0"/>
        <pt x="535" y="611" on="1"/>
        <pt x="689" y="611" on="1"/>
        <pt x="695" y="611" on="0"/>
        <pt x="709" y="610" on="0"/>
        <pt x="721" y="604" on="0"/>
        <pt x="729" y="592" on="0"/>
        <pt x="729" y="580" on="1"/>
        <pt x="729" y="569" on="0"/>
        <pt x="721" y="557" on="0"/>
        <pt x="709" y="551" on="0"/>
        <pt x="695" y="550" on="0"/>
        <pt x="689" y="550" on="1"/>
        <pt x="648" y="550" on="1"/>
      </contour>
    </TTGlyph>
    <TTGlyph name="W" xMin="24" yMin="-8" xMax="1025" yMax="611">
      <contour>
        <pt x="793" y="26" on="1"/>
        <pt x="786" y="1" on="0"/>
        <pt x="756" y="-8" on="0"/>
        <pt x="739" y="-8" on="1"/>
        <pt x="711" y="-8" on="0"/>
        <pt x="692" y="7" on="0"/>
        <pt x="685" y="30" on="1"/>
        <pt x="524" y="562" on="1"/>
        <pt x="364" y="29" on="1"/>
        <pt x="356" y="2" on="0"/>
        <pt x="331" y="-8" on="0"/>
        <pt x="310" y="-8" on="1"/>
        <pt x="297" y="-8" on="0"/>
        <pt x="268" y="-3" on="0"/>
        <pt x="260" y="14" on="1"/>
        <pt x="99" y="550" on="1"/>
        <pt x="65" y="550" on="1"/>
        <pt x="59" y="550" on="0"/>
        <pt x="45" y="551" on="0"/>
        <pt x="33" y="557" on="0"/>
        <pt x="24" y="569" on="0"/>
        <pt x="24" y="581" on="1"/>
        <pt x="24" y="592" on="0"/>
        <pt x="33" y="604" on="0"/>
        <pt x="45" y="610" on="0"/>
        <pt x="59" y="611" on="0"/>
        <pt x="65" y="611" on="1"/>
        <pt x="200" y="611" on="1"/>
        <pt x="206" y="611" on="0"/>
        <pt x="220" y="610" on="0"/>
        <pt x="232" y="604" on="0"/>
        <pt x="241" y="592" on="0"/>
        <pt x="241" y="580" on="1"/>
        <pt x="241" y="569" on="0"/>
        <pt x="232" y="557" on="0"/>
        <pt x="220" y="551" on="0"/>
        <pt x="206" y="550" on="0"/>
        <pt x="200" y="550" on="1"/>
        <pt x="158" y="550" on="1"/>
        <pt x="310" y="43" on="1"/>
        <pt x="471" y="577" on="1"/>
        <pt x="475" y="590" on="0"/>
        <pt x="485" y="604" on="0"/>
        <pt x="498" y="610" on="0"/>
        <pt x="515" y="611" on="0"/>
        <pt x="525" y="611" on="1"/>
        <pt x="533" y="611" on="0"/>
        <pt x="549" y="610" on="0"/>
        <pt x="564" y="604" on="0"/>
        <pt x="575" y="590" on="0"/>
        <pt x="579" y="577" on="1"/>
        <pt x="739" y="43" on="1"/>
        <pt x="891" y="550" on="1"/>
        <pt x="849" y="550" on="1"/>
        <pt x="844" y="550" on="0"/>
        <pt x="830" y="551" on="0"/>
        <pt x="817" y="557" on="0"/>
        <pt x="808" y="569" on="0"/>
        <pt x="808" y="580" on="1"/>
        <pt x="808" y="592" on="0"/>
        <pt x="816" y="604" on="0"/>
        <pt x="829" y="610" on="0"/>
        <pt x="843" y="611" on="0"/>
        <pt x="849" y="611" on="1"/>
        <pt x="984" y="611" on="1"/>
        <pt x="990" y="611" on="0"/>
        <pt x="1004" y="610" on="0"/>
        <pt x="1016" y="604" on="0"/>
        <pt x="1025" y="592" on="0"/>
        <pt x="1025" y="580" on="1"/>
        <pt x="1025" y="569" on="0"/>
        <pt x="1016" y="557" on="0"/>
        <pt x="1004" y="551" on="0"/>
        <pt x="990" y="550" on="0"/>
        <pt x="984" y="550" on="1"/>
        <pt x="950" y="550" on="1"/>
      </contour>
    </TTGlyph>
    <TTGlyph name="X" xMin="42" yMin="0" xMax="713" yMax="611">
      <contour>
        <pt x="622" y="61" on="1"/>
        <pt x="672" y="61" on="1"/>
        <pt x="678" y="61" on="0"/>
        <pt x="692" y="60" on="0"/>
        <pt x="704" y="54" on="0"/>
        <pt x="713" y="42" on="0"/>
        <pt x="713" y="30" on="1"/>
        <pt x="713" y="19" on="0"/>
        <pt x="704" y="7" on="0"/>
        <pt x="691" y="1" on="0"/>
        <pt x="677" y="0" on="0"/>
        <pt x="672" y="0" on="1"/>
        <pt x="515" y="0" on="1"/>
        <pt x="509" y="0" on="0"/>
        <pt x="495" y="1" on="0"/>
        <pt x="483" y="7" on="0"/>
        <pt x="475" y="19" on="0"/>
        <pt x="475" y="30" on="1"/>
        <pt x="475" y="42" on="0"/>
        <pt x="483" y="54" on="0"/>
        <pt x="495" y="60" on="0"/>
        <pt x="509" y="61" on="0"/>
        <pt x="515" y="61" on="1"/>
        <pt x="536" y="61" on="1"/>
        <pt x="371" y="273" on="1"/>
        <pt x="216" y="61" on="1"/>
        <pt x="239" y="61" on="1"/>
        <pt x="245" y="61" on="0"/>
        <pt x="259" y="60" on="0"/>
        <pt x="272" y="54" on="0"/>
        <pt x="280" y="42" on="0"/>
        <pt x="280" y="30" on="1"/>
        <pt x="280" y="19" on="0"/>
        <pt x="271" y="7" on="0"/>
        <pt x="259" y="1" on="0"/>
        <pt x="245" y="0" on="0"/>
        <pt x="239" y="0" on="1"/>
        <pt x="83" y="0" on="1"/>
        <pt x="78" y="0" on="0"/>
        <pt x="64" y="1" on="0"/>
        <pt x="51" y="7" on="0"/>
        <pt x="42" y="19" on="0"/>
        <pt x="42" y="30" on="1"/>
        <pt x="42" y="42" on="0"/>
        <pt x="51" y="54" on="0"/>
        <pt x="63" y="60" on="0"/>
        <pt x="77" y="61" on="0"/>
        <pt x="83" y="61" on="1"/>
        <pt x="132" y="61" on="1"/>
        <pt x="332" y="324" on="1"/>
        <pt x="149" y="550" on="1"/>
        <pt x="100" y="550" on="1"/>
        <pt x="94" y="550" on="0"/>
        <pt x="80" y="551" on="0"/>
        <pt x="67" y="557" on="0"/>
        <pt x="59" y="569" on="0"/>
        <pt x="59" y="581" on="1"/>
        <pt x="59" y="592" on="0"/>
        <pt x="68" y="604" on="0"/>
        <pt x="80" y="610" on="0"/>
        <pt x="94" y="611" on="0"/>
        <pt x="100" y="611" on="1"/>
        <pt x="256" y="611" on="1"/>
        <pt x="262" y="611" on="0"/>
        <pt x="276" y="610" on="0"/>
        <pt x="289" y="604" on="0"/>
        <pt x="297" y="592" on="0"/>
        <pt x="297" y="580" on="1"/>
        <pt x="297" y="569" on="0"/>
        <pt x="288" y="557" on="0"/>
        <pt x="276" y="551" on="0"/>
        <pt x="262" y="550" on="0"/>
        <pt x="256" y="550" on="1"/>
        <pt x="237" y="550" on="1"/>
        <pt x="371" y="382" on="1"/>
        <pt x="496" y="550" on="1"/>
        <pt x="474" y="550" on="1"/>
        <pt x="468" y="550" on="0"/>
        <pt x="454" y="551" on="0"/>
        <pt x="442" y="557" on="0"/>
        <pt x="433" y="569" on="0"/>
        <pt x="433" y="581" on="1"/>
        <pt x="433" y="592" on="0"/>
        <pt x="442" y="604" on="0"/>
        <pt x="454" y="610" on="0"/>
        <pt x="468" y="611" on="0"/>
        <pt x="474" y="611" on="1"/>
        <pt x="630" y="611" on="1"/>
        <pt x="636" y="611" on="0"/>
        <pt x="650" y="610" on="0"/>
        <pt x="662" y="604" on="0"/>
        <pt x="671" y="592" on="0"/>
        <pt x="671" y="580" on="1"/>
        <pt x="671" y="569" on="0"/>
        <pt x="662" y="557" on="0"/>
        <pt x="650" y="551" on="0"/>
        <pt x="636" y="550" on="0"/>
        <pt x="630" y="550" on="1"/>
        <pt x="581" y="550" on="1"/>
        <pt x="410" y="324" on="1"/>
      </contour>
    </TTGlyph>
    <TTGlyph name="Xi" xMin="44" yMin="0" xMax="655" yMax="611">
      <contour>
        <pt x="119" y="552" on="1"/>
        <pt x="119" y="535" on="0"/>
        <pt x="110" y="510" on="0"/>
        <pt x="84" y="510" on="1"/>
        <pt x="71" y="510" on="0"/>
        <pt x="57" y="517" on="0"/>
        <pt x="51" y="529" on="0"/>
        <pt x="50" y="544" on="0"/>
        <pt x="50" y="551" on="1"/>
        <pt x="50" y="570" on="1"/>
        <pt x="50" y="595" on="0"/>
        <pt x="66" y="611" on="0"/>
        <pt x="91" y="611" on="1"/>
        <pt x="609" y="611" on="1"/>
        <pt x="635" y="611" on="0"/>
        <pt x="649" y="593" on="0"/>
        <pt x="649" y="570" on="1"/>
        <pt x="649" y="551" on="1"/>
        <pt x="649" y="544" on="0"/>
        <pt x="648" y="529" on="0"/>
        <pt x="642" y="517" on="0"/>
        <pt x="628" y="510" on="0"/>
        <pt x="615" y="510" on="1"/>
        <pt x="589" y="510" on="0"/>
        <pt x="580" y="535" on="0"/>
        <pt x="580" y="552" on="1"/>
      </contour>
      <contour>
        <pt x="85" y="0" on="1"/>
        <pt x="60" y="0" on="0"/>
        <pt x="44" y="16" on="0"/>
        <pt x="44" y="41" on="1"/>
        <pt x="44" y="65" on="1"/>
        <pt x="44" y="72" on="0"/>
        <pt x="45" y="87" on="0"/>
        <pt x="51" y="99" on="0"/>
        <pt x="65" y="106" on="0"/>
        <pt x="78" y="106" on="1"/>
        <pt x="104" y="106" on="0"/>
        <pt x="113" y="80" on="0"/>
        <pt x="113" y="59" on="1"/>
        <pt x="586" y="59" on="1"/>
        <pt x="586" y="80" on="0"/>
        <pt x="595" y="106" on="0"/>
        <pt x="621" y="106" on="1"/>
        <pt x="634" y="106" on="0"/>
        <pt x="648" y="99" on="0"/>
        <pt x="654" y="87" on="0"/>
        <pt x="655" y="72" on="0"/>
        <pt x="655" y="65" on="1"/>
        <pt x="655" y="41" on="1"/>
        <pt x="655" y="17" on="0"/>
        <pt x="640" y="0" on="0"/>
        <pt x="615" y="0" on="1"/>
      </contour>
      <contour>
        <pt x="484" y="347" on="1"/>
        <pt x="484" y="368" on="0"/>
        <pt x="493" y="394" on="0"/>
        <pt x="519" y="394" on="1"/>
        <pt x="532" y="394" on="0"/>
        <pt x="546" y="387" on="0"/>
        <pt x="552" y="375" on="0"/>
        <pt x="553" y="361" on="0"/>
        <pt x="553" y="353" on="1"/>
        <pt x="553" y="282" on="1"/>
        <pt x="553" y="275" on="0"/>
        <pt x="552" y="260" on="0"/>
        <pt x="546" y="248" on="0"/>
        <pt x="532" y="241" on="0"/>
        <pt x="519" y="241" on="1"/>
        <pt x="493" y="241" on="0"/>
        <pt x="484" y="267" on="0"/>
        <pt x="484" y="288" on="1"/>
        <pt x="215" y="288" on="1"/>
        <pt x="215" y="267" on="0"/>
        <pt x="206" y="241" on="0"/>
        <pt x="180" y="241" on="1"/>
        <pt x="155" y="241" on="0"/>
        <pt x="146" y="267" on="0"/>
        <pt x="146" y="282" on="1"/>
        <pt x="146" y="353" on="1"/>
        <pt x="146" y="368" on="0"/>
        <pt x="155" y="394" on="0"/>
        <pt x="180" y="394" on="1"/>
        <pt x="206" y="394" on="0"/>
        <pt x="215" y="368" on="0"/>
        <pt x="215" y="347" on="1"/>
      </contour>
    </TTGlyph>
    <TTGlyph name="Y" xMin="30" yMin="0" xMax="727" yMax="611">
      <contour>
        <pt x="413" y="244" on="1"/>
        <pt x="413" y="61" on="1"/>
        <pt x="467" y="61" on="1"/>
        <pt x="473" y="61" on="0"/>
        <pt x="487" y="60" on="0"/>
        <pt x="499" y="54" on="0"/>
        <pt x="507" y="42" on="0"/>
        <pt x="507" y="30" on="1"/>
        <pt x="507" y="19" on="0"/>
        <pt x="499" y="7" on="0"/>
        <pt x="487" y="1" on="0"/>
        <pt x="473" y="0" on="0"/>
        <pt x="467" y="0" on="1"/>
        <pt x="290" y="0" on="1"/>
        <pt x="284" y="0" on="0"/>
        <pt x="270" y="1" on="0"/>
        <pt x="258" y="7" on="0"/>
        <pt x="250" y="19" on="0"/>
        <pt x="250" y="30" on="1"/>
        <pt x="250" y="42" on="0"/>
        <pt x="258" y="54" on="0"/>
        <pt x="270" y="60" on="0"/>
        <pt x="284" y="61" on="0"/>
        <pt x="290" y="61" on="1"/>
        <pt x="344" y="61" on="1"/>
        <pt x="344" y="244" on="1"/>
        <pt x="119" y="550" on="1"/>
        <pt x="71" y="550" on="1"/>
        <pt x="65" y="550" on="0"/>
        <pt x="51" y="551" on="0"/>
        <pt x="39" y="557" on="0"/>
        <pt x="30" y="569" on="0"/>
        <pt x="30" y="581" on="1"/>
        <pt x="30" y="592" on="0"/>
        <pt x="39" y="604" on="0"/>
        <pt x="51" y="610" on="0"/>
        <pt x="65" y="611" on="0"/>
        <pt x="71" y="611" on="1"/>
        <pt x="227" y="611" on="1"/>
        <pt x="233" y="611" on="0"/>
        <pt x="247" y="610" on="0"/>
        <pt x="259" y="604" on="0"/>
        <pt x="268" y="592" on="0"/>
        <pt x="268" y="580" on="1"/>
        <pt x="268" y="569" on="0"/>
        <pt x="259" y="557" on="0"/>
        <pt x="247" y="551" on="0"/>
        <pt x="233" y="550" on="0"/>
        <pt x="227" y="550" on="1"/>
        <pt x="204" y="550" on="1"/>
        <pt x="378" y="314" on="1"/>
        <pt x="553" y="550" on="1"/>
        <pt x="530" y="550" on="1"/>
        <pt x="524" y="550" on="0"/>
        <pt x="510" y="551" on="0"/>
        <pt x="498" y="557" on="0"/>
        <pt x="489" y="569" on="0"/>
        <pt x="489" y="581" on="1"/>
        <pt x="489" y="592" on="0"/>
        <pt x="498" y="604" on="0"/>
        <pt x="510" y="610" on="0"/>
        <pt x="524" y="611" on="0"/>
        <pt x="530" y="611" on="1"/>
        <pt x="686" y="611" on="1"/>
        <pt x="692" y="611" on="0"/>
        <pt x="706" y="610" on="0"/>
        <pt x="718" y="604" on="0"/>
        <pt x="727" y="592" on="0"/>
        <pt x="727" y="580" on="1"/>
        <pt x="727" y="569" on="0"/>
        <pt x="718" y="557" on="0"/>
        <pt x="706" y="551" on="0"/>
        <pt x="692" y="550" on="0"/>
        <pt x="686" y="550" on="1"/>
        <pt x="638" y="550" on="1"/>
      </contour>
    </TTGlyph>
    <TTGlyph name="Z" xMin="58" yMin="0" xMax="589" yMax="611">
      <contour>
        <pt x="155" y="61" on="1"/>
        <pt x="520" y="61" on="1"/>
        <pt x="520" y="133" on="1"/>
        <pt x="520" y="148" on="0"/>
        <pt x="529" y="174" on="0"/>
        <pt x="555" y="174" on="1"/>
        <pt x="568" y="174" on="0"/>
        <pt x="582" y="167" on="0"/>
        <pt x="588" y="155" on="0"/>
        <pt x="589" y="140" on="0"/>
        <pt x="589" y="133" on="1"/>
        <pt x="589" y="41" on="1"/>
        <pt x="589" y="17" on="0"/>
        <pt x="574" y="0" on="0"/>
        <pt x="549" y="0" on="1"/>
        <pt x="99" y="0" on="1"/>
        <pt x="92" y="0" on="0"/>
        <pt x="77" y="1" on="0"/>
        <pt x="65" y="7" on="0"/>
        <pt x="58" y="21" on="0"/>
        <pt x="58" y="34" on="1"/>
        <pt x="58" y="46" on="0"/>
        <pt x="62" y="56" on="0"/>
        <pt x="70" y="65" on="1"/>
        <pt x="486" y="550" on="1"/>
        <pt x="142" y="550" on="1"/>
        <pt x="142" y="497" on="1"/>
        <pt x="142" y="482" on="0"/>
        <pt x="133" y="456" on="0"/>
        <pt x="107" y="456" on="1"/>
        <pt x="94" y="456" on="0"/>
        <pt x="80" y="463" on="0"/>
        <pt x="74" y="475" on="0"/>
        <pt x="73" y="490" on="0"/>
        <pt x="73" y="497" on="1"/>
        <pt x="73" y="570" on="1"/>
        <pt x="73" y="595" on="0"/>
        <pt x="89" y="611" on="0"/>
        <pt x="114" y="611" on="1"/>
        <pt x="542" y="611" on="1"/>
        <pt x="549" y="611" on="0"/>
        <pt x="564" y="610" on="0"/>
        <pt x="576" y="604" on="0"/>
        <pt x="583" y="590" on="0"/>
        <pt x="583" y="577" on="1"/>
        <pt x="583" y="565" on="0"/>
        <pt x="579" y="555" on="0"/>
        <pt x="571" y="546" on="1"/>
      </contour>
    </TTGlyph>
    <TTGlyph name="a" xMin="53" yMin="-6" xMax="509" yMax="440">
      <contour>
        <pt x="413" y="69" on="1"/>
        <pt x="420" y="66" on="0"/>
        <pt x="440" y="61" on="0"/>
        <pt x="469" y="61" on="1"/>
        <pt x="475" y="61" on="0"/>
        <pt x="489" y="60" on="0"/>
        <pt x="501" y="54" on="0"/>
        <pt x="509" y="42" on="0"/>
        <pt x="509" y="31" on="1"/>
        <pt x="509" y="8" on="0"/>
        <pt x="480" y="0" on="0"/>
        <pt x="460" y="0" on="1"/>
        <pt x="428" y="0" on="0"/>
        <pt x="370" y="10" on="0"/>
        <pt x="355" y="32" on="1"/>
        <pt x="335" y="18" on="0"/>
        <pt x="263" y="-6" on="0"/>
        <pt x="213" y="-6" on="1"/>
        <pt x="177" y="-6" on="0"/>
        <pt x="118" y="16" on="0"/>
        <pt x="76" y="53" on="0"/>
        <pt x="53" y="102" on="0"/>
        <pt x="53" y="128" on="1"/>
        <pt x="53" y="162" on="0"/>
        <pt x="93" y="216" on="0"/>
        <pt x="169" y="255" on="0"/>
        <pt x="277" y="276" on="0"/>
        <pt x="344" y="277" on="1"/>
        <pt x="344" y="331" on="0"/>
        <pt x="276" y="379" on="0"/>
        <pt x="221" y="379" on="1"/>
        <pt x="212" y="379" on="0"/>
        <pt x="193" y="379" on="0"/>
        <pt x="184" y="378" on="1"/>
        <pt x="172" y="376" on="0"/>
        <pt x="167" y="373" on="0"/>
        <pt x="167" y="367" on="1"/>
        <pt x="166" y="340" on="0"/>
        <pt x="136" y="321" on="0"/>
        <pt x="123" y="321" on="1"/>
        <pt x="105" y="321" on="0"/>
        <pt x="78" y="344" on="0"/>
        <pt x="78" y="367" on="1"/>
        <pt x="78" y="394" on="0"/>
        <pt x="111" y="424" on="0"/>
        <pt x="156" y="438" on="0"/>
        <pt x="204" y="440" on="0"/>
        <pt x="220" y="440" on="1"/>
        <pt x="272" y="440" on="0"/>
        <pt x="345" y="412" on="0"/>
        <pt x="392" y="368" on="0"/>
        <pt x="413" y="312" on="0"/>
        <pt x="413" y="285" on="1"/>
      </contour>
      <contour>
        <pt x="344" y="218" on="1"/>
        <pt x="226" y="214" on="0"/>
        <pt x="122" y="161" on="0"/>
        <pt x="122" y="128" on="1"/>
        <pt x="122" y="99" on="0"/>
        <pt x="176" y="55" on="0"/>
        <pt x="221" y="55" on="1"/>
        <pt x="224" y="55" on="0"/>
        <pt x="241" y="56" on="0"/>
        <pt x="264" y="59" on="0"/>
        <pt x="292" y="65" on="0"/>
        <pt x="305" y="71" on="1"/>
        <pt x="334" y="85" on="0"/>
        <pt x="344" y="117" on="0"/>
        <pt x="344" y="134" on="1"/>
      </contour>
    </TTGlyph>
    <TTGlyph name="acute" xMin="195" yMin="477" xMax="407" yMax="611">
      <contour>
        <pt x="246" y="482" on="1"/>
        <pt x="236" y="477" on="0"/>
        <pt x="228" y="477" on="1"/>
        <pt x="218" y="477" on="0"/>
        <pt x="206" y="487" on="0"/>
        <pt x="198" y="501" on="0"/>
        <pt x="195" y="514" on="0"/>
        <pt x="195" y="517" on="1"/>
        <pt x="195" y="531" on="0"/>
        <pt x="209" y="541" on="0"/>
        <pt x="220" y="546" on="1"/>
        <pt x="353" y="606" on="1"/>
        <pt x="361" y="610" on="0"/>
        <pt x="370" y="611" on="0"/>
        <pt x="372" y="611" on="1"/>
        <pt x="387" y="611" on="0"/>
        <pt x="407" y="591" on="0"/>
        <pt x="407" y="576" on="1"/>
        <pt x="407" y="568" on="0"/>
        <pt x="397" y="549" on="0"/>
        <pt x="379" y="541" on="1"/>
      </contour>
    </TTGlyph>
    <TTGlyph name="ae" xMin="53" yMin="-6" xMax="728" yMax="440">
      <contour>
        <pt x="415" y="191" on="1"/>
        <pt x="420" y="160" on="0"/>
        <pt x="450" y="110" on="0"/>
        <pt x="493" y="74" on="0"/>
        <pt x="545" y="55" on="0"/>
        <pt x="572" y="55" on="1"/>
        <pt x="577" y="55" on="0"/>
        <pt x="598" y="57" on="0"/>
        <pt x="625" y="68" on="0"/>
        <pt x="651" y="93" on="0"/>
        <pt x="660" y="115" on="1"/>
        <pt x="665" y="130" on="0"/>
        <pt x="682" y="137" on="0"/>
        <pt x="693" y="137" on="1"/>
        <pt x="695" y="137" on="0"/>
        <pt x="707" y="136" on="0"/>
        <pt x="719" y="131" on="0"/>
        <pt x="728" y="120" on="0"/>
        <pt x="728" y="109" on="1"/>
        <pt x="728" y="99" on="0"/>
        <pt x="710" y="61" on="0"/>
        <pt x="671" y="23" on="0"/>
        <pt x="610" y="-6" on="0"/>
        <pt x="566" y="-6" on="1"/>
        <pt x="550" y="-6" on="0"/>
        <pt x="509" y="0" on="0"/>
        <pt x="464" y="17" on="0"/>
        <pt x="417" y="48" on="0"/>
        <pt x="396" y="73" on="1"/>
        <pt x="384" y="48" on="0"/>
        <pt x="337" y="16" on="0"/>
        <pt x="284" y="0" on="0"/>
        <pt x="231" y="-6" on="0"/>
        <pt x="213" y="-6" on="1"/>
        <pt x="176" y="-6" on="0"/>
        <pt x="117" y="15" on="0"/>
        <pt x="75" y="49" on="0"/>
        <pt x="53" y="94" on="0"/>
        <pt x="53" y="118" on="1"/>
        <pt x="53" y="149" on="0"/>
        <pt x="87" y="191" on="0"/>
        <pt x="142" y="220" on="0"/>
        <pt x="208" y="237" on="0"/>
        <pt x="273" y="246" on="0"/>
        <pt x="328" y="248" on="0"/>
        <pt x="344" y="249" on="1"/>
        <pt x="344" y="279" on="1"/>
        <pt x="344" y="328" on="0"/>
        <pt x="280" y="379" on="0"/>
        <pt x="221" y="379" on="1"/>
        <pt x="210" y="379" on="0"/>
        <pt x="194" y="379" on="0"/>
        <pt x="183" y="378" on="1"/>
        <pt x="172" y="376" on="0"/>
        <pt x="167" y="373" on="0"/>
        <pt x="167" y="367" on="1"/>
        <pt x="166" y="340" on="0"/>
        <pt x="135" y="321" on="0"/>
        <pt x="123" y="321" on="1"/>
        <pt x="105" y="321" on="0"/>
        <pt x="78" y="344" on="0"/>
        <pt x="78" y="367" on="1"/>
        <pt x="78" y="394" on="0"/>
        <pt x="111" y="424" on="0"/>
        <pt x="156" y="438" on="0"/>
        <pt x="204" y="440" on="0"/>
        <pt x="220" y="440" on="1"/>
        <pt x="231" y="440" on="0"/>
        <pt x="273" y="438" on="0"/>
        <pt x="323" y="423" on="0"/>
        <pt x="373" y="390" on="0"/>
        <pt x="392" y="360" on="1"/>
        <pt x="413" y="386" on="0"/>
        <pt x="458" y="417" on="0"/>
        <pt x="500" y="434" on="0"/>
        <pt x="537" y="440" on="0"/>
        <pt x="551" y="440" on="1"/>
        <pt x="594" y="440" on="0"/>
        <pt x="660" y="408" on="0"/>
        <pt x="705" y="351" on="0"/>
        <pt x="728" y="274" on="0"/>
        <pt x="728" y="229" on="1"/>
        <pt x="728" y="201" on="0"/>
        <pt x="705" y="191" on="0"/>
        <pt x="688" y="191" on="1"/>
      </contour>
      <contour>
        <pt x="658" y="251" on="1"/>
        <pt x="656" y="276" on="0"/>
        <pt x="642" y="322" on="0"/>
        <pt x="617" y="358" on="0"/>
        <pt x="578" y="379" on="0"/>
        <pt x="551" y="379" on="1"/>
        <pt x="529" y="379" on="0"/>
        <pt x="485" y="361" on="0"/>
        <pt x="448" y="328" on="0"/>
        <pt x="422" y="280" on="0"/>
        <pt x="416" y="251" on="1"/>
      </contour>
      <contour>
        <pt x="345" y="189" on="1"/>
        <pt x="309" y="187" on="0"/>
        <pt x="246" y="183" on="0"/>
        <pt x="211" y="175" on="1"/>
        <pt x="205" y="174" on="0"/>
        <pt x="176" y="165" on="0"/>
        <pt x="146" y="152" on="0"/>
        <pt x="122" y="132" on="0"/>
        <pt x="122" y="119" on="1"/>
        <pt x="122" y="92" on="0"/>
        <pt x="177" y="55" on="0"/>
        <pt x="222" y="55" on="1"/>
        <pt x="230" y="55" on="0"/>
        <pt x="280" y="59" on="0"/>
        <pt x="306" y="70" on="1"/>
        <pt x="322" y="76" on="0"/>
        <pt x="340" y="92" on="0"/>
        <pt x="348" y="107" on="0"/>
        <pt x="349" y="121" on="0"/>
        <pt x="349" y="127" on="1"/>
        <pt x="349" y="132" on="0"/>
        <pt x="347" y="155" on="0"/>
      </contour>
    </TTGlyph>
    <TTGlyph name="ampersand" xMin="44" yMin="-11" xMax="764" yMax="622">
      <contour>
        <pt x="572" y="236" on="1"/>
        <pt x="561" y="218" on="0"/>
        <pt x="536" y="184" on="0"/>
        <pt x="523" y="167" on="1"/>
        <pt x="502" y="138" on="0"/>
        <pt x="471" y="104" on="0"/>
        <pt x="466" y="99" on="1"/>
        <pt x="506" y="72" on="0"/>
        <pt x="581" y="50" on="0"/>
        <pt x="610" y="50" on="1"/>
        <pt x="641" y="50" on="0"/>
        <pt x="698" y="76" on="0"/>
        <pt x="702" y="105" on="1"/>
        <pt x="702" y="109" on="0"/>
        <pt x="704" y="120" on="0"/>
        <pt x="710" y="131" on="0"/>
        <pt x="721" y="138" on="0"/>
        <pt x="730" y="138" on="1"/>
        <pt x="730" y="138" on="0"/>
        <pt x="739" y="137" on="0"/>
        <pt x="750" y="131" on="0"/>
        <pt x="758" y="118" on="0"/>
        <pt x="758" y="106" on="1"/>
        <pt x="758" y="85" on="0"/>
        <pt x="738" y="44" on="0"/>
        <pt x="700" y="10" on="0"/>
        <pt x="645" y="-11" on="0"/>
        <pt x="610" y="-11" on="1"/>
        <pt x="573" y="-11" on="0"/>
        <pt x="481" y="17" on="0"/>
        <pt x="421" y="58" on="1"/>
        <pt x="380" y="26" on="0"/>
        <pt x="286" y="-11" on="0"/>
        <pt x="234" y="-11" on="1"/>
        <pt x="195" y="-11" on="0"/>
        <pt x="126" y="11" on="0"/>
        <pt x="74" y="50" on="0"/>
        <pt x="44" y="105" on="0"/>
        <pt x="44" y="138" on="1"/>
        <pt x="44" y="176" on="0"/>
        <pt x="81" y="231" on="0"/>
        <pt x="103" y="247" on="1"/>
        <pt x="112" y="253" on="0"/>
        <pt x="140" y="274" on="0"/>
        <pt x="172" y="295" on="0"/>
        <pt x="201" y="316" on="0"/>
        <pt x="210" y="322" on="1"/>
        <pt x="193" y="361" on="0"/>
        <pt x="176" y="442" on="0"/>
        <pt x="176" y="479" on="1"/>
        <pt x="176" y="515" on="0"/>
        <pt x="202" y="569" on="0"/>
        <pt x="242" y="604" on="0"/>
        <pt x="291" y="622" on="0"/>
        <pt x="314" y="622" on="1"/>
        <pt x="344" y="622" on="0"/>
        <pt x="389" y="597" on="0"/>
        <pt x="419" y="557" on="0"/>
        <pt x="435" y="509" on="0"/>
        <pt x="435" y="485" on="1"/>
        <pt x="435" y="439" on="0"/>
        <pt x="359" y="353" on="0"/>
        <pt x="284" y="299" on="1"/>
        <pt x="302" y="266" on="0"/>
        <pt x="346" y="209" on="0"/>
        <pt x="386" y="165" on="0"/>
        <pt x="416" y="138" on="0"/>
        <pt x="419" y="135" on="1"/>
        <pt x="443" y="158" on="0"/>
        <pt x="482" y="205" on="0"/>
        <pt x="520" y="260" on="0"/>
        <pt x="562" y="327" on="0"/>
        <pt x="588" y="370" on="1"/>
        <pt x="512" y="370" on="1"/>
        <pt x="506" y="370" on="0"/>
        <pt x="492" y="371" on="0"/>
        <pt x="480" y="377" on="0"/>
        <pt x="472" y="389" on="0"/>
        <pt x="472" y="400" on="1"/>
        <pt x="472" y="412" on="0"/>
        <pt x="480" y="424" on="0"/>
        <pt x="492" y="430" on="0"/>
        <pt x="506" y="431" on="0"/>
        <pt x="512" y="431" on="1"/>
        <pt x="724" y="431" on="1"/>
        <pt x="730" y="431" on="0"/>
        <pt x="744" y="430" on="0"/>
        <pt x="756" y="424" on="0"/>
        <pt x="764" y="412" on="0"/>
        <pt x="764" y="400" on="1"/>
        <pt x="764" y="389" on="0"/>
        <pt x="756" y="377" on="0"/>
        <pt x="744" y="371" on="0"/>
        <pt x="730" y="370" on="0"/>
        <pt x="724" y="370" on="1"/>
        <pt x="655" y="370" on="1"/>
      </contour>
      <contour>
        <pt x="257" y="356" on="1"/>
        <pt x="274" y="368" on="0"/>
        <pt x="316" y="400" on="0"/>
        <pt x="354" y="435" on="0"/>
        <pt x="379" y="470" on="0"/>
        <pt x="379" y="485" on="1"/>
        <pt x="379" y="497" on="0"/>
        <pt x="371" y="523" on="0"/>
        <pt x="355" y="546" on="0"/>
        <pt x="331" y="561" on="0"/>
        <pt x="314" y="561" on="1"/>
        <pt x="304" y="561" on="0"/>
        <pt x="276" y="553" on="0"/>
        <pt x="250" y="534" on="0"/>
        <pt x="232" y="503" on="0"/>
        <pt x="232" y="479" on="1"/>
        <pt x="232" y="478" on="0"/>
        <pt x="233" y="456" on="0"/>
        <pt x="237" y="422" on="0"/>
        <pt x="248" y="379" on="0"/>
      </contour>
      <contour>
        <pt x="238" y="266" on="1"/>
        <pt x="205" y="245" on="0"/>
        <pt x="158" y="213" on="0"/>
        <pt x="127" y="185" on="0"/>
        <pt x="113" y="157" on="0"/>
        <pt x="113" y="140" on="1"/>
        <pt x="113" y="121" on="0"/>
        <pt x="132" y="88" on="0"/>
        <pt x="165" y="64" on="0"/>
        <pt x="210" y="50" on="0"/>
        <pt x="235" y="50" on="1"/>
        <pt x="262" y="50" on="0"/>
        <pt x="307" y="61" on="0"/>
        <pt x="342" y="77" on="0"/>
        <pt x="368" y="93" on="0"/>
        <pt x="375" y="98" on="1"/>
        <pt x="373" y="100" on="0"/>
        <pt x="358" y="114" on="0"/>
        <pt x="338" y="134" on="0"/>
        <pt x="316" y="159" on="0"/>
        <pt x="305" y="171" on="1"/>
        <pt x="291" y="188" on="0"/>
        <pt x="254" y="237" on="0"/>
      </contour>
    </TTGlyph>
    <TTGlyph name="asterisk" xMin="68" yMin="90" xMax="456" yMax="521">
      <contour>
        <pt x="323" y="305" on="1"/>
        <pt x="333" y="300" on="0"/>
        <pt x="365" y="283" on="0"/>
        <pt x="400" y="265" on="0"/>
        <pt x="433" y="247" on="0"/>
        <pt x="442" y="241" on="1"/>
        <pt x="444" y="240" on="0"/>
        <pt x="456" y="227" on="0"/>
        <pt x="456" y="214" on="1"/>
        <pt x="456" y="203" on="0"/>
        <pt x="438" y="181" on="0"/>
        <pt x="423" y="181" on="1"/>
        <pt x="417" y="181" on="0"/>
        <pt x="406" y="185" on="0"/>
        <pt x="386" y="197" on="1"/>
        <pt x="360" y="213" on="0"/>
        <pt x="341" y="225" on="0"/>
        <pt x="330" y="231" on="0"/>
        <pt x="315" y="240" on="0"/>
        <pt x="292" y="253" on="1"/>
        <pt x="293" y="243" on="0"/>
        <pt x="294" y="211" on="0"/>
        <pt x="295" y="176" on="0"/>
        <pt x="295" y="143" on="0"/>
        <pt x="295" y="132" on="1"/>
        <pt x="295" y="129" on="0"/>
        <pt x="294" y="115" on="0"/>
        <pt x="288" y="101" on="0"/>
        <pt x="274" y="90" on="0"/>
        <pt x="262" y="90" on="1"/>
        <pt x="250" y="90" on="0"/>
        <pt x="236" y="101" on="0"/>
        <pt x="230" y="115" on="0"/>
        <pt x="229" y="129" on="0"/>
        <pt x="229" y="132" on="1"/>
        <pt x="229" y="143" on="0"/>
        <pt x="229" y="176" on="0"/>
        <pt x="230" y="211" on="0"/>
        <pt x="231" y="243" on="0"/>
        <pt x="232" y="253" on="1"/>
        <pt x="108" y="181" on="1"/>
        <pt x="93" y="181" on="0"/>
        <pt x="77" y="190" on="0"/>
        <pt x="69" y="202" on="0"/>
        <pt x="68" y="213" on="0"/>
        <pt x="68" y="214" on="1"/>
        <pt x="68" y="229" on="0"/>
        <pt x="84" y="242" on="0"/>
        <pt x="93" y="247" on="1"/>
        <pt x="201" y="306" on="1"/>
        <pt x="92" y="365" on="1"/>
        <pt x="82" y="370" on="0"/>
        <pt x="68" y="383" on="0"/>
        <pt x="68" y="397" on="1"/>
        <pt x="68" y="408" on="0"/>
        <pt x="86" y="430" on="0"/>
        <pt x="101" y="430" on="1"/>
        <pt x="106" y="430" on="0"/>
        <pt x="113" y="428" on="0"/>
        <pt x="124" y="421" on="1"/>
        <pt x="232" y="358" on="1"/>
        <pt x="231" y="368" on="0"/>
        <pt x="230" y="400" on="0"/>
        <pt x="229" y="435" on="0"/>
        <pt x="229" y="468" on="0"/>
        <pt x="229" y="479" on="1"/>
        <pt x="229" y="482" on="0"/>
        <pt x="230" y="496" on="0"/>
        <pt x="236" y="510" on="0"/>
        <pt x="250" y="521" on="0"/>
        <pt x="262" y="521" on="1"/>
        <pt x="274" y="521" on="0"/>
        <pt x="288" y="510" on="0"/>
        <pt x="294" y="496" on="0"/>
        <pt x="295" y="482" on="0"/>
        <pt x="295" y="479" on="1"/>
        <pt x="295" y="468" on="0"/>
        <pt x="295" y="435" on="0"/>
        <pt x="294" y="400" on="0"/>
        <pt x="293" y="368" on="0"/>
        <pt x="292" y="358" on="1"/>
        <pt x="416" y="430" on="1"/>
        <pt x="431" y="430" on="0"/>
        <pt x="447" y="421" on="0"/>
        <pt x="455" y="409" on="0"/>
        <pt x="456" y="399" on="0"/>
        <pt x="456" y="397" on="1"/>
        <pt x="456" y="383" on="0"/>
        <pt x="440" y="369" on="0"/>
        <pt x="431" y="364" on="1"/>
      </contour>
    </TTGlyph>
    <TTGlyph name="at" xMin="58" yMin="-6" xMax="641" yMax="617">
      <contour>
        <pt x="557" y="472" on="1"/>
        <pt x="546" y="496" on="0"/>
        <pt x="520" y="524" on="0"/>
        <pt x="503" y="533" on="1"/>
        <pt x="481" y="546" on="0"/>
        <pt x="432" y="556" on="0"/>
        <pt x="406" y="556" on="1"/>
        <pt x="346" y="556" on="0"/>
        <pt x="240" y="517" on="0"/>
        <pt x="160" y="449" on="0"/>
        <pt x="114" y="357" on="0"/>
        <pt x="114" y="305" on="1"/>
        <pt x="114" y="255" on="0"/>
        <pt x="159" y="165" on="0"/>
        <pt x="238" y="96" on="0"/>
        <pt x="345" y="55" on="0"/>
        <pt x="407" y="55" on="1"/>
        <pt x="436" y="55" on="0"/>
        <pt x="522" y="71" on="0"/>
        <pt x="570" y="98" on="1"/>
        <pt x="582" y="106" on="0"/>
        <pt x="592" y="108" on="0"/>
        <pt x="603" y="108" on="1"/>
        <pt x="607" y="108" on="0"/>
        <pt x="620" y="107" on="0"/>
        <pt x="632" y="102" on="0"/>
        <pt x="641" y="91" on="0"/>
        <pt x="641" y="80" on="1"/>
        <pt x="641" y="67" on="0"/>
        <pt x="626" y="55" on="0"/>
        <pt x="613" y="48" on="1"/>
        <pt x="575" y="26" on="0"/>
        <pt x="471" y="-6" on="0"/>
        <pt x="408" y="-6" on="1"/>
        <pt x="334" y="-6" on="0"/>
        <pt x="206" y="44" on="0"/>
        <pt x="112" y="129" on="0"/>
        <pt x="58" y="242" on="0"/>
        <pt x="58" y="306" on="1"/>
        <pt x="58" y="370" on="0"/>
        <pt x="113" y="483" on="0"/>
        <pt x="207" y="568" on="0"/>
        <pt x="334" y="617" on="0"/>
        <pt x="406" y="617" on="1"/>
        <pt x="459" y="617" on="0"/>
        <pt x="535" y="588" on="0"/>
        <pt x="588" y="540" on="0"/>
        <pt x="619" y="478" on="0"/>
        <pt x="636" y="411" on="0"/>
        <pt x="641" y="344" on="0"/>
        <pt x="641" y="316" on="1"/>
        <pt x="641" y="261" on="0"/>
        <pt x="605" y="181" on="0"/>
        <pt x="550" y="130" on="0"/>
        <pt x="483" y="106" on="0"/>
        <pt x="452" y="106" on="1"/>
        <pt x="414" y="106" on="0"/>
        <pt x="346" y="136" on="0"/>
        <pt x="294" y="190" on="0"/>
        <pt x="264" y="263" on="0"/>
        <pt x="264" y="306" on="1"/>
        <pt x="264" y="347" on="0"/>
        <pt x="293" y="419" on="0"/>
        <pt x="344" y="473" on="0"/>
        <pt x="413" y="505" on="0"/>
        <pt x="453" y="505" on="1"/>
        <pt x="477" y="505" on="0"/>
        <pt x="531" y="490" on="0"/>
      </contour>
      <contour>
        <pt x="453" y="167" on="1"/>
        <pt x="479" y="167" on="0"/>
        <pt x="527" y="188" on="0"/>
        <pt x="563" y="226" on="0"/>
        <pt x="585" y="276" on="0"/>
        <pt x="585" y="306" on="1"/>
        <pt x="585" y="334" on="0"/>
        <pt x="565" y="384" on="0"/>
        <pt x="529" y="422" on="0"/>
        <pt x="481" y="444" on="0"/>
        <pt x="452" y="444" on="1"/>
        <pt x="426" y="444" on="0"/>
        <pt x="378" y="423" on="0"/>
        <pt x="342" y="385" on="0"/>
        <pt x="320" y="335" on="0"/>
        <pt x="320" y="305" on="1"/>
        <pt x="320" y="277" on="0"/>
        <pt x="340" y="227" on="0"/>
        <pt x="376" y="189" on="0"/>
        <pt x="425" y="167" on="0"/>
      </contour>
    </TTGlyph>
    <TTGlyph name="b" xMin="17" yMin="-6" xMax="538" yMax="611">
      <contour>
        <pt x="180" y="383" on="1"/>
        <pt x="214" y="412" on="0"/>
        <pt x="290" y="437" on="0"/>
        <pt x="325" y="437" on="1"/>
        <pt x="370" y="437" on="0"/>
        <pt x="447" y="402" on="0"/>
        <pt x="505" y="341" on="0"/>
        <pt x="538" y="261" on="0"/>
        <pt x="538" y="216" on="1"/>
        <pt x="538" y="169" on="0"/>
        <pt x="501" y="88" on="0"/>
        <pt x="440" y="28" on="0"/>
        <pt x="359" y="-6" on="0"/>
        <pt x="314" y="-6" on="1"/>
        <pt x="265" y="-6" on="0"/>
        <pt x="199" y="33" on="0"/>
        <pt x="180" y="53" on="1"/>
        <pt x="180" y="40" on="0"/>
        <pt x="179" y="20" on="0"/>
        <pt x="173" y="7" on="0"/>
        <pt x="159" y="0" on="0"/>
        <pt x="146" y="0" on="1"/>
        <pt x="120" y="0" on="0"/>
        <pt x="111" y="26" on="0"/>
        <pt x="111" y="41" on="1"/>
        <pt x="111" y="550" on="1"/>
        <pt x="57" y="550" on="1"/>
        <pt x="51" y="550" on="0"/>
        <pt x="37" y="551" on="0"/>
        <pt x="25" y="557" on="0"/>
        <pt x="17" y="569" on="0"/>
        <pt x="17" y="580" on="1"/>
        <pt x="17" y="592" on="0"/>
        <pt x="25" y="604" on="0"/>
        <pt x="37" y="610" on="0"/>
        <pt x="51" y="611" on="0"/>
        <pt x="57" y="611" on="1"/>
        <pt x="140" y="611" on="1"/>
        <pt x="166" y="611" on="0"/>
        <pt x="180" y="593" on="0"/>
        <pt x="180" y="570" on="1"/>
      </contour>
      <contour>
        <pt x="180" y="195" on="1"/>
        <pt x="180" y="174" on="0"/>
        <pt x="197" y="125" on="0"/>
        <pt x="230" y="83" on="0"/>
        <pt x="279" y="55" on="0"/>
        <pt x="310" y="55" on="1"/>
        <pt x="341" y="55" on="0"/>
        <pt x="399" y="79" on="0"/>
        <pt x="443" y="122" on="0"/>
        <pt x="469" y="181" on="0"/>
        <pt x="469" y="216" on="1"/>
        <pt x="469" y="248" on="0"/>
        <pt x="447" y="305" on="0"/>
        <pt x="407" y="350" on="0"/>
        <pt x="352" y="376" on="0"/>
        <pt x="319" y="376" on="1"/>
        <pt x="293" y="376" on="0"/>
        <pt x="243" y="358" on="0"/>
        <pt x="204" y="327" on="0"/>
        <pt x="180" y="286" on="0"/>
        <pt x="180" y="262" on="1"/>
      </contour>
    </TTGlyph>
    <TTGlyph name="bracketleft" xMin="110" yMin="-83" xMax="273" yMax="694">
      <contour>
        <pt x="179" y="-22" on="1"/>
        <pt x="233" y="-22" on="1"/>
        <pt x="239" y="-22" on="0"/>
        <pt x="253" y="-23" on="0"/>
        <pt x="265" y="-29" on="0"/>
        <pt x="273" y="-41" on="0"/>
        <pt x="273" y="-53" on="1"/>
        <pt x="273" y="-64" on="0"/>
        <pt x="265" y="-76" on="0"/>
        <pt x="253" y="-82" on="0"/>
        <pt x="239" y="-83" on="0"/>
        <pt x="233" y="-83" on="1"/>
        <pt x="150" y="-83" on="1"/>
        <pt x="124" y="-83" on="0"/>
        <pt x="110" y="-65" on="0"/>
        <pt x="110" y="-42" on="1"/>
        <pt x="110" y="653" on="1"/>
        <pt x="110" y="677" on="0"/>
        <pt x="125" y="694" on="0"/>
        <pt x="150" y="694" on="1"/>
        <pt x="233" y="694" on="1"/>
        <pt x="239" y="694" on="0"/>
        <pt x="253" y="693" on="0"/>
        <pt x="265" y="687" on="0"/>
        <pt x="273" y="675" on="0"/>
        <pt x="273" y="663" on="1"/>
        <pt x="273" y="652" on="0"/>
        <pt x="265" y="640" on="0"/>
        <pt x="253" y="634" on="0"/>
        <pt x="239" y="633" on="0"/>
        <pt x="233" y="633" on="1"/>
        <pt x="179" y="633" on="1"/>
      </contour>
    </TTGlyph>
    <TTGlyph name="bracketright" xMin="23" yMin="-83" xMax="186" yMax="694">
      <contour>
        <pt x="186" y="-42" on="1"/>
        <pt x="186" y="-66" on="0"/>
        <pt x="171" y="-83" on="0"/>
        <pt x="146" y="-83" on="1"/>
        <pt x="63" y="-83" on="1"/>
        <pt x="57" y="-83" on="0"/>
        <pt x="43" y="-82" on="0"/>
        <pt x="31" y="-76" on="0"/>
        <pt x="23" y="-64" on="0"/>
        <pt x="23" y="-52" on="1"/>
        <pt x="23" y="-41" on="0"/>
        <pt x="31" y="-29" on="0"/>
        <pt x="43" y="-23" on="0"/>
        <pt x="57" y="-22" on="0"/>
        <pt x="63" y="-22" on="1"/>
        <pt x="117" y="-22" on="1"/>
        <pt x="117" y="633" on="1"/>
        <pt x="63" y="633" on="1"/>
        <pt x="57" y="633" on="0"/>
        <pt x="43" y="634" on="0"/>
        <pt x="31" y="640" on="0"/>
        <pt x="23" y="652" on="0"/>
        <pt x="23" y="664" on="1"/>
        <pt x="23" y="675" on="0"/>
        <pt x="31" y="687" on="0"/>
        <pt x="43" y="693" on="0"/>
        <pt x="57" y="694" on="0"/>
        <pt x="63" y="694" on="1"/>
        <pt x="146" y="694" on="1"/>
        <pt x="172" y="694" on="0"/>
        <pt x="186" y="676" on="0"/>
        <pt x="186" y="653" on="1"/>
      </contour>
    </TTGlyph>
    <TTGlyph name="breve" xMin="86" yMin="498" xMax="438" yMax="611">
      <contour>
        <pt x="438" y="580" on="1"/>
        <pt x="438" y="549" on="0"/>
        <pt x="402" y="516" on="0"/>
        <pt x="348" y="501" on="0"/>
        <pt x="287" y="498" on="0"/>
        <pt x="262" y="498" on="1"/>
        <pt x="237" y="498" on="0"/>
        <pt x="176" y="501" on="0"/>
        <pt x="122" y="516" on="0"/>
        <pt x="86" y="549" on="0"/>
        <pt x="86" y="580" on="1"/>
        <pt x="86" y="611" on="0"/>
        <pt x="117" y="611" on="1"/>
        <pt x="135" y="611" on="0"/>
        <pt x="145" y="591" on="0"/>
        <pt x="147" y="582" on="1"/>
        <pt x="149" y="575" on="0"/>
        <pt x="173" y="566" on="0"/>
        <pt x="207" y="563" on="0"/>
        <pt x="246" y="562" on="0"/>
        <pt x="262" y="562" on="1"/>
        <pt x="278" y="562" on="0"/>
        <pt x="316" y="563" on="0"/>
        <pt x="351" y="566" on="0"/>
        <pt x="375" y="575" on="0"/>
        <pt x="377" y="582" on="1"/>
        <pt x="379" y="591" on="0"/>
        <pt x="389" y="611" on="0"/>
        <pt x="407" y="611" on="1"/>
        <pt x="438" y="611" on="0"/>
      </contour>
    </TTGlyph>
    <TTGlyph name="c" xMin="44" yMin="-6" xMax="437" yMax="440">
      <contour>
        <pt x="437" y="109" on="1"/>
        <pt x="437" y="103" on="0"/>
        <pt x="422" y="65" on="0"/>
        <pt x="383" y="25" on="0"/>
        <pt x="316" y="-6" on="0"/>
        <pt x="264" y="-6" on="1"/>
        <pt x="217" y="-6" on="0"/>
        <pt x="136" y="30" on="0"/>
        <pt x="77" y="90" on="0"/>
        <pt x="44" y="171" on="0"/>
        <pt x="44" y="216" on="1"/>
        <pt x="44" y="249" on="0"/>
        <pt x="68" y="327" on="0"/>
        <pt x="123" y="395" on="0"/>
        <pt x="212" y="440" on="0"/>
        <pt x="276" y="440" on="1"/>
        <pt x="293" y="440" on="0"/>
        <pt x="344" y="438" on="0"/>
        <pt x="391" y="424" on="0"/>
        <pt x="425" y="394" on="0"/>
        <pt x="425" y="367" on="1"/>
        <pt x="425" y="345" on="0"/>
        <pt x="398" y="321" on="0"/>
        <pt x="380" y="321" on="1"/>
        <pt x="362" y="321" on="0"/>
        <pt x="337" y="344" on="0"/>
        <pt x="336" y="370" on="1"/>
        <pt x="336" y="373" on="0"/>
        <pt x="323" y="377" on="0"/>
        <pt x="305" y="379" on="0"/>
        <pt x="284" y="379" on="0"/>
        <pt x="276" y="379" on="1"/>
        <pt x="225" y="379" on="0"/>
        <pt x="162" y="342" on="0"/>
        <pt x="126" y="289" on="0"/>
        <pt x="113" y="234" on="0"/>
        <pt x="113" y="216" on="1"/>
        <pt x="113" y="182" on="0"/>
        <pt x="138" y="123" on="0"/>
        <pt x="181" y="80" on="0"/>
        <pt x="238" y="55" on="0"/>
        <pt x="270" y="55" on="1"/>
        <pt x="298" y="55" on="0"/>
        <pt x="334" y="70" on="0"/>
        <pt x="356" y="90" on="0"/>
        <pt x="367" y="110" on="0"/>
        <pt x="369" y="115" on="1"/>
        <pt x="374" y="130" on="0"/>
        <pt x="390" y="137" on="0"/>
        <pt x="402" y="137" on="1"/>
        <pt x="404" y="137" on="0"/>
        <pt x="416" y="136" on="0"/>
        <pt x="428" y="131" on="0"/>
        <pt x="437" y="120" on="0"/>
      </contour>
    </TTGlyph>
    <TTGlyph name="caron" xMin="101" yMin="454" xMax="423" yMax="572">
      <contour>
        <pt x="372" y="567" on="1"/>
        <pt x="381" y="571" on="0"/>
        <pt x="388" y="572" on="0"/>
        <pt x="390" y="572" on="1"/>
        <pt x="401" y="572" on="0"/>
        <pt x="414" y="561" on="0"/>
        <pt x="421" y="546" on="0"/>
        <pt x="423" y="534" on="0"/>
        <pt x="423" y="532" on="1"/>
        <pt x="423" y="518" on="0"/>
        <pt x="406" y="507" on="0"/>
        <pt x="397" y="503" on="1"/>
        <pt x="278" y="458" on="1"/>
        <pt x="274" y="456" on="0"/>
        <pt x="267" y="454" on="0"/>
        <pt x="262" y="454" on="1"/>
        <pt x="257" y="454" on="0"/>
        <pt x="185" y="480" on="0"/>
        <pt x="126" y="503" on="1"/>
        <pt x="118" y="506" on="0"/>
        <pt x="101" y="517" on="0"/>
        <pt x="101" y="532" on="1"/>
        <pt x="101" y="534" on="0"/>
        <pt x="103" y="546" on="0"/>
        <pt x="110" y="561" on="0"/>
        <pt x="123" y="572" on="0"/>
        <pt x="134" y="572" on="1"/>
        <pt x="135" y="572" on="0"/>
        <pt x="144" y="571" on="0"/>
        <pt x="155" y="566" on="1"/>
        <pt x="262" y="522" on="1"/>
      </contour>
    </TTGlyph>
    <TTGlyph name="cedilla" xMin="140" yMin="-208" xMax="384" yMax="45">
      <contour>
        <pt x="228" y="6" on="1"/>
        <pt x="228" y="20" on="0"/>
        <pt x="237" y="45" on="0"/>
        <pt x="262" y="45" on="1"/>
        <pt x="288" y="45" on="0"/>
        <pt x="297" y="18" on="0"/>
        <pt x="297" y="-10" on="1"/>
        <pt x="333" y="-20" on="0"/>
        <pt x="384" y="-68" on="0"/>
        <pt x="384" y="-107" on="1"/>
        <pt x="384" y="-145" on="0"/>
        <pt x="341" y="-186" on="0"/>
        <pt x="277" y="-205" on="0"/>
        <pt x="203" y="-208" on="0"/>
        <pt x="171" y="-208" on="1"/>
        <pt x="163" y="-208" on="0"/>
        <pt x="140" y="-195" on="0"/>
        <pt x="140" y="-177" on="1"/>
        <pt x="140" y="-154" on="0"/>
        <pt x="173" y="-146" on="0"/>
        <pt x="196" y="-146" on="1"/>
        <pt x="233" y="-146" on="0"/>
        <pt x="279" y="-140" on="0"/>
        <pt x="305" y="-130" on="0"/>
        <pt x="315" y="-115" on="0"/>
        <pt x="315" y="-106" on="1"/>
        <pt x="315" y="-89" on="0"/>
        <pt x="283" y="-68" on="0"/>
        <pt x="258" y="-66" on="1"/>
        <pt x="235" y="-64" on="0"/>
        <pt x="228" y="-40" on="0"/>
        <pt x="228" y="-27" on="1"/>
      </contour>
    </TTGlyph>
    <TTGlyph name="circumflex" xMin="100" yMin="471" xMax="424" yMax="611">
      <contour>
        <pt x="403" y="538" on="1"/>
        <pt x="412" y="533" on="0"/>
        <pt x="424" y="523" on="0"/>
        <pt x="424" y="510" on="1"/>
        <pt x="424" y="507" on="0"/>
        <pt x="420" y="495" on="0"/>
        <pt x="412" y="481" on="0"/>
        <pt x="399" y="471" on="0"/>
        <pt x="390" y="471" on="1"/>
        <pt x="385" y="471" on="0"/>
        <pt x="379" y="473" on="0"/>
        <pt x="368" y="480" on="1"/>
        <pt x="262" y="541" on="1"/>
        <pt x="156" y="479" on="1"/>
        <pt x="147" y="474" on="0"/>
        <pt x="137" y="471" on="0"/>
        <pt x="134" y="471" on="1"/>
        <pt x="125" y="471" on="0"/>
        <pt x="112" y="481" on="0"/>
        <pt x="104" y="495" on="0"/>
        <pt x="100" y="507" on="0"/>
        <pt x="100" y="510" on="1"/>
        <pt x="100" y="523" on="0"/>
        <pt x="112" y="533" on="0"/>
        <pt x="123" y="539" on="1"/>
        <pt x="245" y="605" on="1"/>
        <pt x="252" y="609" on="0"/>
        <pt x="257" y="611" on="0"/>
        <pt x="262" y="611" on="1"/>
        <pt x="264" y="611" on="0"/>
        <pt x="274" y="609" on="0"/>
        <pt x="283" y="604" on="1"/>
      </contour>
    </TTGlyph>
    <TTGlyph name="colon" xMin="96" yMin="0" xMax="196" yMax="431">
      <contour>
        <pt x="196" y="381" on="1"/>
        <pt x="196" y="360" on="0"/>
        <pt x="167" y="331" on="0"/>
        <pt x="146" y="331" on="1"/>
        <pt x="125" y="331" on="0"/>
        <pt x="96" y="360" on="0"/>
        <pt x="96" y="381" on="1"/>
        <pt x="96" y="402" on="0"/>
        <pt x="125" y="431" on="0"/>
        <pt x="146" y="431" on="1"/>
        <pt x="167" y="431" on="0"/>
        <pt x="196" y="402" on="0"/>
      </contour>
      <contour>
        <pt x="196" y="50" on="1"/>
        <pt x="196" y="29" on="0"/>
        <pt x="167" y="0" on="0"/>
        <pt x="146" y="0" on="1"/>
        <pt x="125" y="0" on="0"/>
        <pt x="96" y="29" on="0"/>
        <pt x="96" y="50" on="1"/>
        <pt x="96" y="71" on="0"/>
        <pt x="125" y="100" on="0"/>
        <pt x="146" y="100" on="1"/>
        <pt x="167" y="100" on="0"/>
        <pt x="196" y="71" on="0"/>
      </contour>
    </TTGlyph>
    <TTGlyph name="comma" xMin="87" yMin="-139" xMax="208" yMax="100">
      <contour>
        <pt x="146" y="0" on="1"/>
        <pt x="128" y="2" on="0"/>
        <pt x="107" y="16" on="0"/>
        <pt x="98" y="33" on="0"/>
        <pt x="96" y="48" on="0"/>
        <pt x="96" y="50" on="1"/>
        <pt x="96" y="70" on="0"/>
        <pt x="123" y="100" on="0"/>
        <pt x="146" y="100" on="1"/>
        <pt x="170" y="100" on="0"/>
        <pt x="208" y="58" on="0"/>
        <pt x="208" y="10" on="1"/>
        <pt x="208" y="-23" on="0"/>
        <pt x="186" y="-78" on="0"/>
        <pt x="157" y="-117" on="0"/>
        <pt x="127" y="-139" on="0"/>
        <pt x="119" y="-139" on="1"/>
        <pt x="106" y="-139" on="0"/>
        <pt x="87" y="-119" on="0"/>
        <pt x="87" y="-108" on="1"/>
        <pt x="87" y="-97" on="0"/>
        <pt x="97" y="-87" on="0"/>
        <pt x="102" y="-82" on="1"/>
        <pt x="131" y="-58" on="0"/>
        <pt x="145" y="-13" on="0"/>
      </contour>
    </TTGlyph>
    <TTGlyph name="d" xMin="44" yMin="-6" xMax="565" yMax="611">
      <contour>
        <pt x="471" y="61" on="1"/>
        <pt x="525" y="61" on="1"/>
        <pt x="531" y="61" on="0"/>
        <pt x="545" y="60" on="0"/>
        <pt x="557" y="54" on="0"/>
        <pt x="565" y="42" on="0"/>
        <pt x="565" y="30" on="1"/>
        <pt x="565" y="19" on="0"/>
        <pt x="557" y="7" on="0"/>
        <pt x="545" y="1" on="0"/>
        <pt x="531" y="0" on="0"/>
        <pt x="525" y="0" on="1"/>
        <pt x="442" y="0" on="1"/>
        <pt x="416" y="0" on="0"/>
        <pt x="402" y="18" on="0"/>
        <pt x="402" y="41" on="1"/>
        <pt x="402" y="58" on="1"/>
        <pt x="393" y="48" on="0"/>
        <pt x="365" y="25" on="0"/>
        <pt x="329" y="6" on="0"/>
        <pt x="284" y="-6" on="0"/>
        <pt x="257" y="-6" on="1"/>
        <pt x="214" y="-6" on="0"/>
        <pt x="136" y="28" on="0"/>
        <pt x="78" y="88" on="0"/>
        <pt x="44" y="169" on="0"/>
        <pt x="44" y="215" on="1"/>
        <pt x="44" y="262" on="0"/>
        <pt x="79" y="343" on="0"/>
        <pt x="140" y="403" on="0"/>
        <pt x="222" y="437" on="0"/>
        <pt x="268" y="437" on="1"/>
        <pt x="302" y="437" on="0"/>
        <pt x="371" y="413" on="0"/>
        <pt x="402" y="386" on="1"/>
        <pt x="402" y="550" on="1"/>
        <pt x="348" y="550" on="1"/>
        <pt x="342" y="550" on="0"/>
        <pt x="328" y="551" on="0"/>
        <pt x="316" y="557" on="0"/>
        <pt x="308" y="569" on="0"/>
        <pt x="308" y="581" on="1"/>
        <pt x="308" y="592" on="0"/>
        <pt x="316" y="604" on="0"/>
        <pt x="328" y="610" on="0"/>
        <pt x="342" y="611" on="0"/>
        <pt x="348" y="611" on="1"/>
        <pt x="431" y="611" on="1"/>
        <pt x="457" y="611" on="0"/>
        <pt x="471" y="593" on="0"/>
        <pt x="471" y="570" on="1"/>
      </contour>
      <contour>
        <pt x="402" y="263" on="1"/>
        <pt x="402" y="285" on="0"/>
        <pt x="381" y="326" on="0"/>
        <pt x="346" y="357" on="0"/>
        <pt x="299" y="376" on="0"/>
        <pt x="273" y="376" on="1"/>
        <pt x="241" y="376" on="0"/>
        <pt x="183" y="351" on="0"/>
        <pt x="139" y="308" on="0"/>
        <pt x="113" y="249" on="0"/>
        <pt x="113" y="215" on="1"/>
        <pt x="113" y="182" on="0"/>
        <pt x="136" y="124" on="0"/>
        <pt x="177" y="81" on="0"/>
        <pt x="231" y="55" on="0"/>
        <pt x="262" y="55" on="1"/>
        <pt x="294" y="55" on="0"/>
        <pt x="346" y="83" on="0"/>
        <pt x="382" y="125" on="0"/>
        <pt x="402" y="175" on="0"/>
        <pt x="402" y="197" on="1"/>
      </contour>
    </TTGlyph>
    <TTGlyph name="dieresis" xMin="110" yMin="512" xMax="414" yMax="612">
      <contour>
        <pt x="210" y="562" on="1"/>
        <pt x="210" y="538" on="0"/>
        <pt x="179" y="512" on="0"/>
        <pt x="160" y="512" on="1"/>
        <pt x="137" y="512" on="0"/>
        <pt x="110" y="544" on="0"/>
        <pt x="110" y="562" on="1"/>
        <pt x="110" y="580" on="0"/>
        <pt x="137" y="612" on="0"/>
        <pt x="160" y="612" on="1"/>
        <pt x="179" y="612" on="0"/>
        <pt x="210" y="586" on="0"/>
      </contour>
      <contour>
        <pt x="414" y="562" on="1"/>
        <pt x="414" y="544" on="0"/>
        <pt x="387" y="512" on="0"/>
        <pt x="364" y="512" on="1"/>
        <pt x="345" y="512" on="0"/>
        <pt x="314" y="538" on="0"/>
        <pt x="314" y="562" on="1"/>
        <pt x="314" y="586" on="0"/>
        <pt x="345" y="612" on="0"/>
        <pt x="364" y="612" on="1"/>
        <pt x="387" y="612" on="0"/>
        <pt x="414" y="580" on="0"/>
      </contour>
    </TTGlyph>
    <TTGlyph name="dollar" xMin="58" yMin="-83" xMax="466" yMax="694">
      <contour>
        <pt x="293" y="346" on="1"/>
        <pt x="347" y="336" on="0"/>
        <pt x="415" y="292" on="0"/>
        <pt x="453" y="241" on="0"/>
        <pt x="466" y="189" on="0"/>
        <pt x="466" y="171" on="1"/>
        <pt x="466" y="145" on="0"/>
        <pt x="446" y="89" on="0"/>
        <pt x="404" y="40" on="0"/>
        <pt x="339" y="3" on="0"/>
        <pt x="293" y="-4" on="1"/>
        <pt x="293" y="-42" on="1"/>
        <pt x="293" y="-48" on="0"/>
        <pt x="292" y="-62" on="0"/>
        <pt x="286" y="-75" on="0"/>
        <pt x="274" y="-83" on="0"/>
        <pt x="263" y="-83" on="1"/>
        <pt x="251" y="-83" on="0"/>
        <pt x="239" y="-75" on="0"/>
        <pt x="233" y="-62" on="0"/>
        <pt x="232" y="-48" on="0"/>
        <pt x="232" y="-42" on="1"/>
        <pt x="232" y="-5" on="1"/>
        <pt x="189" y="-1" on="0"/>
        <pt x="123" y="30" on="0"/>
        <pt x="80" y="77" on="0"/>
        <pt x="58" y="135" on="0"/>
        <pt x="58" y="166" on="1"/>
        <pt x="58" y="183" on="0"/>
        <pt x="70" y="203" on="0"/>
        <pt x="85" y="213" on="0"/>
        <pt x="100" y="216" on="0"/>
        <pt x="103" y="216" on="1"/>
        <pt x="118" y="216" on="0"/>
        <pt x="147" y="192" on="0"/>
        <pt x="147" y="171" on="1"/>
        <pt x="147" y="154" on="0"/>
        <pt x="136" y="139" on="0"/>
        <pt x="131" y="136" on="1"/>
        <pt x="142" y="98" on="0"/>
        <pt x="198" y="62" on="0"/>
        <pt x="232" y="57" on="1"/>
        <pt x="232" y="289" on="1"/>
        <pt x="169" y="301" on="0"/>
        <pt x="99" y="348" on="0"/>
        <pt x="65" y="399" on="0"/>
        <pt x="58" y="443" on="0"/>
        <pt x="58" y="452" on="1"/>
        <pt x="58" y="480" on="0"/>
        <pt x="81" y="534" on="0"/>
        <pt x="126" y="579" on="0"/>
        <pt x="191" y="610" on="0"/>
        <pt x="232" y="615" on="1"/>
        <pt x="232" y="653" on="1"/>
        <pt x="232" y="659" on="0"/>
        <pt x="233" y="673" on="0"/>
        <pt x="239" y="686" on="0"/>
        <pt x="251" y="694" on="0"/>
        <pt x="263" y="694" on="1"/>
        <pt x="274" y="694" on="0"/>
        <pt x="286" y="686" on="0"/>
        <pt x="292" y="673" on="0"/>
        <pt x="293" y="659" on="0"/>
        <pt x="293" y="653" on="1"/>
        <pt x="293" y="616" on="1"/>
        <pt x="337" y="612" on="0"/>
        <pt x="402" y="583" on="0"/>
        <pt x="445" y="540" on="0"/>
        <pt x="466" y="486" on="0"/>
        <pt x="466" y="457" on="1"/>
        <pt x="466" y="429" on="0"/>
        <pt x="437" y="408" on="0"/>
        <pt x="421" y="408" on="1"/>
        <pt x="401" y="408" on="0"/>
        <pt x="377" y="435" on="0"/>
        <pt x="377" y="452" on="1"/>
        <pt x="377" y="473" on="0"/>
        <pt x="392" y="485" on="1"/>
        <pt x="386" y="504" on="0"/>
        <pt x="363" y="529" on="0"/>
        <pt x="335" y="545" on="0"/>
        <pt x="305" y="553" on="0"/>
        <pt x="293" y="554" on="1"/>
      </contour>
      <contour>
        <pt x="232" y="554" on="1"/>
        <pt x="209" y="550" on="0"/>
        <pt x="169" y="532" on="0"/>
        <pt x="139" y="506" on="0"/>
        <pt x="122" y="474" on="0"/>
        <pt x="122" y="456" on="1"/>
        <pt x="122" y="437" on="0"/>
        <pt x="140" y="405" on="0"/>
        <pt x="171" y="380" on="0"/>
        <pt x="211" y="363" on="0"/>
        <pt x="232" y="359" on="1"/>
      </contour>
      <contour>
        <pt x="293" y="58" on="1"/>
        <pt x="341" y="66" on="0"/>
        <pt x="402" y="129" on="0"/>
        <pt x="402" y="167" on="1"/>
        <pt x="402" y="205" on="0"/>
        <pt x="343" y="266" on="0"/>
        <pt x="293" y="276" on="1"/>
      </contour>
    </TTGlyph>
    <TTGlyph name="dotaccent" xMin="95" yMin="512" xMax="196" yMax="612">
      <contour>
        <pt x="196" y="562" on="1"/>
        <pt x="196" y="543" on="0"/>
        <pt x="168" y="512" on="0"/>
        <pt x="145" y="512" on="1"/>
        <pt x="125" y="512" on="0"/>
        <pt x="95" y="542" on="0"/>
        <pt x="95" y="562" on="1"/>
        <pt x="95" y="581" on="0"/>
        <pt x="123" y="612" on="0"/>
        <pt x="146" y="612" on="1"/>
        <pt x="166" y="612" on="0"/>
        <pt x="196" y="582" on="0"/>
      </contour>
    </TTGlyph>
    <TTGlyph name="dotlessi" xMin="17" yMin="0" xMax="265" yMax="431">
      <contour>
        <pt x="180" y="61" on="1"/>
        <pt x="224" y="61" on="1"/>
        <pt x="230" y="61" on="0"/>
        <pt x="244" y="60" on="0"/>
        <pt x="257" y="54" on="0"/>
        <pt x="265" y="42" on="0"/>
        <pt x="265" y="30" on="1"/>
        <pt x="265" y="19" on="0"/>
        <pt x="257" y="7" on="0"/>
        <pt x="245" y="1" on="0"/>
        <pt x="231" y="0" on="0"/>
        <pt x="225" y="0" on="1"/>
        <pt x="57" y="0" on="1"/>
        <pt x="51" y="0" on="0"/>
        <pt x="37" y="1" on="0"/>
        <pt x="25" y="7" on="0"/>
        <pt x="17" y="19" on="0"/>
        <pt x="17" y="30" on="1"/>
        <pt x="17" y="42" on="0"/>
        <pt x="25" y="54" on="0"/>
        <pt x="37" y="60" on="0"/>
        <pt x="51" y="61" on="0"/>
        <pt x="57" y="61" on="1"/>
        <pt x="111" y="61" on="1"/>
        <pt x="111" y="370" on="1"/>
        <pt x="62" y="370" on="1"/>
        <pt x="56" y="370" on="0"/>
        <pt x="42" y="371" on="0"/>
        <pt x="30" y="377" on="0"/>
        <pt x="21" y="389" on="0"/>
        <pt x="21" y="401" on="1"/>
        <pt x="21" y="412" on="0"/>
        <pt x="30" y="424" on="0"/>
        <pt x="42" y="430" on="0"/>
        <pt x="56" y="431" on="0"/>
        <pt x="62" y="431" on="1"/>
        <pt x="140" y="431" on="1"/>
        <pt x="166" y="431" on="0"/>
        <pt x="180" y="413" on="0"/>
        <pt x="180" y="390" on="1"/>
      </contour>
    </TTGlyph>
    <TTGlyph name="e" xMin="38" yMin="-6" xMax="437" yMax="440">
      <contour>
        <pt x="109" y="191" on="1"/>
        <pt x="114" y="160" on="0"/>
        <pt x="144" y="110" on="0"/>
        <pt x="188" y="74" on="0"/>
        <pt x="241" y="55" on="0"/>
        <pt x="269" y="55" on="1"/>
        <pt x="281" y="55" on="0"/>
        <pt x="310" y="60" on="0"/>
        <pt x="337" y="74" on="0"/>
        <pt x="362" y="97" on="0"/>
        <pt x="369" y="115" on="1"/>
        <pt x="374" y="130" on="0"/>
        <pt x="390" y="137" on="0"/>
        <pt x="402" y="137" on="1"/>
        <pt x="404" y="137" on="0"/>
        <pt x="416" y="136" on="0"/>
        <pt x="428" y="131" on="0"/>
        <pt x="437" y="120" on="0"/>
        <pt x="437" y="109" on="1"/>
        <pt x="437" y="99" on="0"/>
        <pt x="418" y="61" on="0"/>
        <pt x="377" y="23" on="0"/>
        <pt x="311" y="-6" on="0"/>
        <pt x="263" y="-6" on="1"/>
        <pt x="216" y="-6" on="0"/>
        <pt x="134" y="29" on="0"/>
        <pt x="73" y="90" on="0"/>
        <pt x="38" y="172" on="0"/>
        <pt x="38" y="218" on="1"/>
        <pt x="38" y="263" on="0"/>
        <pt x="70" y="344" on="0"/>
        <pt x="127" y="404" on="0"/>
        <pt x="204" y="440" on="0"/>
        <pt x="248" y="440" on="1"/>
        <pt x="294" y="440" on="0"/>
        <pt x="365" y="407" on="0"/>
        <pt x="413" y="350" on="0"/>
        <pt x="437" y="273" on="0"/>
        <pt x="437" y="228" on="1"/>
        <pt x="437" y="214" on="0"/>
        <pt x="430" y="199" on="0"/>
        <pt x="419" y="192" on="0"/>
        <pt x="405" y="191" on="0"/>
        <pt x="397" y="191" on="1"/>
      </contour>
      <contour>
        <pt x="366" y="251" on="1"/>
        <pt x="363" y="290" on="0"/>
        <pt x="339" y="339" on="0"/>
        <pt x="306" y="368" on="0"/>
        <pt x="267" y="379" on="0"/>
        <pt x="248" y="379" on="1"/>
        <pt x="223" y="379" on="0"/>
        <pt x="178" y="360" on="0"/>
        <pt x="141" y="326" on="0"/>
        <pt x="115" y="279" on="0"/>
        <pt x="110" y="251" on="1"/>
      </contour>
    </TTGlyph>
    <TTGlyph name="eight" xMin="44" yMin="-11" xMax="480" yMax="622">
      <contour>
        <pt x="341" y="329" on="1"/>
        <pt x="369" y="321" on="0"/>
        <pt x="419" y="292" on="0"/>
        <pt x="457" y="252" on="0"/>
        <pt x="480" y="202" on="0"/>
        <pt x="480" y="174" on="1"/>
        <pt x="480" y="138" on="0"/>
        <pt x="447" y="71" on="0"/>
        <pt x="389" y="20" on="0"/>
        <pt x="309" y="-11" on="0"/>
        <pt x="262" y="-11" on="1"/>
        <pt x="215" y="-11" on="0"/>
        <pt x="135" y="20" on="0"/>
        <pt x="77" y="71" on="0"/>
        <pt x="44" y="138" on="0"/>
        <pt x="44" y="174" on="1"/>
        <pt x="44" y="202" on="0"/>
        <pt x="66" y="252" on="0"/>
        <pt x="104" y="292" on="0"/>
        <pt x="155" y="321" on="0"/>
        <pt x="183" y="329" on="1"/>
        <pt x="123" y="349" on="0"/>
        <pt x="58" y="419" on="0"/>
        <pt x="58" y="462" on="1"/>
        <pt x="58" y="492" on="0"/>
        <pt x="88" y="550" on="0"/>
        <pt x="142" y="595" on="0"/>
        <pt x="217" y="622" on="0"/>
        <pt x="262" y="622" on="1"/>
        <pt x="307" y="622" on="0"/>
        <pt x="382" y="595" on="0"/>
        <pt x="436" y="550" on="0"/>
        <pt x="466" y="493" on="0"/>
        <pt x="466" y="462" on="1"/>
        <pt x="466" y="419" on="0"/>
        <pt x="401" y="349" on="0"/>
      </contour>
      <contour>
        <pt x="262" y="360" on="1"/>
        <pt x="289" y="360" on="0"/>
        <pt x="338" y="376" on="0"/>
        <pt x="375" y="403" on="0"/>
        <pt x="397" y="440" on="0"/>
        <pt x="397" y="461" on="1"/>
        <pt x="397" y="481" on="0"/>
        <pt x="377" y="517" on="0"/>
        <pt x="341" y="544" on="0"/>
        <pt x="291" y="561" on="0"/>
        <pt x="262" y="561" on="1"/>
        <pt x="232" y="561" on="0"/>
        <pt x="183" y="544" on="0"/>
        <pt x="147" y="517" on="0"/>
        <pt x="127" y="481" on="0"/>
        <pt x="127" y="461" on="1"/>
        <pt x="127" y="440" on="0"/>
        <pt x="149" y="403" on="0"/>
        <pt x="186" y="376" on="0"/>
        <pt x="235" y="360" on="0"/>
      </contour>
      <contour>
        <pt x="262" y="50" on="1"/>
        <pt x="293" y="50" on="0"/>
        <pt x="347" y="70" on="0"/>
        <pt x="388" y="104" on="0"/>
        <pt x="411" y="149" on="0"/>
        <pt x="411" y="175" on="1"/>
        <pt x="411" y="198" on="0"/>
        <pt x="390" y="242" on="0"/>
        <pt x="352" y="277" on="0"/>
        <pt x="297" y="299" on="0"/>
        <pt x="262" y="299" on="1"/>
        <pt x="228" y="299" on="0"/>
        <pt x="173" y="277" on="0"/>
        <pt x="134" y="242" on="0"/>
        <pt x="113" y="198" on="0"/>
        <pt x="113" y="175" on="1"/>
        <pt x="113" y="149" on="0"/>
        <pt x="136" y="104" on="0"/>
        <pt x="177" y="70" on="0"/>
        <pt x="231" y="50" on="0"/>
      </contour>
    </TTGlyph>
    <TTGlyph name="emdash" xMin="0" yMin="236" xMax="1049" yMax="297">
      <contour>
        <pt x="40" y="236" on="1"/>
        <pt x="34" y="236" on="0"/>
        <pt x="20" y="237" on="0"/>
        <pt x="8" y="243" on="0"/>
        <pt x="0" y="255" on="0"/>
        <pt x="0" y="266" on="1"/>
        <pt x="0" y="278" on="0"/>
        <pt x="8" y="290" on="0"/>
        <pt x="20" y="296" on="0"/>
        <pt x="34" y="297" on="0"/>
        <pt x="40" y="297" on="1"/>
        <pt x="1009" y="297" on="1"/>
        <pt x="1015" y="297" on="0"/>
        <pt x="1029" y="296" on="0"/>
        <pt x="1041" y="290" on="0"/>
        <pt x="1049" y="278" on="0"/>
        <pt x="1049" y="266" on="1"/>
        <pt x="1049" y="255" on="0"/>
        <pt x="1041" y="243" on="0"/>
        <pt x="1029" y="237" on="0"/>
        <pt x="1015" y="236" on="0"/>
        <pt x="1009" y="236" on="1"/>
      </contour>
    </TTGlyph>
    <TTGlyph name="endash" xMin="0" yMin="236" xMax="524" yMax="297">
      <contour>
        <pt x="40" y="236" on="1"/>
        <pt x="34" y="236" on="0"/>
        <pt x="20" y="237" on="0"/>
        <pt x="8" y="243" on="0"/>
        <pt x="0" y="255" on="0"/>
        <pt x="0" y="266" on="1"/>
        <pt x="0" y="278" on="0"/>
        <pt x="8" y="290" on="0"/>
        <pt x="20" y="296" on="0"/>
        <pt x="34" y="297" on="0"/>
        <pt x="40" y="297" on="1"/>
        <pt x="484" y="297" on="1"/>
        <pt x="490" y="297" on="0"/>
        <pt x="504" y="296" on="0"/>
        <pt x="516" y="290" on="0"/>
        <pt x="524" y="278" on="0"/>
        <pt x="524" y="266" on="1"/>
        <pt x="524" y="255" on="0"/>
        <pt x="516" y="243" on="0"/>
        <pt x="504" y="237" on="0"/>
        <pt x="490" y="236" on="0"/>
        <pt x="484" y="236" on="1"/>
      </contour>
    </TTGlyph>
    <TTGlyph name="equal" xMin="58" yMin="195" xMax="758" yMax="417">
      <contour>
        <pt x="103" y="347" on="1"/>
        <pt x="99" y="347" on="0"/>
        <pt x="83" y="348" on="0"/>
        <pt x="69" y="355" on="0"/>
        <pt x="58" y="369" on="0"/>
        <pt x="58" y="382" on="1"/>
        <pt x="58" y="395" on="0"/>
        <pt x="70" y="409" on="0"/>
        <pt x="87" y="416" on="0"/>
        <pt x="104" y="417" on="0"/>
        <pt x="109" y="417" on="1"/>
        <pt x="707" y="417" on="1"/>
        <pt x="712" y="417" on="0"/>
        <pt x="730" y="416" on="0"/>
        <pt x="746" y="409" on="0"/>
        <pt x="758" y="395" on="0"/>
        <pt x="758" y="382" on="1"/>
        <pt x="758" y="369" on="0"/>
        <pt x="747" y="355" on="0"/>
        <pt x="733" y="348" on="0"/>
        <pt x="718" y="347" on="0"/>
        <pt x="713" y="347" on="1"/>
      </contour>
      <contour>
        <pt x="109" y="195" on="1"/>
        <pt x="104" y="195" on="0"/>
        <pt x="87" y="196" on="0"/>
        <pt x="70" y="203" on="0"/>
        <pt x="58" y="217" on="0"/>
        <pt x="58" y="230" on="1"/>
        <pt x="58" y="243" on="0"/>
        <pt x="69" y="257" on="0"/>
        <pt x="83" y="264" on="0"/>
        <pt x="99" y="265" on="0"/>
        <pt x="103" y="265" on="1"/>
        <pt x="713" y="265" on="1"/>
        <pt x="718" y="265" on="0"/>
        <pt x="733" y="264" on="0"/>
        <pt x="747" y="257" on="0"/>
        <pt x="758" y="243" on="0"/>
        <pt x="758" y="230" on="1"/>
        <pt x="758" y="217" on="0"/>
        <pt x="746" y="203" on="0"/>
        <pt x="730" y="196" on="0"/>
        <pt x="712" y="195" on="0"/>
        <pt x="707" y="195" on="1"/>
      </contour>
    </TTGlyph>
    <TTGlyph name="exclam" xMin="96" yMin="0" xMax="196" yMax="622">
      <contour>
        <pt x="196" y="565" on="1"/>
        <pt x="196" y="525" on="0"/>
        <pt x="192" y="444" on="0"/>
        <pt x="191" y="405" on="1"/>
        <pt x="190" y="364" on="0"/>
        <pt x="189" y="273" on="0"/>
        <pt x="187" y="232" on="1"/>
        <pt x="186" y="202" on="0"/>
        <pt x="173" y="184" on="0"/>
        <pt x="146" y="184" on="1"/>
        <pt x="141" y="184" on="0"/>
        <pt x="128" y="185" on="0"/>
        <pt x="115" y="190" on="0"/>
        <pt x="106" y="200" on="0"/>
        <pt x="106" y="210" on="1"/>
        <pt x="104" y="241" on="0"/>
        <pt x="104" y="300" on="0"/>
        <pt x="103" y="331" on="1"/>
        <pt x="102" y="348" on="0"/>
        <pt x="100" y="416" on="0"/>
        <pt x="98" y="489" on="0"/>
        <pt x="96" y="552" on="0"/>
        <pt x="96" y="565" on="1"/>
        <pt x="96" y="585" on="0"/>
        <pt x="109" y="608" on="0"/>
        <pt x="126" y="619" on="0"/>
        <pt x="143" y="622" on="0"/>
        <pt x="146" y="622" on="1"/>
        <pt x="149" y="622" on="0"/>
        <pt x="166" y="619" on="0"/>
        <pt x="183" y="608" on="0"/>
        <pt x="196" y="585" on="0"/>
      </contour>
      <contour>
        <pt x="196" y="50" on="1"/>
        <pt x="196" y="29" on="0"/>
        <pt x="167" y="0" on="0"/>
        <pt x="146" y="0" on="1"/>
        <pt x="125" y="0" on="0"/>
        <pt x="96" y="29" on="0"/>
        <pt x="96" y="50" on="1"/>
        <pt x="96" y="71" on="0"/>
        <pt x="125" y="100" on="0"/>
        <pt x="146" y="100" on="1"/>
        <pt x="167" y="100" on="0"/>
        <pt x="196" y="71" on="0"/>
      </contour>
    </TTGlyph>
    <TTGlyph name="exclamdown" xMin="96" yMin="-233" xMax="196" yMax="389">
      <contour>
        <pt x="196" y="339" on="1"/>
        <pt x="196" y="318" on="0"/>
        <pt x="167" y="289" on="0"/>
        <pt x="146" y="289" on="1"/>
        <pt x="125" y="289" on="0"/>
        <pt x="96" y="318" on="0"/>
        <pt x="96" y="339" on="1"/>
        <pt x="96" y="360" on="0"/>
        <pt x="125" y="389" on="0"/>
        <pt x="146" y="389" on="1"/>
        <pt x="167" y="389" on="0"/>
        <pt x="196" y="360" on="0"/>
      </contour>
      <contour>
        <pt x="189" y="58" on="1"/>
        <pt x="190" y="41" on="0"/>
        <pt x="192" y="-27" on="0"/>
        <pt x="194" y="-100" on="0"/>
        <pt x="196" y="-163" on="0"/>
        <pt x="196" y="-176" on="1"/>
        <pt x="196" y="-196" on="0"/>
        <pt x="183" y="-219" on="0"/>
        <pt x="166" y="-230" on="0"/>
        <pt x="149" y="-233" on="0"/>
        <pt x="146" y="-233" on="1"/>
        <pt x="143" y="-233" on="0"/>
        <pt x="126" y="-230" on="0"/>
        <pt x="109" y="-219" on="0"/>
        <pt x="96" y="-196" on="0"/>
        <pt x="96" y="-176" on="1"/>
        <pt x="96" y="-136" on="0"/>
        <pt x="100" y="-55" on="0"/>
        <pt x="101" y="-16" on="1"/>
        <pt x="102" y="25" on="0"/>
        <pt x="103" y="116" on="0"/>
        <pt x="105" y="157" on="1"/>
        <pt x="106" y="172" on="0"/>
        <pt x="109" y="191" on="0"/>
        <pt x="117" y="201" on="0"/>
        <pt x="133" y="205" on="0"/>
        <pt x="146" y="205" on="1"/>
        <pt x="151" y="205" on="0"/>
        <pt x="164" y="204" on="0"/>
        <pt x="176" y="200" on="0"/>
        <pt x="186" y="189" on="0"/>
        <pt x="186" y="180" on="1"/>
      </contour>
    </TTGlyph>
    <TTGlyph name="f" xMin="17" yMin="0" xMax="362" yMax="617">
      <contour>
        <pt x="180" y="61" on="1"/>
        <pt x="258" y="61" on="1"/>
        <pt x="264" y="61" on="0"/>
        <pt x="278" y="60" on="0"/>
        <pt x="290" y="54" on="0"/>
        <pt x="298" y="42" on="0"/>
        <pt x="298" y="30" on="1"/>
        <pt x="298" y="19" on="0"/>
        <pt x="290" y="7" on="0"/>
        <pt x="278" y="1" on="0"/>
        <pt x="264" y="0" on="0"/>
        <pt x="258" y="0" on="1"/>
        <pt x="57" y="0" on="1"/>
        <pt x="51" y="0" on="0"/>
        <pt x="37" y="1" on="0"/>
        <pt x="25" y="7" on="0"/>
        <pt x="17" y="19" on="0"/>
        <pt x="17" y="30" on="1"/>
        <pt x="17" y="42" on="0"/>
        <pt x="25" y="54" on="0"/>
        <pt x="37" y="60" on="0"/>
        <pt x="51" y="61" on="0"/>
        <pt x="57" y="61" on="1"/>
        <pt x="111" y="61" on="1"/>
        <pt x="111" y="370" on="1"/>
        <pt x="68" y="370" on="1"/>
        <pt x="62" y="370" on="0"/>
        <pt x="48" y="371" on="0"/>
        <pt x="36" y="377" on="0"/>
        <pt x="28" y="389" on="0"/>
        <pt x="28" y="400" on="1"/>
        <pt x="28" y="412" on="0"/>
        <pt x="36" y="424" on="0"/>
        <pt x="49" y="430" on="0"/>
        <pt x="63" y="431" on="0"/>
        <pt x="69" y="431" on="1"/>
        <pt x="111" y="431" on="1"/>
        <pt x="111" y="484" on="1"/>
        <pt x="111" y="517" on="0"/>
        <pt x="137" y="566" on="0"/>
        <pt x="181" y="600" on="0"/>
        <pt x="237" y="617" on="0"/>
        <pt x="267" y="617" on="1"/>
        <pt x="273" y="617" on="0"/>
        <pt x="304" y="615" on="0"/>
        <pt x="337" y="604" on="0"/>
        <pt x="362" y="580" on="0"/>
        <pt x="362" y="557" on="1"/>
        <pt x="362" y="536" on="0"/>
        <pt x="334" y="513" on="0"/>
        <pt x="319" y="513" on="1"/>
        <pt x="306" y="513" on="0"/>
        <pt x="289" y="525" on="0"/>
        <pt x="279" y="541" on="0"/>
        <pt x="275" y="555" on="0"/>
        <pt x="275" y="556" on="1"/>
        <pt x="264" y="556" on="0"/>
        <pt x="232" y="554" on="0"/>
        <pt x="202" y="539" on="0"/>
        <pt x="180" y="507" on="0"/>
        <pt x="180" y="478" on="1"/>
        <pt x="180" y="431" on="1"/>
        <pt x="261" y="431" on="1"/>
        <pt x="267" y="431" on="0"/>
        <pt x="281" y="430" on="0"/>
        <pt x="293" y="424" on="0"/>
        <pt x="301" y="412" on="0"/>
        <pt x="301" y="400" on="1"/>
        <pt x="301" y="389" on="0"/>
        <pt x="293" y="377" on="0"/>
        <pt x="281" y="371" on="0"/>
        <pt x="267" y="370" on="0"/>
        <pt x="261" y="370" on="1"/>
        <pt x="180" y="370" on="1"/>
      </contour>
    </TTGlyph>
    <TTGlyph name="f_f" xMin="17" yMin="0" xMax="653" yMax="617">
      <contour>
        <pt x="471" y="61" on="1"/>
        <pt x="549" y="61" on="1"/>
        <pt x="555" y="61" on="0"/>
        <pt x="569" y="60" on="0"/>
        <pt x="581" y="54" on="0"/>
        <pt x="589" y="42" on="0"/>
        <pt x="589" y="30" on="1"/>
        <pt x="589" y="19" on="0"/>
        <pt x="581" y="7" on="0"/>
        <pt x="569" y="1" on="0"/>
        <pt x="555" y="0" on="0"/>
        <pt x="549" y="0" on="1"/>
        <pt x="348" y="0" on="1"/>
        <pt x="342" y="0" on="0"/>
        <pt x="328" y="1" on="0"/>
        <pt x="316" y="7" on="0"/>
        <pt x="308" y="19" on="0"/>
        <pt x="308" y="31" on="1"/>
        <pt x="308" y="42" on="0"/>
        <pt x="316" y="54" on="0"/>
        <pt x="328" y="60" on="0"/>
        <pt x="342" y="61" on="0"/>
        <pt x="348" y="61" on="1"/>
        <pt x="402" y="61" on="1"/>
        <pt x="402" y="484" on="1"/>
        <pt x="402" y="491" on="0"/>
        <pt x="402" y="505" on="0"/>
        <pt x="404" y="512" on="1"/>
        <pt x="390" y="521" on="0"/>
        <pt x="386" y="545" on="0"/>
        <pt x="386" y="553" on="1"/>
        <pt x="369" y="555" on="0"/>
        <pt x="341" y="556" on="0"/>
        <pt x="333" y="556" on="1"/>
        <pt x="317" y="556" on="0"/>
        <pt x="262" y="552" on="0"/>
        <pt x="233" y="540" on="1"/>
        <pt x="213" y="532" on="0"/>
        <pt x="192" y="516" on="0"/>
        <pt x="182" y="500" on="0"/>
        <pt x="180" y="485" on="0"/>
        <pt x="180" y="477" on="1"/>
        <pt x="180" y="431" on="1"/>
        <pt x="261" y="431" on="1"/>
        <pt x="267" y="431" on="0"/>
        <pt x="281" y="430" on="0"/>
        <pt x="293" y="424" on="0"/>
        <pt x="301" y="412" on="0"/>
        <pt x="301" y="400" on="1"/>
        <pt x="301" y="389" on="0"/>
        <pt x="293" y="377" on="0"/>
        <pt x="281" y="371" on="0"/>
        <pt x="267" y="370" on="0"/>
        <pt x="261" y="370" on="1"/>
        <pt x="180" y="370" on="1"/>
        <pt x="180" y="61" on="1"/>
        <pt x="234" y="61" on="1"/>
        <pt x="240" y="61" on="0"/>
        <pt x="254" y="60" on="0"/>
        <pt x="266" y="54" on="0"/>
        <pt x="274" y="42" on="0"/>
        <pt x="274" y="30" on="1"/>
        <pt x="274" y="19" on="0"/>
        <pt x="266" y="7" on="0"/>
        <pt x="254" y="1" on="0"/>
        <pt x="240" y="0" on="0"/>
        <pt x="234" y="0" on="1"/>
        <pt x="57" y="0" on="1"/>
        <pt x="51" y="0" on="0"/>
        <pt x="37" y="1" on="0"/>
        <pt x="25" y="7" on="0"/>
        <pt x="17" y="19" on="0"/>
        <pt x="17" y="30" on="1"/>
        <pt x="17" y="42" on="0"/>
        <pt x="25" y="54" on="0"/>
        <pt x="37" y="60" on="0"/>
        <pt x="51" y="61" on="0"/>
        <pt x="57" y="61" on="1"/>
        <pt x="111" y="61" on="1"/>
        <pt x="111" y="370" on="1"/>
        <pt x="68" y="370" on="1"/>
        <pt x="62" y="370" on="0"/>
        <pt x="48" y="371" on="0"/>
        <pt x="36" y="377" on="0"/>
        <pt x="28" y="389" on="0"/>
        <pt x="28" y="400" on="1"/>
        <pt x="28" y="412" on="0"/>
        <pt x="36" y="424" on="0"/>
        <pt x="49" y="430" on="0"/>
        <pt x="63" y="431" on="0"/>
        <pt x="69" y="431" on="1"/>
        <pt x="111" y="431" on="1"/>
        <pt x="111" y="483" on="1"/>
        <pt x="111" y="519" on="0"/>
        <pt x="151" y="570" on="0"/>
        <pt x="216" y="602" on="0"/>
        <pt x="298" y="617" on="0"/>
        <pt x="340" y="617" on="1"/>
        <pt x="353" y="617" on="0"/>
        <pt x="386" y="616" on="0"/>
        <pt x="418" y="610" on="0"/>
        <pt x="447" y="598" on="0"/>
        <pt x="457" y="587" on="1"/>
        <pt x="485" y="607" on="0"/>
        <pt x="541" y="617" on="0"/>
        <pt x="558" y="617" on="1"/>
        <pt x="564" y="617" on="0"/>
        <pt x="595" y="615" on="0"/>
        <pt x="628" y="604" on="0"/>
        <pt x="653" y="580" on="0"/>
        <pt x="653" y="557" on="1"/>
        <pt x="653" y="536" on="0"/>
        <pt x="625" y="513" on="0"/>
        <pt x="610" y="513" on="1"/>
        <pt x="597" y="513" on="0"/>
        <pt x="580" y="525" on="0"/>
        <pt x="570" y="541" on="0"/>
        <pt x="566" y="555" on="0"/>
        <pt x="566" y="556" on="1"/>
        <pt x="555" y="556" on="0"/>
        <pt x="523" y="554" on="0"/>
        <pt x="493" y="539" on="0"/>
        <pt x="471" y="507" on="0"/>
        <pt x="471" y="478" on="1"/>
        <pt x="471" y="431" on="1"/>
        <pt x="552" y="431" on="1"/>
        <pt x="558" y="431" on="0"/>
        <pt x="572" y="430" on="0"/>
        <pt x="584" y="424" on="0"/>
        <pt x="592" y="412" on="0"/>
        <pt x="592" y="400" on="1"/>
        <pt x="592" y="389" on="0"/>
        <pt x="584" y="377" on="0"/>
        <pt x="572" y="371" on="0"/>
        <pt x="558" y="370" on="0"/>
        <pt x="552" y="370" on="1"/>
        <pt x="471" y="370" on="1"/>
      </contour>
    </TTGlyph>
    <TTGlyph name="f_f_i" xMin="17" yMin="0" xMax="857" yMax="617">
      <contour>
        <pt x="763" y="61" on="1"/>
        <pt x="817" y="61" on="1"/>
        <pt x="823" y="61" on="0"/>
        <pt x="837" y="60" on="0"/>
        <pt x="849" y="54" on="0"/>
        <pt x="857" y="42" on="0"/>
        <pt x="857" y="30" on="1"/>
        <pt x="857" y="19" on="0"/>
        <pt x="849" y="7" on="0"/>
        <pt x="837" y="1" on="0"/>
        <pt x="823" y="0" on="0"/>
        <pt x="817" y="0" on="1"/>
        <pt x="640" y="0" on="1"/>
        <pt x="634" y="0" on="0"/>
        <pt x="620" y="1" on="0"/>
        <pt x="608" y="7" on="0"/>
        <pt x="600" y="19" on="0"/>
        <pt x="600" y="31" on="1"/>
        <pt x="600" y="42" on="0"/>
        <pt x="608" y="54" on="0"/>
        <pt x="620" y="60" on="0"/>
        <pt x="634" y="61" on="0"/>
        <pt x="640" y="61" on="1"/>
        <pt x="694" y="61" on="1"/>
        <pt x="694" y="370" on="1"/>
        <pt x="472" y="370" on="1"/>
        <pt x="472" y="61" on="1"/>
        <pt x="526" y="61" on="1"/>
        <pt x="532" y="61" on="0"/>
        <pt x="546" y="60" on="0"/>
        <pt x="558" y="54" on="0"/>
        <pt x="566" y="42" on="0"/>
        <pt x="566" y="30" on="1"/>
        <pt x="566" y="19" on="0"/>
        <pt x="558" y="7" on="0"/>
        <pt x="546" y="1" on="0"/>
        <pt x="532" y="0" on="0"/>
        <pt x="526" y="0" on="1"/>
        <pt x="349" y="0" on="1"/>
        <pt x="343" y="0" on="0"/>
        <pt x="329" y="1" on="0"/>
        <pt x="317" y="7" on="0"/>
        <pt x="309" y="19" on="0"/>
        <pt x="309" y="30" on="1"/>
        <pt x="309" y="42" on="0"/>
        <pt x="317" y="54" on="0"/>
        <pt x="329" y="60" on="0"/>
        <pt x="343" y="61" on="0"/>
        <pt x="349" y="61" on="1"/>
        <pt x="403" y="61" on="1"/>
        <pt x="403" y="370" on="1"/>
        <pt x="180" y="370" on="1"/>
        <pt x="180" y="61" on="1"/>
        <pt x="234" y="61" on="1"/>
        <pt x="240" y="61" on="0"/>
        <pt x="254" y="60" on="0"/>
        <pt x="266" y="54" on="0"/>
        <pt x="274" y="42" on="0"/>
        <pt x="274" y="30" on="1"/>
        <pt x="274" y="19" on="0"/>
        <pt x="266" y="7" on="0"/>
        <pt x="254" y="1" on="0"/>
        <pt x="240" y="0" on="0"/>
        <pt x="234" y="0" on="1"/>
        <pt x="57" y="0" on="1"/>
        <pt x="51" y="0" on="0"/>
        <pt x="37" y="1" on="0"/>
        <pt x="25" y="7" on="0"/>
        <pt x="17" y="19" on="0"/>
        <pt x="17" y="30" on="1"/>
        <pt x="17" y="42" on="0"/>
        <pt x="25" y="54" on="0"/>
        <pt x="37" y="60" on="0"/>
        <pt x="51" y="61" on="0"/>
        <pt x="57" y="61" on="1"/>
        <pt x="111" y="61" on="1"/>
        <pt x="111" y="370" on="1"/>
        <pt x="68" y="370" on="1"/>
        <pt x="62" y="370" on="0"/>
        <pt x="48" y="371" on="0"/>
        <pt x="36" y="377" on="0"/>
        <pt x="28" y="389" on="0"/>
        <pt x="28" y="400" on="1"/>
        <pt x="28" y="412" on="0"/>
        <pt x="36" y="424" on="0"/>
        <pt x="49" y="430" on="0"/>
        <pt x="63" y="431" on="0"/>
        <pt x="69" y="431" on="1"/>
        <pt x="111" y="431" on="1"/>
        <pt x="111" y="483" on="1"/>
        <pt x="111" y="522" on="0"/>
        <pt x="157" y="574" on="0"/>
        <pt x="225" y="605" on="0"/>
        <pt x="302" y="617" on="0"/>
        <pt x="333" y="617" on="1"/>
        <pt x="368" y="617" on="0"/>
        <pt x="439" y="603" on="0"/>
        <pt x="459" y="576" on="1"/>
        <pt x="497" y="599" on="0"/>
        <pt x="581" y="617" on="0"/>
        <pt x="625" y="617" on="1"/>
        <pt x="634" y="617" on="0"/>
        <pt x="680" y="615" on="0"/>
        <pt x="727" y="600" on="0"/>
        <pt x="763" y="567" on="0"/>
        <pt x="763" y="537" on="1"/>
        <pt x="763" y="515" on="0"/>
        <pt x="736" y="491" on="0"/>
        <pt x="718" y="491" on="1"/>
        <pt x="701" y="491" on="0"/>
        <pt x="674" y="515" on="0"/>
        <pt x="674" y="536" on="1"/>
        <pt x="674" y="541" on="0"/>
        <pt x="675" y="545" on="0"/>
        <pt x="675" y="547" on="1"/>
        <pt x="675" y="550" on="0"/>
        <pt x="658" y="554" on="0"/>
        <pt x="638" y="556" on="0"/>
        <pt x="620" y="556" on="0"/>
        <pt x="618" y="556" on="1"/>
        <pt x="602" y="556" on="0"/>
        <pt x="548" y="551" on="0"/>
        <pt x="519" y="537" on="1"/>
        <pt x="501" y="529" on="0"/>
        <pt x="482" y="514" on="0"/>
        <pt x="473" y="499" on="0"/>
        <pt x="472" y="485" on="0"/>
        <pt x="472" y="477" on="1"/>
        <pt x="472" y="431" on="1"/>
        <pt x="723" y="431" on="1"/>
        <pt x="749" y="431" on="0"/>
        <pt x="763" y="413" on="0"/>
        <pt x="763" y="390" on="1"/>
      </contour>
      <contour>
        <pt x="403" y="431" on="1"/>
        <pt x="403" y="498" on="1"/>
        <pt x="398" y="501" on="0"/>
        <pt x="383" y="519" on="0"/>
        <pt x="383" y="536" on="1"/>
        <pt x="383" y="541" on="0"/>
        <pt x="384" y="545" on="0"/>
        <pt x="384" y="547" on="1"/>
        <pt x="384" y="550" on="0"/>
        <pt x="367" y="554" on="0"/>
        <pt x="347" y="556" on="0"/>
        <pt x="329" y="556" on="0"/>
        <pt x="327" y="556" on="1"/>
        <pt x="316" y="556" on="0"/>
        <pt x="257" y="551" on="0"/>
        <pt x="227" y="537" on="1"/>
        <pt x="209" y="529" on="0"/>
        <pt x="190" y="514" on="0"/>
        <pt x="181" y="500" on="0"/>
        <pt x="180" y="485" on="0"/>
        <pt x="180" y="477" on="1"/>
        <pt x="180" y="431" on="1"/>
      </contour>
    </TTGlyph>
    <TTGlyph name="f_f_l" xMin="17" yMin="0" xMax="857" yMax="617">
      <contour>
        <pt x="763" y="61" on="1"/>
        <pt x="817" y="61" on="1"/>
        <pt x="823" y="61" on="0"/>
        <pt x="837" y="60" on="0"/>
        <pt x="849" y="54" on="0"/>
        <pt x="857" y="42" on="0"/>
        <pt x="857" y="30" on="1"/>
        <pt x="857" y="19" on="0"/>
        <pt x="849" y="7" on="0"/>
        <pt x="837" y="1" on="0"/>
        <pt x="823" y="0" on="0"/>
        <pt x="817" y="0" on="1"/>
        <pt x="640" y="0" on="1"/>
        <pt x="634" y="0" on="0"/>
        <pt x="620" y="1" on="0"/>
        <pt x="608" y="7" on="0"/>
        <pt x="600" y="19" on="0"/>
        <pt x="600" y="31" on="1"/>
        <pt x="600" y="42" on="0"/>
        <pt x="608" y="54" on="0"/>
        <pt x="620" y="60" on="0"/>
        <pt x="634" y="61" on="0"/>
        <pt x="640" y="61" on="1"/>
        <pt x="694" y="61" on="1"/>
        <pt x="694" y="370" on="1"/>
        <pt x="472" y="370" on="1"/>
        <pt x="472" y="61" on="1"/>
        <pt x="526" y="61" on="1"/>
        <pt x="532" y="61" on="0"/>
        <pt x="546" y="60" on="0"/>
        <pt x="558" y="54" on="0"/>
        <pt x="566" y="42" on="0"/>
        <pt x="566" y="30" on="1"/>
        <pt x="566" y="19" on="0"/>
        <pt x="558" y="7" on="0"/>
        <pt x="546" y="1" on="0"/>
        <pt x="532" y="0" on="0"/>
        <pt x="526" y="0" on="1"/>
        <pt x="349" y="0" on="1"/>
        <pt x="343" y="0" on="0"/>
        <pt x="329" y="1" on="0"/>
        <pt x="317" y="7" on="0"/>
        <pt x="309" y="19" on="0"/>
        <pt x="309" y="30" on="1"/>
        <pt x="309" y="42" on="0"/>
        <pt x="317" y="54" on="0"/>
        <pt x="329" y="60" on="0"/>
        <pt x="343" y="61" on="0"/>
        <pt x="349" y="61" on="1"/>
        <pt x="403" y="61" on="1"/>
        <pt x="403" y="370" on="1"/>
        <pt x="180" y="370" on="1"/>
        <pt x="180" y="61" on="1"/>
        <pt x="234" y="61" on="1"/>
        <pt x="240" y="61" on="0"/>
        <pt x="254" y="60" on="0"/>
        <pt x="266" y="54" on="0"/>
        <pt x="274" y="42" on="0"/>
        <pt x="274" y="30" on="1"/>
        <pt x="274" y="19" on="0"/>
        <pt x="266" y="7" on="0"/>
        <pt x="254" y="1" on="0"/>
        <pt x="240" y="0" on="0"/>
        <pt x="234" y="0" on="1"/>
        <pt x="57" y="0" on="1"/>
        <pt x="51" y="0" on="0"/>
        <pt x="37" y="1" on="0"/>
        <pt x="25" y="7" on="0"/>
        <pt x="17" y="19" on="0"/>
        <pt x="17" y="30" on="1"/>
        <pt x="17" y="42" on="0"/>
        <pt x="25" y="54" on="0"/>
        <pt x="37" y="60" on="0"/>
        <pt x="51" y="61" on="0"/>
        <pt x="57" y="61" on="1"/>
        <pt x="111" y="61" on="1"/>
        <pt x="111" y="370" on="1"/>
        <pt x="68" y="370" on="1"/>
        <pt x="62" y="370" on="0"/>
        <pt x="48" y="371" on="0"/>
        <pt x="36" y="377" on="0"/>
        <pt x="28" y="389" on="0"/>
        <pt x="28" y="400" on="1"/>
        <pt x="28" y="412" on="0"/>
        <pt x="36" y="424" on="0"/>
        <pt x="49" y="430" on="0"/>
        <pt x="63" y="431" on="0"/>
        <pt x="69" y="431" on="1"/>
        <pt x="111" y="431" on="1"/>
        <pt x="111" y="483" on="1"/>
        <pt x="111" y="519" on="0"/>
        <pt x="151" y="570" on="0"/>
        <pt x="217" y="602" on="0"/>
        <pt x="299" y="617" on="0"/>
        <pt x="341" y="617" on="1"/>
        <pt x="381" y="617" on="0"/>
        <pt x="446" y="605" on="0"/>
        <pt x="463" y="579" on="1"/>
        <pt x="488" y="593" on="0"/>
        <pt x="539" y="609" on="0"/>
        <pt x="584" y="616" on="0"/>
        <pt x="622" y="617" on="0"/>
        <pt x="634" y="617" on="1"/>
        <pt x="654" y="617" on="0"/>
        <pt x="688" y="616" on="0"/>
        <pt x="709" y="611" on="1"/>
        <pt x="722" y="611" on="1"/>
        <pt x="722" y="609" on="0"/>
        <pt x="723" y="608" on="1"/>
        <pt x="729" y="611" on="0"/>
        <pt x="735" y="611" on="1"/>
        <pt x="746" y="611" on="0"/>
        <pt x="757" y="602" on="0"/>
        <pt x="762" y="589" on="0"/>
        <pt x="763" y="575" on="0"/>
        <pt x="763" y="570" on="1"/>
      </contour>
      <contour>
        <pt x="403" y="431" on="1"/>
        <pt x="403" y="483" on="1"/>
        <pt x="403" y="489" on="0"/>
        <pt x="403" y="506" on="0"/>
        <pt x="405" y="512" on="1"/>
        <pt x="391" y="521" on="0"/>
        <pt x="387" y="545" on="0"/>
        <pt x="387" y="553" on="1"/>
        <pt x="370" y="555" on="0"/>
        <pt x="342" y="556" on="0"/>
        <pt x="333" y="556" on="1"/>
        <pt x="318" y="556" on="0"/>
        <pt x="262" y="552" on="0"/>
        <pt x="233" y="540" on="1"/>
        <pt x="213" y="532" on="0"/>
        <pt x="192" y="516" on="0"/>
        <pt x="182" y="500" on="0"/>
        <pt x="180" y="485" on="0"/>
        <pt x="180" y="477" on="1"/>
        <pt x="180" y="431" on="1"/>
      </contour>
      <contour>
        <pt x="694" y="431" on="1"/>
        <pt x="694" y="523" on="1"/>
        <pt x="685" y="529" on="0"/>
        <pt x="679" y="546" on="0"/>
        <pt x="678" y="554" on="1"/>
        <pt x="663" y="556" on="0"/>
        <pt x="640" y="556" on="0"/>
        <pt x="626" y="556" on="1"/>
        <pt x="609" y="556" on="0"/>
        <pt x="554" y="552" on="0"/>
        <pt x="525" y="540" on="1"/>
        <pt x="505" y="532" on="0"/>
        <pt x="484" y="516" on="0"/>
        <pt x="474" y="500" on="0"/>
        <pt x="472" y="485" on="0"/>
        <pt x="472" y="477" on="1"/>
        <pt x="472" y="431" on="1"/>
      </contour>
    </TTGlyph>
    <TTGlyph name="fi" xMin="17" yMin="0" xMax="565" yMax="617">
      <contour>
        <pt x="471" y="61" on="1"/>
        <pt x="525" y="61" on="1"/>
        <pt x="531" y="61" on="0"/>
        <pt x="545" y="60" on="0"/>
        <pt x="557" y="54" on="0"/>
        <pt x="565" y="42" on="0"/>
        <pt x="565" y="30" on="1"/>
        <pt x="565" y="19" on="0"/>
        <pt x="557" y="7" on="0"/>
        <pt x="545" y="1" on="0"/>
        <pt x="531" y="0" on="0"/>
        <pt x="525" y="0" on="1"/>
        <pt x="348" y="0" on="1"/>
        <pt x="342" y="0" on="0"/>
        <pt x="328" y="1" on="0"/>
        <pt x="316" y="7" on="0"/>
        <pt x="308" y="19" on="0"/>
        <pt x="308" y="31" on="1"/>
        <pt x="308" y="42" on="0"/>
        <pt x="316" y="54" on="0"/>
        <pt x="328" y="60" on="0"/>
        <pt x="342" y="61" on="0"/>
        <pt x="348" y="61" on="1"/>
        <pt x="402" y="61" on="1"/>
        <pt x="402" y="370" on="1"/>
        <pt x="180" y="370" on="1"/>
        <pt x="180" y="61" on="1"/>
        <pt x="234" y="61" on="1"/>
        <pt x="240" y="61" on="0"/>
        <pt x="254" y="60" on="0"/>
        <pt x="266" y="54" on="0"/>
        <pt x="274" y="42" on="0"/>
        <pt x="274" y="30" on="1"/>
        <pt x="274" y="19" on="0"/>
        <pt x="266" y="7" on="0"/>
        <pt x="254" y="1" on="0"/>
        <pt x="240" y="0" on="0"/>
        <pt x="234" y="0" on="1"/>
        <pt x="57" y="0" on="1"/>
        <pt x="51" y="0" on="0"/>
        <pt x="37" y="1" on="0"/>
        <pt x="25" y="7" on="0"/>
        <pt x="17" y="19" on="0"/>
        <pt x="17" y="30" on="1"/>
        <pt x="17" y="42" on="0"/>
        <pt x="25" y="54" on="0"/>
        <pt x="37" y="60" on="0"/>
        <pt x="51" y="61" on="0"/>
        <pt x="57" y="61" on="1"/>
        <pt x="111" y="61" on="1"/>
        <pt x="111" y="370" on="1"/>
        <pt x="68" y="370" on="1"/>
        <pt x="62" y="370" on="0"/>
        <pt x="48" y="371" on="0"/>
        <pt x="36" y="377" on="0"/>
        <pt x="28" y="389" on="0"/>
        <pt x="28" y="400" on="1"/>
        <pt x="28" y="412" on="0"/>
        <pt x="36" y="424" on="0"/>
        <pt x="49" y="430" on="0"/>
        <pt x="63" y="431" on="0"/>
        <pt x="69" y="431" on="1"/>
        <pt x="111" y="431" on="1"/>
        <pt x="111" y="483" on="1"/>
        <pt x="111" y="522" on="0"/>
        <pt x="156" y="573" on="0"/>
        <pt x="223" y="604" on="0"/>
        <pt x="301" y="617" on="0"/>
        <pt x="333" y="617" on="1"/>
        <pt x="342" y="617" on="0"/>
        <pt x="388" y="615" on="0"/>
        <pt x="435" y="600" on="0"/>
        <pt x="471" y="567" on="0"/>
        <pt x="471" y="537" on="1"/>
        <pt x="471" y="515" on="0"/>
        <pt x="444" y="491" on="0"/>
        <pt x="426" y="491" on="1"/>
        <pt x="409" y="491" on="0"/>
        <pt x="382" y="515" on="0"/>
        <pt x="382" y="536" on="1"/>
        <pt x="382" y="541" on="0"/>
        <pt x="383" y="545" on="0"/>
        <pt x="383" y="547" on="1"/>
        <pt x="383" y="550" on="0"/>
        <pt x="366" y="554" on="0"/>
        <pt x="346" y="556" on="0"/>
        <pt x="328" y="556" on="0"/>
        <pt x="326" y="556" on="1"/>
        <pt x="310" y="556" on="0"/>
        <pt x="256" y="551" on="0"/>
        <pt x="227" y="537" on="1"/>
        <pt x="209" y="529" on="0"/>
        <pt x="190" y="514" on="0"/>
        <pt x="181" y="499" on="0"/>
        <pt x="180" y="485" on="0"/>
        <pt x="180" y="477" on="1"/>
        <pt x="180" y="431" on="1"/>
        <pt x="431" y="431" on="1"/>
        <pt x="457" y="431" on="0"/>
        <pt x="471" y="413" on="0"/>
        <pt x="471" y="390" on="1"/>
      </contour>
    </TTGlyph>
    <TTGlyph name="five" xMin="52" yMin="-11" xMax="472" yMax="611">
      <contour>
        <pt x="157" y="550" on="1"/>
        <pt x="157" y="360" on="1"/>
        <pt x="188" y="377" on="0"/>
        <pt x="251" y="389" on="0"/>
        <pt x="277" y="389" on="1"/>
        <pt x="321" y="389" on="0"/>
        <pt x="393" y="355" on="0"/>
        <pt x="444" y="300" on="0"/>
        <pt x="472" y="228" on="0"/>
        <pt x="472" y="190" on="1"/>
        <pt x="472" y="148" on="0"/>
        <pt x="437" y="75" on="0"/>
        <pt x="377" y="21" on="0"/>
        <pt x="295" y="-11" on="0"/>
        <pt x="248" y="-11" on="1"/>
        <pt x="206" y="-11" on="0"/>
        <pt x="134" y="13" on="0"/>
        <pt x="82" y="55" on="0"/>
        <pt x="52" y="111" on="0"/>
        <pt x="52" y="142" on="1"/>
        <pt x="52" y="157" on="0"/>
        <pt x="62" y="175" on="0"/>
        <pt x="76" y="186" on="0"/>
        <pt x="91" y="190" on="0"/>
        <pt x="97" y="190" on="1"/>
        <pt x="113" y="190" on="0"/>
        <pt x="141" y="167" on="0"/>
        <pt x="141" y="145" on="1"/>
        <pt x="141" y="130" on="0"/>
        <pt x="132" y="117" on="0"/>
        <pt x="128" y="113" on="1"/>
        <pt x="139" y="92" on="0"/>
        <pt x="171" y="68" on="0"/>
        <pt x="205" y="54" on="0"/>
        <pt x="238" y="50" on="0"/>
        <pt x="248" y="50" on="1"/>
        <pt x="280" y="50" on="0"/>
        <pt x="336" y="71" on="0"/>
        <pt x="378" y="109" on="0"/>
        <pt x="403" y="160" on="0"/>
        <pt x="403" y="190" on="1"/>
        <pt x="403" y="214" on="0"/>
        <pt x="386" y="264" on="0"/>
        <pt x="354" y="303" on="0"/>
        <pt x="307" y="328" on="0"/>
        <pt x="276" y="328" on="1"/>
        <pt x="232" y="328" on="0"/>
        <pt x="170" y="302" on="0"/>
        <pt x="150" y="278" on="1"/>
        <pt x="144" y="270" on="0"/>
        <pt x="134" y="263" on="0"/>
        <pt x="120" y="263" on="1"/>
        <pt x="108" y="263" on="0"/>
        <pt x="95" y="271" on="0"/>
        <pt x="89" y="283" on="0"/>
        <pt x="88" y="297" on="0"/>
        <pt x="88" y="304" on="1"/>
        <pt x="88" y="570" on="1"/>
        <pt x="88" y="594" on="0"/>
        <pt x="103" y="611" on="0"/>
        <pt x="128" y="611" on="1"/>
        <pt x="397" y="611" on="1"/>
        <pt x="403" y="611" on="0"/>
        <pt x="417" y="610" on="0"/>
        <pt x="429" y="604" on="0"/>
        <pt x="437" y="592" on="0"/>
        <pt x="437" y="580" on="1"/>
        <pt x="437" y="569" on="0"/>
        <pt x="429" y="557" on="0"/>
        <pt x="417" y="551" on="0"/>
        <pt x="403" y="550" on="0"/>
        <pt x="397" y="550" on="1"/>
      </contour>
    </TTGlyph>
    <TTGlyph name="fl" xMin="17" yMin="0" xMax="565" yMax="617">
      <contour>
        <pt x="471" y="61" on="1"/>
        <pt x="525" y="61" on="1"/>
        <pt x="531" y="61" on="0"/>
        <pt x="545" y="60" on="0"/>
        <pt x="557" y="54" on="0"/>
        <pt x="565" y="42" on="0"/>
        <pt x="565" y="30" on="1"/>
        <pt x="565" y="19" on="0"/>
        <pt x="557" y="7" on="0"/>
        <pt x="545" y="1" on="0"/>
        <pt x="531" y="0" on="0"/>
        <pt x="525" y="0" on="1"/>
        <pt x="348" y="0" on="1"/>
        <pt x="342" y="0" on="0"/>
        <pt x="328" y="1" on="0"/>
        <pt x="316" y="7" on="0"/>
        <pt x="308" y="19" on="0"/>
        <pt x="308" y="31" on="1"/>
        <pt x="308" y="42" on="0"/>
        <pt x="316" y="54" on="0"/>
        <pt x="328" y="60" on="0"/>
        <pt x="342" y="61" on="0"/>
        <pt x="348" y="61" on="1"/>
        <pt x="402" y="61" on="1"/>
        <pt x="402" y="370" on="1"/>
        <pt x="180" y="370" on="1"/>
        <pt x="180" y="61" on="1"/>
        <pt x="234" y="61" on="1"/>
        <pt x="240" y="61" on="0"/>
        <pt x="254" y="60" on="0"/>
        <pt x="266" y="54" on="0"/>
        <pt x="274" y="42" on="0"/>
        <pt x="274" y="30" on="1"/>
        <pt x="274" y="19" on="0"/>
        <pt x="266" y="7" on="0"/>
        <pt x="254" y="1" on="0"/>
        <pt x="240" y="0" on="0"/>
        <pt x="234" y="0" on="1"/>
        <pt x="57" y="0" on="1"/>
        <pt x="51" y="0" on="0"/>
        <pt x="37" y="1" on="0"/>
        <pt x="25" y="7" on="0"/>
        <pt x="17" y="19" on="0"/>
        <pt x="17" y="30" on="1"/>
        <pt x="17" y="42" on="0"/>
        <pt x="25" y="54" on="0"/>
        <pt x="37" y="60" on="0"/>
        <pt x="51" y="61" on="0"/>
        <pt x="57" y="61" on="1"/>
        <pt x="111" y="61" on="1"/>
        <pt x="111" y="370" on="1"/>
        <pt x="68" y="370" on="1"/>
        <pt x="62" y="370" on="0"/>
        <pt x="48" y="371" on="0"/>
        <pt x="36" y="377" on="0"/>
        <pt x="28" y="389" on="0"/>
        <pt x="28" y="400" on="1"/>
        <pt x="28" y="412" on="0"/>
        <pt x="36" y="424" on="0"/>
        <pt x="49" y="430" on="0"/>
        <pt x="63" y="431" on="0"/>
        <pt x="69" y="431" on="1"/>
        <pt x="111" y="431" on="1"/>
        <pt x="111" y="483" on="1"/>
        <pt x="111" y="518" on="0"/>
        <pt x="150" y="569" on="0"/>
        <pt x="214" y="602" on="0"/>
        <pt x="297" y="617" on="0"/>
        <pt x="342" y="617" on="1"/>
        <pt x="362" y="617" on="0"/>
        <pt x="396" y="616" on="0"/>
        <pt x="417" y="611" on="1"/>
        <pt x="430" y="611" on="1"/>
        <pt x="430" y="609" on="0"/>
        <pt x="431" y="608" on="1"/>
        <pt x="437" y="611" on="0"/>
        <pt x="443" y="611" on="1"/>
        <pt x="454" y="611" on="0"/>
        <pt x="465" y="602" on="0"/>
        <pt x="470" y="589" on="0"/>
        <pt x="471" y="575" on="0"/>
        <pt x="471" y="570" on="1"/>
      </contour>
      <contour>
        <pt x="402" y="431" on="1"/>
        <pt x="402" y="523" on="1"/>
        <pt x="393" y="529" on="0"/>
        <pt x="387" y="546" on="0"/>
        <pt x="386" y="554" on="1"/>
        <pt x="371" y="556" on="0"/>
        <pt x="348" y="556" on="0"/>
        <pt x="334" y="556" on="1"/>
        <pt x="317" y="556" on="0"/>
        <pt x="262" y="552" on="0"/>
        <pt x="233" y="540" on="1"/>
        <pt x="213" y="532" on="0"/>
        <pt x="192" y="516" on="0"/>
        <pt x="182" y="500" on="0"/>
        <pt x="180" y="485" on="0"/>
        <pt x="180" y="477" on="1"/>
        <pt x="180" y="431" on="1"/>
      </contour>
    </TTGlyph>
    <TTGlyph name="four" xMin="29" yMin="0" xMax="495" yMax="623">
      <contour>
        <pt x="266" y="602" on="1"/>
        <pt x="276" y="617" on="0"/>
        <pt x="290" y="623" on="0"/>
        <pt x="308" y="623" on="1"/>
        <pt x="336" y="623" on="1"/>
        <pt x="362" y="623" on="0"/>
        <pt x="377" y="607" on="0"/>
        <pt x="377" y="582" on="1"/>
        <pt x="377" y="230" on="1"/>
        <pt x="455" y="230" on="1"/>
        <pt x="461" y="230" on="0"/>
        <pt x="475" y="229" on="0"/>
        <pt x="487" y="223" on="0"/>
        <pt x="495" y="211" on="0"/>
        <pt x="495" y="199" on="1"/>
        <pt x="495" y="188" on="0"/>
        <pt x="487" y="176" on="0"/>
        <pt x="475" y="170" on="0"/>
        <pt x="461" y="169" on="0"/>
        <pt x="455" y="169" on="1"/>
        <pt x="377" y="169" on="1"/>
        <pt x="377" y="61" on="1"/>
        <pt x="439" y="61" on="1"/>
        <pt x="445" y="61" on="0"/>
        <pt x="459" y="60" on="0"/>
        <pt x="471" y="54" on="0"/>
        <pt x="479" y="42" on="0"/>
        <pt x="479" y="30" on="1"/>
        <pt x="479" y="19" on="0"/>
        <pt x="471" y="7" on="0"/>
        <pt x="459" y="1" on="0"/>
        <pt x="445" y="0" on="0"/>
        <pt x="439" y="0" on="1"/>
        <pt x="259" y="0" on="1"/>
        <pt x="253" y="0" on="0"/>
        <pt x="239" y="1" on="0"/>
        <pt x="227" y="7" on="0"/>
        <pt x="219" y="19" on="0"/>
        <pt x="219" y="30" on="1"/>
        <pt x="219" y="42" on="0"/>
        <pt x="227" y="54" on="0"/>
        <pt x="239" y="60" on="0"/>
        <pt x="253" y="61" on="0"/>
        <pt x="259" y="61" on="1"/>
        <pt x="321" y="61" on="1"/>
        <pt x="321" y="169" on="1"/>
        <pt x="69" y="169" on="1"/>
        <pt x="46" y="169" on="0"/>
        <pt x="29" y="184" on="0"/>
        <pt x="29" y="209" on="1"/>
        <pt x="29" y="224" on="0"/>
        <pt x="31" y="234" on="0"/>
        <pt x="38" y="244" on="1"/>
      </contour>
      <contour>
        <pt x="321" y="230" on="1"/>
        <pt x="321" y="579" on="1"/>
        <pt x="99" y="230" on="1"/>
      </contour>
    </TTGlyph>
</ttFont>
